<svg width="1142" height="713" viewBox="0 0 1142 713" fill="none" xmlns="http://www.w3.org/2000/svg">
<g clip-path="url(.clip0_28175_9137)">
<path d="M367.418 626.265C318.91 611.867 272.217 593.153 231.778 567.358C57.094 455.947 95.4814 197.878 232.567 72.4798C275.553 33.161 331.243 5.7208 389.73 0.860574C455.188 -4.58377 523.715 15.9496 572.982 59.928C617.748 99.8799 644.038 154.725 702.271 178.406C769.807 205.873 844.709 195.114 915.484 203.251C1054.63 219.245 1145.56 341.121 1114.82 480.195C1079.2 641.372 931.002 677.248 787.351 682.862C704.064 686.117 620.776 677.761 538.774 663.604C483.967 654.124 424.428 643.182 367.418 626.265Z" fill="#F6F9FF"/>
<path d="M205.694 431.78C202.113 434.925 197.751 437.049 193.066 437.93C188.381 438.812 183.546 438.417 179.066 436.789C174.585 435.161 170.626 432.358 167.601 428.675C164.577 424.991 162.599 420.563 161.874 415.853C160.175 404.835 164.867 391.596 157.079 383.624C153.163 379.611 146.94 378.237 143.626 373.725C140.838 369.935 140.78 364.865 140.829 360.161C140.921 351.814 141.014 343.465 141.106 335.115C137.39 330.482 129.892 330.759 125.454 326.812C121.015 322.866 120.101 316.526 119.325 310.702C117 293.5 113.745 276.436 109.574 259.585C122.603 263.411 135.494 267.562 147.841 273.203C154.733 276.355 161.936 280.199 165.393 286.936C168.85 293.674 167.757 301.802 167.655 309.423C167.619 311.884 167.717 314.426 168.757 316.659C171.433 322.407 178.824 323.731 184.324 326.915C187.355 328.691 189.931 331.148 191.848 334.091C193.766 337.034 194.973 340.383 195.373 343.872C196.033 350.2 193.976 356.656 195.172 362.907C197.821 376.757 214.428 383.151 221.043 395.6C228.001 408.611 216.783 422.051 205.694 431.78Z" fill="#D4DFFF"/>
<path d="M239.871 555.582C239.763 555.577 239.66 555.535 239.579 555.464C239.498 555.393 239.444 555.296 239.425 555.19C236.815 540.065 227.68 499.177 211.818 452.683C200.176 418.559 186.692 386.308 171.749 356.817C153.069 319.968 132.051 287.36 109.235 259.902C109.195 259.854 109.165 259.799 109.147 259.74C109.128 259.68 109.121 259.618 109.127 259.556C109.133 259.494 109.15 259.434 109.179 259.379C109.208 259.324 109.247 259.275 109.295 259.235C109.343 259.195 109.398 259.165 109.457 259.147C109.517 259.128 109.579 259.122 109.641 259.127C109.703 259.133 109.763 259.151 109.818 259.179C109.873 259.208 109.922 259.248 109.962 259.295C132.813 286.811 153.885 319.491 172.597 356.397C187.566 385.924 201.064 418.22 212.719 452.389C228.603 498.94 237.743 539.878 240.375 555.025C240.395 555.148 240.366 555.275 240.293 555.377C240.221 555.479 240.11 555.548 239.987 555.569L239.871 555.582Z" fill="#1C056D"/>
<path d="M0 392.729C4.46054 396.327 6.37411 402.133 8.64898 407.408C10.9239 412.682 14.3942 418.189 19.9787 419.54C26.0317 421.007 32.388 417.012 38.4677 418.368C43.3743 419.469 46.8847 423.794 49.4852 428.115C52.0857 432.435 54.3472 437.189 58.3661 440.239C64.6109 444.97 73.2643 444.359 81.0212 443.288C88.7781 442.218 97.2263 441.032 103.993 444.974C112.227 449.772 115.296 460.692 123.468 465.588C126.947 467.67 131.051 468.459 135.096 468.758C147.248 469.623 159.345 466.443 169.5 459.715C168.921 448.733 165.098 436.863 158.197 428.302C151.297 419.741 140.922 413.788 129.935 413.213C126.434 413.026 122.888 413.365 119.426 412.767C104.881 410.346 97.32 393.464 83.8403 387.49C78.0445 384.945 71.5239 384.581 65.4807 386.464C59.6329 388.31 54.4141 392.225 48.3165 392.871C42.3573 393.5 36.6032 390.918 30.8357 389.304C19.7736 386.214 10.8079 388.818 0 392.729Z" fill="#D4DFFF"/>
<path d="M235.793 551.681C235.69 551.678 235.591 551.642 235.51 551.577C235.43 551.513 235.372 551.424 235.347 551.324C228.42 524.263 212.924 498.334 190.528 476.343C171.285 457.441 146.56 441.081 117.063 427.709C85.3258 413.32 48.7137 402.409 1.84241 393.375C1.71878 393.352 1.60962 393.28 1.53894 393.176C1.46825 393.072 1.44183 392.944 1.46549 392.82C1.48915 392.697 1.56095 392.587 1.6651 392.517C1.76925 392.446 1.89721 392.42 2.02083 392.443C48.968 401.495 85.647 412.424 117.455 426.844C147.051 440.261 171.874 456.688 191.179 475.665C213.696 497.781 229.281 523.861 236.23 551.088C236.26 551.21 236.241 551.339 236.177 551.447C236.113 551.556 236.008 551.635 235.887 551.667L235.793 551.681Z" fill="#1C056D"/>
<path d="M254.444 392.247C250.972 392.917 247.396 392.817 243.967 391.957C240.537 391.096 237.338 389.495 234.594 387.266C231.851 385.036 229.629 382.233 228.085 379.053C226.542 375.873 225.714 372.394 225.66 368.86C225.58 363.509 227.266 358.306 229.104 353.285C229.732 351.564 230.393 349.771 230.165 347.957C229.987 346.512 229.273 345.201 228.466 343.984C225.486 339.409 221.329 335.432 219.768 330.201C216.98 320.922 223.18 310.925 221.235 301.432C220.557 298.124 218.929 295.101 217.765 291.93C213.666 280.783 215.811 267.531 223.229 258.234C233.667 262.421 240.482 273.551 240.585 284.796C240.634 290.401 239.095 296.34 241.477 301.414C242.9 304.446 245.541 306.698 248.016 308.963C252.343 312.927 256.527 317.471 258.057 323.138C260.461 332.056 255.858 341.866 258.842 350.596C261.826 359.327 271.456 364.419 274.075 373.181C274.743 375.546 274.964 378.016 274.726 380.462C274.423 384.221 273.183 388.1 270.35 390.593C265.948 394.472 260.211 391.132 254.444 392.247Z" fill="#D4DFFF"/>
<path d="M258.368 554.013C258.247 554.012 258.131 553.965 258.044 553.882C257.956 553.8 257.903 553.687 257.895 553.567C255.848 529.488 256.41 504.884 256.949 481.069C257.703 448.126 258.479 414.065 252.319 381.234C249.13 364.254 244.036 347.346 239.107 331.022C232.256 308.281 225.168 284.792 223.138 260.767C223.133 260.705 223.14 260.642 223.159 260.583C223.178 260.524 223.208 260.469 223.249 260.421C223.289 260.373 223.338 260.334 223.393 260.305C223.449 260.277 223.509 260.259 223.571 260.254C223.633 260.249 223.696 260.256 223.755 260.275C223.814 260.294 223.87 260.324 223.917 260.364C223.965 260.404 224.004 260.453 224.033 260.509C224.061 260.564 224.079 260.625 224.084 260.687C226.1 284.613 233.175 308.067 240.017 330.75C244.95 347.109 250.053 364.031 253.247 381.06C259.429 414.002 258.653 448.122 257.899 481.118C257.355 504.906 256.793 529.502 258.841 553.513C258.845 553.576 258.838 553.64 258.818 553.7C258.798 553.76 258.766 553.815 258.725 553.863C258.683 553.91 258.633 553.95 258.576 553.978C258.519 554.006 258.458 554.022 258.394 554.026L258.368 554.013Z" fill="#1C056D"/>
<path d="M206.199 705.509C206.199 705.509 162.392 557.522 169.444 553.607C176.496 549.692 349.445 549.536 349.445 549.536C349.445 549.536 329.635 705.179 324.104 705.509C318.573 705.839 220.798 706.187 206.199 705.509Z" fill="#1B3D9E"/>
<mask id="mask0_28175_9137" style="mask-type:luminance" maskUnits="userSpaceOnUse" x="168" y="549" width="182" height="157">
<path d="M206.199 705.509C206.199 705.509 162.392 557.522 169.444 553.607C176.496 549.692 349.445 549.536 349.445 549.536C349.445 549.536 329.635 705.179 324.104 705.509C318.573 705.839 220.798 706.187 206.199 705.509Z" fill="white"/>
</mask>
<g mask="url(#mask0_28175_9137)">
<path d="M248.9 538.085C248.9 538.085 198.304 602.7 201.172 604.425C204.04 606.151 346.175 635.459 346.14 633.738C346.104 632.017 360.592 549.536 360.592 549.536L248.9 538.085Z" fill="#1C056D"/>
</g>
<path d="M664.643 578.407H540.895V683.535H664.643V578.407Z" fill="#1B3D9E"/>
<path d="M705.443 683.535H503.081C497.945 683.535 493.781 687.698 493.781 692.832V696.6C493.781 701.735 497.945 705.897 503.081 705.897H705.443C710.579 705.897 714.743 701.735 714.743 696.6V692.832C714.743 687.698 710.579 683.535 705.443 683.535Z" fill="#1C056D"/>
<path d="M291.839 211.799C291.968 211.544 292.165 211.329 292.408 211.179C292.652 211.029 292.932 210.949 293.218 210.947C318.174 210.778 891.478 206.965 916.876 210.947C926.89 212.521 924.397 593.563 916.876 608.117C911.341 618.819 299.489 609.41 292.379 608.117C283.614 606.507 279.274 236.809 291.839 211.799Z" fill="#6880E4"/>
<path d="M306.929 229.309C306.929 229.309 304.967 554.655 312.813 555.542C320.659 556.429 892.464 560.001 897.366 555.542C902.268 551.083 904.231 226.638 897.366 226.638C890.501 226.638 306.929 229.309 306.929 229.309Z" fill="#D4DFFF"/>
<mask id="mask1_28175_9137" style="mask-type:luminance" maskUnits="userSpaceOnUse" x="306" y="226" width="596" height="332">
<path d="M306.929 229.309C306.929 229.309 304.967 554.655 312.813 555.542C320.659 556.429 892.464 560.001 897.366 555.542C902.268 551.083 904.231 226.638 897.366 226.638C890.501 226.638 306.929 229.309 306.929 229.309Z" fill="white"/>
</mask>
<g mask="url(#mask1_28175_9137)">
<path opacity="0.46" d="M682.475 219.259L460.255 564.148H295.996L306.929 229.305L682.475 219.259Z" fill="#6880E4"/>
<path opacity="0.46" d="M510.984 566.961L724.568 217.408H818.293L612.52 565.133L510.984 566.961Z" fill="#6880E4"/>
<path opacity="0.46" d="M857.935 218.706L651.145 567.26L779.242 565.641L916.805 312.544L914.031 220.909L857.935 218.706Z" fill="#6880E4"/>
</g>
<path d="M608.521 602.175C616.196 598.997 619.84 590.202 616.661 582.53C613.482 574.858 604.684 571.215 597.009 574.393C589.335 577.57 585.69 586.366 588.869 594.037C592.048 601.709 600.847 605.352 608.521 602.175Z" fill="#1B3D9E"/>
<path d="M460.918 369.877C461.658 366.435 463.103 363.822 465.253 362.038C467.23 360.325 469.739 359.348 472.355 359.273C474.997 359.231 477.584 360.039 479.732 361.579C482.07 363.181 483.73 365.639 484.715 368.954C484.834 376.944 484.895 384.842 484.898 392.649C484.901 400.455 485.024 408.292 485.268 416.16C490.677 416.16 495.934 416.098 501.04 415.973C506.146 415.848 511.033 415.787 515.702 415.79C519.024 416.777 521.483 418.344 523.08 420.49C524.598 422.404 525.412 424.781 525.386 427.223C525.323 429.56 524.402 431.71 522.62 433.675C520.839 435.64 518.225 436.993 514.779 437.733C509.985 437.733 505.19 437.764 500.393 437.826C495.597 437.889 490.8 437.858 486.004 437.733C486.248 443.88 486.396 450.549 486.45 457.74C486.503 464.931 486.596 471.6 486.726 477.747C486.477 481.799 485.155 484.81 482.761 486.781C480.522 488.689 477.675 489.736 474.732 489.733C471.779 489.733 468.981 488.718 466.337 486.687C463.694 484.657 462.127 481.684 461.636 477.769C461.511 471.5 461.603 464.892 461.912 457.945C462.222 450.998 462.251 444.391 462.002 438.125C456.717 438 451.03 437.724 444.94 437.296C438.975 436.884 433.053 435.989 427.232 434.62C421.763 433.361 416.469 431.441 411.464 428.904C406.867 426.616 402.882 423.265 399.84 419.13C397.203 415.511 395.608 411.24 395.227 406.779C394.875 402.189 395.313 397.572 396.521 393.13C397.845 388.212 399.7 383.451 402.052 378.933C404.486 374.189 407.166 369.575 410.081 365.11C412.971 360.684 415.862 356.534 418.752 352.661C421.643 348.788 424.194 345.369 426.407 342.405C431.322 335.767 436.364 329.314 441.532 323.045C446.7 316.775 451.866 310.445 457.028 304.054C459.731 301.837 462.528 300.7 465.418 300.643C468.08 300.508 470.711 301.253 472.908 302.761C475.033 304.288 476.565 306.503 477.243 309.03C478.04 311.738 477.825 314.75 476.596 318.064C472.415 323.228 467.497 329.098 461.841 335.677C456.185 342.255 450.626 349.137 445.163 356.322C439.794 363.363 434.808 370.688 430.225 378.264C425.732 385.696 422.565 392.918 420.724 399.93C419.986 402.391 420.263 404.512 421.553 406.293C422.844 408.073 424.75 409.549 427.272 410.721C430.083 411.983 433.022 412.941 436.037 413.579C439.294 414.304 442.588 414.858 445.904 415.237C449.16 415.609 452.172 415.885 454.941 416.067C457.709 416.248 459.831 416.397 461.306 416.513C461.056 408.769 460.933 400.994 460.936 393.188L460.918 369.877Z" fill="white"/>
<path d="M550.382 454.882C548.779 449.599 547.181 442.991 545.587 435.057C543.905 426.557 542.703 417.969 541.988 409.334C541.18 399.892 540.903 390.412 541.158 380.939C541.362 371.578 542.443 362.257 544.387 353.098C546.137 344.668 549.088 336.532 553.148 328.939C557.082 321.689 562.308 315.973 568.827 311.79C576.552 306.801 585.019 303.067 593.913 300.728C602.151 298.553 610.678 297.682 619.186 298.146C627.259 298.605 635.203 300.38 642.702 303.403C649.91 306.271 656.537 310.426 662.257 315.665C667.924 320.929 672.499 327.258 675.719 334.29C679.1 341.543 680.914 349.656 681.161 358.627C681.286 367.114 681.593 376.18 682.084 385.826C682.575 395.472 682.606 405.153 682.178 414.867C681.779 424.337 680.513 433.751 678.395 442.99C676.446 451.687 672.946 459.962 668.065 467.42C663.919 473.652 658.315 478.778 651.739 482.353C644.839 486.196 637.366 488.905 629.606 490.379C621.556 491.924 613.329 492.328 605.167 491.579C597.086 490.912 589.154 489.016 581.646 485.956C574.509 483.059 567.949 478.906 562.279 473.694C556.717 468.587 552.611 462.095 550.382 454.882ZM581.209 332.997C578.009 335.458 575.15 339.054 572.631 343.783C570.135 348.429 568.657 353.553 568.296 358.814C567.802 366.189 567.31 373.656 566.819 381.216C566.329 388.775 566.144 396.244 566.266 403.622C566.381 410.907 566.998 418.176 568.113 425.377C569.201 432.445 571.248 439.332 574.197 445.848C575.999 450.093 578.819 453.828 582.409 456.723C586.043 459.682 590.161 461.99 594.582 463.545C599.174 465.165 603.988 466.068 608.855 466.221C613.819 466.414 618.785 465.918 623.611 464.745C628.395 463.584 632.969 461.687 637.171 459.122C641.396 456.556 645.065 453.171 647.961 449.165C650.043 446.582 651.733 442.987 653.033 438.379C654.404 433.334 655.36 428.184 655.892 422.983C656.507 417.335 656.876 411.495 656.998 405.463C657.12 399.432 657.12 393.716 656.998 388.314C656.873 382.904 656.75 378.08 656.628 373.841C656.506 369.602 656.445 366.498 656.445 364.531C656.742 353.612 652.781 343.005 645.397 334.953C638.014 326.9 627.787 322.034 616.88 321.382C610.951 321.059 605.013 321.815 599.355 323.611C593.267 325.445 587.219 328.574 581.209 332.997Z" fill="white"/>
<path d="M768.224 369.877C768.964 366.434 770.409 363.822 772.559 362.038C774.536 360.325 777.045 359.348 779.66 359.273C782.303 359.231 784.89 360.039 787.038 361.579C789.375 363.181 791.036 365.639 792.02 368.954C792.142 376.944 792.203 384.842 792.203 392.648C792.203 400.455 792.327 408.292 792.574 416.16C797.986 416.16 803.243 416.098 808.346 415.973C813.449 415.848 818.336 415.787 823.008 415.79C826.329 416.777 828.789 418.344 830.386 420.49C831.903 422.404 832.717 424.781 832.692 427.223C832.629 429.559 831.707 431.71 829.926 433.675C828.145 435.64 825.528 436.992 822.076 437.733C817.282 437.733 812.487 437.764 807.69 437.826C802.894 437.889 798.097 437.858 793.301 437.733C793.547 443.88 793.696 450.549 793.747 457.74C793.797 464.931 793.889 471.6 794.023 477.747C793.773 481.799 792.452 484.81 790.058 486.781C787.819 488.689 784.971 489.736 782.029 489.733C779.076 489.733 776.278 488.718 773.634 486.687C770.991 484.657 769.423 481.684 768.933 477.769C768.808 471.5 768.9 464.892 769.209 457.945C769.519 450.998 769.548 444.391 769.299 438.125C764.014 438 758.327 437.724 752.237 437.296C746.272 436.884 740.349 435.989 734.529 434.62C729.06 433.361 723.765 431.441 718.761 428.904C714.164 426.616 710.179 423.265 707.136 419.13C704.503 415.509 702.908 411.239 702.524 406.779C702.172 402.189 702.61 397.572 703.818 393.13C705.142 388.211 706.998 383.45 709.353 378.933C711.786 374.188 714.466 369.574 717.382 365.11C720.273 360.684 723.163 356.534 726.054 352.661C728.944 348.788 731.495 345.369 733.708 342.405C738.623 335.767 743.665 329.314 748.834 323.045C754.002 316.775 759.167 310.445 764.329 304.054C767.033 301.837 769.829 300.7 772.72 300.643C775.375 300.512 778 301.256 780.191 302.761C782.317 304.288 783.848 306.503 784.527 309.03C785.327 311.738 785.111 314.75 783.88 318.064C779.699 323.227 774.781 329.098 769.125 335.677C763.469 342.255 757.905 349.138 752.433 356.326C747.062 363.367 742.073 370.691 737.49 378.268C732.997 385.7 729.83 392.922 727.989 399.934C727.255 402.396 727.532 404.517 728.819 406.297C730.107 408.078 732.013 409.554 734.538 410.725C737.349 411.988 740.287 412.946 743.303 413.583C746.56 414.309 749.853 414.862 753.169 415.242C756.44 415.613 759.453 415.89 762.206 416.071C764.96 416.253 767.082 416.401 768.571 416.517C768.322 408.773 768.198 400.999 768.201 393.192L768.224 369.877Z" fill="white"/>
<path opacity="0.54" d="M424.939 610.632L365.797 444.421L380.815 446.833C381.231 446.901 381.622 447.079 381.946 447.348C382.271 447.617 382.518 447.967 382.662 448.363L441.849 610.788C441.853 610.796 441.854 610.805 441.854 610.814C441.853 610.823 441.85 610.832 441.845 610.839C441.84 610.847 441.834 610.853 441.826 610.857C441.818 610.862 441.809 610.864 441.8 610.864L424.939 610.632Z" fill="#1B3D9E"/>
<path d="M234.802 617.69C237.3 617.245 360.005 443.15 365.794 444.421C371.584 445.692 439.01 650.303 436.503 649.906C433.996 649.509 228.597 618.792 234.802 617.69Z" fill="#FC476A"/>
<path d="M346.718 589.532C345.9 590.313 344.903 590.883 343.814 591.191C342.891 591.452 341.914 591.452 340.991 591.191C340.059 590.902 339.218 590.378 338.546 589.671C337.772 588.85 337.205 587.856 336.892 586.772C337.486 579.454 337.944 572.022 338.265 564.478C338.587 556.933 338.994 549.43 339.488 541.969C339.978 534.508 340.689 527.162 341.62 519.933C342.512 512.891 343.887 505.918 345.737 499.065C345.884 498.521 346.388 498.04 347.24 497.607C348.226 497.138 349.28 496.828 350.362 496.689C351.684 496.5 353.02 496.429 354.355 496.475C355.754 496.51 357.147 496.684 358.512 496.996C359.764 497.265 360.968 497.725 362.08 498.361C363.051 498.898 363.84 499.711 364.346 500.697C365.119 501.764 365.582 503.595 365.733 506.191C365.877 509.323 365.819 512.461 365.559 515.586C365.292 519.251 364.804 523.317 364.096 527.785C363.389 532.253 362.549 536.846 361.576 541.563C360.604 546.275 359.538 551.004 358.378 555.752C357.218 560.499 355.987 564.982 354.685 569.2C353.388 573.424 352.087 577.267 350.782 580.73C349.737 583.621 348.472 586.428 346.999 589.127C346.925 589.274 346.831 589.411 346.718 589.532ZM334.015 617.285C332.719 616.308 331.618 615.098 330.767 613.718C329.982 612.466 329.498 611.05 329.353 609.58C329.233 608.155 329.544 606.728 330.245 605.482C331.093 604.016 332.328 602.812 333.814 601.999C336.107 600.605 338.405 600.076 340.71 600.412C343.014 600.748 344.787 602.144 346.027 604.599C347.192 606.711 347.772 609.095 347.708 611.506C347.661 613.979 346.583 616.116 344.475 617.918C343.79 618.578 342.965 619.075 342.061 619.371C341.158 619.668 340.198 619.756 339.256 619.63C337.315 619.383 335.491 618.567 334.015 617.285Z" fill="white"/>
<path d="M1026.26 521.088H877.783C874.807 521.088 872.395 523.499 872.395 526.474V699.846C872.395 702.821 874.807 705.233 877.783 705.233H1026.26C1029.24 705.233 1031.65 702.821 1031.65 699.846V526.474C1031.65 523.499 1029.24 521.088 1026.26 521.088Z" fill="#1B3D9E"/>
<mask id="mask2_28175_9137" style="mask-type:luminance" maskUnits="userSpaceOnUse" x="872" y="521" width="160" height="185">
<path d="M1026.26 521.088H877.783C874.807 521.088 872.395 523.499 872.395 526.474V699.846C872.395 702.821 874.807 705.233 877.783 705.233H1026.26C1029.24 705.233 1031.65 702.821 1031.65 699.846V526.474C1031.65 523.499 1029.24 521.088 1026.26 521.088Z" fill="white"/>
</mask>
<g mask="url(#mask2_28175_9137)">
<path d="M1036.13 547.164C1036.13 547.164 973.757 634.951 860.883 659.257V712.982H1040.08C1040.08 712.982 1044.75 550.307 1036.13 547.164Z" fill="#1C056D"/>
</g>
<path d="M914.492 521.088C914.492 521.088 912.377 369.484 915.196 367.736C918.015 365.989 939.502 364.214 941.264 368.441C943.026 372.668 941.264 521.088 941.264 521.088H914.492Z" fill="#FC476A"/>
<mask id="mask3_28175_9137" style="mask-type:luminance" maskUnits="userSpaceOnUse" x="913" y="365" width="30" height="157">
<path d="M914.492 521.088C914.492 521.088 912.377 369.484 915.196 367.736C918.015 365.989 939.502 364.214 941.264 368.441C943.026 372.668 941.264 521.088 941.264 521.088H914.492Z" fill="white"/>
</mask>
<g mask="url(#mask3_28175_9137)">
<path d="M932.918 389.358V524.08H922.859V389.63L932.918 389.358Z" fill="#D40221"/>
<path d="M909.555 395.181C909.555 395.181 940.819 392.809 945.177 394.989C945.177 394.989 944.958 363.839 943.214 363.188C941.47 362.537 911.62 362.368 910.969 365.828C910.317 369.288 909.555 395.181 909.555 395.181Z" fill="#D4DFFF"/>
</g>
<path d="M958.684 300.634H1017.56C1017.78 300.633 1018 300.677 1018.21 300.761C1018.41 300.846 1018.59 300.97 1018.75 301.126C1018.9 301.282 1019.03 301.468 1019.11 301.672C1019.19 301.876 1019.23 302.095 1019.23 302.315V521.101H957.016V302.315C957.013 302.095 957.055 301.876 957.138 301.672C957.22 301.468 957.343 301.282 957.498 301.126C957.653 300.97 957.838 300.846 958.042 300.761C958.245 300.677 958.464 300.633 958.684 300.634Z" fill="#D4DFFF"/>
<mask id="mask4_28175_9137" style="mask-type:luminance" maskUnits="userSpaceOnUse" x="957" y="300" width="63" height="222">
<path d="M958.684 300.634H1017.56C1017.78 300.633 1018 300.677 1018.21 300.761C1018.41 300.846 1018.59 300.97 1018.75 301.126C1018.9 301.282 1019.03 301.468 1019.11 301.672C1019.19 301.876 1019.23 302.095 1019.23 302.315V521.101H957.016V302.315C957.013 302.095 957.055 301.876 957.138 301.672C957.22 301.468 957.343 301.282 957.498 301.126C957.653 300.97 957.838 300.846 958.042 300.761C958.245 300.677 958.464 300.633 958.684 300.634Z" fill="white"/>
</mask>
<g mask="url(#mask4_28175_9137)">
<path opacity="0.46" d="M973.367 292.577H952.023V529.114H973.367V292.577Z" fill="#6880E4"/>
<path d="M964.853 317.547H957.016V320.276H964.853V317.547Z" fill="#6880E4"/>
<path d="M964.853 330.112H957.016V332.841H964.853V330.112Z" fill="#6880E4"/>
<path d="M964.853 342.677H957.016V345.406H964.853V342.677Z" fill="#6880E4"/>
<path d="M964.853 355.247H957.016V357.976H964.853V355.247Z" fill="#6880E4"/>
<path d="M964.853 367.812H957.016V370.541H964.853V367.812Z" fill="#6880E4"/>
<path d="M964.853 380.382H957.016V383.111H964.853V380.382Z" fill="#6880E4"/>
<path d="M964.853 392.947H957.016V395.676H964.853V392.947Z" fill="#6880E4"/>
<path d="M964.853 405.512H957.016V408.241H964.853V405.512Z" fill="#6880E4"/>
<path d="M964.853 418.082H957.016V420.811H964.853V418.082Z" fill="#6880E4"/>
<path d="M964.853 430.647H957.016V433.376H964.853V430.647Z" fill="#6880E4"/>
<path d="M964.853 443.213H957.016V445.942H964.853V443.213Z" fill="#6880E4"/>
<path d="M964.853 455.782H957.016V458.511H964.853V455.782Z" fill="#6880E4"/>
<path d="M964.853 468.348H957.016V471.077H964.853V468.348Z" fill="#6880E4"/>
<path d="M964.853 480.917H957.016V483.646H964.853V480.917Z" fill="#6880E4"/>
<path d="M964.853 493.483H957.016V496.211H964.853V493.483Z" fill="#6880E4"/>
<path d="M964.853 506.048H957.016V508.777H964.853V506.048Z" fill="#6880E4"/>
<path opacity="0.17" d="M1005.77 292.314C988.512 307.1 982.455 333.541 991.568 354.36C995.903 364.267 1003.32 373.087 1004.71 383.833C1006.05 394.236 1001.48 404.344 997.857 414.203C994.289 423.91 991.545 434.161 992.268 444.475C993.454 461.343 1003.8 477.123 1002.11 493.946C1000.49 510.106 987.914 524.173 988.641 540.399C988.847 540.399 988.423 541.113 988.641 541.113H1029.05V291.279L1034.02 291.328L1005.77 292.314Z" fill="#6880E4"/>
</g>
<path d="M1140.11 707.792H118.861C118.358 707.792 117.876 707.592 117.52 707.237C117.165 706.882 116.965 706.4 116.965 705.897C116.965 705.394 117.165 704.912 117.52 704.557C117.876 704.202 118.358 704.002 118.861 704.002H1140.11C1140.62 704.002 1141.1 704.202 1141.45 704.557C1141.81 704.912 1142.01 705.394 1142.01 705.897C1142.01 706.4 1141.81 706.882 1141.45 707.237C1141.1 707.592 1140.62 707.792 1140.11 707.792Z" fill="#1C056D"/>
<path d="M430.251 185.465L406.61 188.523C393.603 182.428 381.002 178.482 369.257 179.708C357.513 180.934 350.679 193.29 353.592 201.606C356.152 208.918 377.38 216.418 386.537 216.597C395.695 216.775 409.607 214.657 414.715 210.127H430.219L430.251 185.465Z" fill="#FE8E9C"/>
<mask id="mask5_28175_9137" style="mask-type:luminance" maskUnits="userSpaceOnUse" x="352" y="179" width="79" height="38">
<path d="M430.251 185.465L406.61 188.523C393.603 182.428 381.002 178.482 369.257 179.708C357.513 180.934 350.679 193.29 353.592 201.606C356.152 208.918 377.38 216.418 386.537 216.597C395.695 216.775 409.607 214.657 414.715 210.127H430.219L430.251 185.465Z" fill="white"/>
</mask>
<g mask="url(#mask5_28175_9137)">
<path d="M378.326 217.72C378.326 217.72 382.871 208.834 382.666 202.016C382.46 195.198 373.084 184.573 373.084 184.573L365.301 184.97C365.301 184.97 367.839 209.868 365.591 214.26L378.326 217.72Z" fill="#E57492"/>
</g>
<path d="M414.723 210.127C414.723 210.127 419.407 202.948 408.527 195.698C408.527 195.698 418.229 197.263 421.561 203.724C424.893 210.185 424.197 210.296 424.197 210.296L414.723 210.127Z" fill="#E57492"/>
<path d="M406.619 188.523C406.619 188.523 399.036 189.192 397.582 189.228C392.279 189.357 386.962 189.651 386.962 189.651C386.962 189.651 383.657 178.928 378.799 181.126C371.662 184.35 379.816 189.357 379.816 189.357C379.816 189.357 367.135 187.244 365.895 187.172C364.655 187.101 375.391 209.73 363.937 216.601C352.482 223.472 339.734 219.852 338.137 202.029C336.54 184.207 354.806 167.112 371.622 167.696C388.438 168.28 406.619 188.523 406.619 188.523Z" fill="#1B3D9E"/>
<mask id="mask6_28175_9137" style="mask-type:luminance" maskUnits="userSpaceOnUse" x="338" y="167" width="69" height="53">
<path d="M406.619 188.523C406.619 188.523 399.036 189.192 397.582 189.228C392.279 189.357 386.962 189.651 386.962 189.651C386.962 189.651 383.657 178.928 378.799 181.126C371.662 184.35 379.816 189.357 379.816 189.357C379.816 189.357 367.135 187.244 365.895 187.172C364.655 187.101 375.391 209.73 363.937 216.601C352.482 223.472 339.734 219.852 338.137 202.029C336.54 184.207 354.806 167.112 371.622 167.696C388.438 168.28 406.619 188.523 406.619 188.523Z" fill="white"/>
</mask>
<g mask="url(#mask6_28175_9137)">
<path d="M354.204 219.861C354.204 219.861 362.92 212.561 362.492 204.495C362.064 196.429 359.459 183.792 360.739 182.954C362.019 182.116 375.459 187.476 375.459 187.476C375.459 187.476 372.988 183.85 377.296 181.995C377.296 181.995 384.099 189.464 383.608 190.249C383.117 191.034 367.448 189.464 367.448 189.464C367.448 189.464 373.599 204.562 369.196 213.484C364.794 222.407 354.195 219.861 354.195 219.861" fill="#1C056D"/>
</g>
<path d="M406.124 210.296C406.124 210.296 402.516 209.257 402.516 202.997V202.368C402.516 202.368 406.182 209.034 406.124 210.296Z" fill="#F6F9FF"/>
<path d="M376.781 202.654C376.781 202.654 391.189 210.461 392.527 209.65C393.865 208.838 391.434 200.041 391.434 200.041C391.434 200.041 392.995 199.938 393.357 201.338C393.718 202.738 395.747 211.001 393.357 211.148C390.966 211.295 379.119 205.476 376.781 202.654Z" fill="#E57492"/>
<path d="M460.015 351.296C460.015 351.296 456.483 356.041 455.318 358.391C454.154 360.74 453.775 372.481 454.02 372.441C454.266 372.401 456.875 372.262 457.415 370.706L460.301 360.794C460.301 360.794 460.501 371.424 460.149 372.178C459.797 372.931 453.672 385.131 454.212 385.519C454.752 385.907 457.071 387.302 458.878 384.275C460.684 381.247 464.953 373.364 465.479 372.106C466.006 370.849 457.112 388.698 457.451 388.841C457.79 388.983 460.087 390.178 460.992 388.997C461.898 387.815 469.851 375.174 470.114 374.148C470.377 373.123 465.154 386.286 465.426 386.277C465.698 386.268 466.764 387.614 468.165 385.831C469.565 384.047 474.374 374.385 474.601 373.881C474.829 373.377 474.757 367.228 474.757 367.228C474.757 367.228 475.953 374.447 475.649 375.388C475.346 376.329 473.178 381.795 474.195 381.983C474.971 382.13 476.31 380.645 477.367 378.71C478.424 376.775 479.767 373.872 479.664 371.13C479.561 368.387 474.485 352.951 474.485 352.951L460.015 351.296Z" fill="#FE8E9C"/>
<mask id="mask7_28175_9137" style="mask-type:luminance" maskUnits="userSpaceOnUse" x="453" y="351" width="27" height="39">
<path d="M460.015 351.296C460.015 351.296 456.483 356.041 455.318 358.391C454.154 360.74 453.775 372.481 454.02 372.441C454.266 372.401 456.875 372.262 457.415 370.706L460.301 360.794C460.301 360.794 460.501 371.424 460.149 372.178C459.797 372.931 453.672 385.131 454.212 385.519C454.752 385.907 457.071 387.302 458.878 384.275C460.684 381.247 464.953 373.364 465.479 372.106C466.006 370.849 457.112 388.698 457.451 388.841C457.79 388.983 460.087 390.178 460.992 388.997C461.898 387.815 469.851 375.174 470.114 374.148C470.377 373.123 465.154 386.286 465.426 386.277C465.698 386.268 466.764 387.614 468.165 385.831C469.565 384.047 474.374 374.385 474.601 373.881C474.829 373.377 474.757 367.228 474.757 367.228C474.757 367.228 475.953 374.447 475.649 375.388C475.346 376.329 473.178 381.795 474.195 381.983C474.971 382.13 476.31 380.645 477.367 378.71C478.424 376.775 479.767 373.872 479.664 371.13C479.561 368.387 474.485 352.951 474.485 352.951L460.015 351.296Z" fill="white"/>
</mask>
<g mask="url(#mask7_28175_9137)">
<path d="M452.661 362.511C452.879 363.318 463.7 357.316 478.438 359.621C478.438 359.621 476.453 350.672 474.87 349.87C473.286 349.067 460.596 349.067 458.682 349.977C456.769 350.886 451.639 358.81 452.661 362.511Z" fill="#E57492"/>
</g>
<path d="M592.261 175.236C592.261 174.777 592.1 174.333 591.806 173.981C591.511 173.629 591.103 173.391 590.651 173.31L513.979 159.527C449.658 154.029 430.25 182.486 430.25 182.486V210.131L437.775 210.1C443.346 226.366 459.185 272.971 460.809 281.443C462.772 291.739 450.104 353.709 451.442 354.529C452.78 355.35 481.158 358.845 483.781 358.408C486.404 357.971 499.509 289.741 498.639 281.474C497.965 275.142 496.007 231.717 491.181 209.899L592.275 209.498L592.261 175.236Z" fill="#FC476A"/>
<path d="M491.166 209.877C491.166 209.877 489.248 199.742 480.746 192.706C480.746 192.706 526.194 201.793 539.389 202.672C552.583 203.55 592.26 200.063 592.26 200.063V209.476L491.166 209.877Z" fill="#D40221"/>
<path d="M820.25 237.157C820.25 237.157 836.228 233.362 836.629 234.094C837.031 234.825 839.305 242.146 838.413 244.795C837.521 247.444 821.833 253.182 821.833 253.182L820.25 237.157Z" fill="#E57492"/>
<path d="M832.696 188.577C832.696 188.577 681.324 176.163 649.899 169.564C618.475 162.965 592.273 177.309 592.273 177.309V209.476C592.273 209.476 673.62 278.754 710.094 279.664C746.568 280.573 822.87 260.218 823.476 256.874C824.083 253.53 823.476 233.781 820.439 232.569C817.401 231.356 716.477 242.9 714.653 240.773C713.471 239.391 696.364 222.242 681.386 209.476H832.71L832.696 188.577Z" fill="#1B3D9E"/>
<mask id="mask8_28175_9137" style="mask-type:luminance" maskUnits="userSpaceOnUse" x="592" y="167" width="241" height="113">
<path d="M832.696 188.577C832.696 188.577 681.324 176.163 649.899 169.564C618.475 162.965 592.273 177.309 592.273 177.309V209.476C592.273 209.476 673.62 278.754 710.094 279.664C746.568 280.573 822.87 260.218 823.476 256.874C824.083 253.53 823.476 233.781 820.439 232.569C817.401 231.356 716.477 242.9 714.653 240.773C713.471 239.391 696.364 222.242 681.386 209.476H832.71L832.696 188.577Z" fill="white"/>
</mask>
<g mask="url(#mask8_28175_9137)">
<path d="M717.518 261.409C717.083 261.414 716.648 261.395 716.216 261.351C716.131 261.351 716.046 261.351 715.957 261.315C715.865 261.299 715.777 261.265 715.698 261.215C715.619 261.165 715.551 261.1 715.498 261.024C715.444 260.947 715.406 260.861 715.386 260.77C715.365 260.679 715.363 260.585 715.379 260.493C715.395 260.401 715.429 260.313 715.48 260.234C715.53 260.155 715.595 260.087 715.671 260.034C715.748 259.98 715.834 259.942 715.925 259.922C716.016 259.901 716.11 259.899 716.202 259.915L716.372 259.942C717.054 259.995 717.74 260.005 718.424 259.973C718.517 259.97 718.61 259.986 718.697 260.019C718.784 260.052 718.864 260.101 718.932 260.165C719 260.229 719.054 260.305 719.093 260.39C719.131 260.475 719.152 260.567 719.155 260.66C719.158 260.753 719.143 260.846 719.11 260.933C719.077 261.02 719.027 261.1 718.963 261.168C718.899 261.236 718.823 261.29 718.738 261.329C718.653 261.367 718.561 261.388 718.468 261.391C718.147 261.404 717.808 261.409 717.518 261.409ZM720.823 261.266C720.643 261.26 720.472 261.185 720.344 261.057C720.217 260.929 720.143 260.758 720.136 260.578C720.13 260.398 720.192 260.222 720.311 260.085C720.429 259.949 720.595 259.863 720.774 259.844C721.492 259.795 722.282 259.732 723.134 259.657C723.227 259.648 723.32 259.659 723.409 259.687C723.498 259.714 723.581 259.76 723.652 259.819C723.724 259.879 723.783 259.953 723.826 260.035C723.869 260.118 723.895 260.208 723.903 260.301C723.912 260.394 723.901 260.487 723.873 260.576C723.845 260.665 723.8 260.747 723.74 260.819C723.681 260.89 723.607 260.949 723.525 260.992C723.442 261.035 723.352 261.062 723.259 261.07C722.398 261.146 721.604 261.213 720.872 261.262L720.823 261.266ZM725.565 260.847C725.377 260.857 725.193 260.791 725.053 260.665C724.913 260.538 724.829 260.362 724.82 260.174C724.811 259.986 724.876 259.802 725.003 259.662C725.129 259.522 725.305 259.439 725.494 259.429L727.853 259.184C728.041 259.164 728.228 259.219 728.375 259.337C728.522 259.456 728.616 259.627 728.636 259.815C728.656 260.002 728.601 260.19 728.483 260.337C728.364 260.484 728.192 260.577 728.005 260.597L725.636 260.847H725.565ZM713.825 260.58C713.73 260.58 713.635 260.56 713.548 260.522C712.906 260.25 712.165 259.906 711.349 259.496C711.181 259.411 711.053 259.263 710.993 259.085C710.934 258.906 710.948 258.71 711.033 258.542C711.117 258.373 711.265 258.245 711.444 258.186C711.623 258.127 711.818 258.141 711.987 258.225C712.777 258.622 713.49 258.957 714.106 259.215C714.258 259.278 714.384 259.392 714.462 259.538C714.539 259.684 714.564 259.852 714.53 260.014C714.497 260.175 714.408 260.32 714.28 260.424C714.151 260.527 713.99 260.582 713.825 260.58ZM730.289 260.334C730.111 260.327 729.943 260.254 729.817 260.13C729.69 260.006 729.615 259.839 729.605 259.662C729.595 259.485 729.651 259.31 729.763 259.173C729.874 259.035 730.033 258.943 730.208 258.916C730.971 258.832 731.756 258.738 732.563 258.64C732.66 258.622 732.758 258.624 732.854 258.645C732.949 258.667 733.039 258.708 733.118 258.765C733.197 258.823 733.263 258.897 733.312 258.981C733.362 259.065 733.393 259.159 733.405 259.256C733.416 259.353 733.408 259.451 733.38 259.545C733.352 259.639 733.305 259.726 733.242 259.801C733.179 259.875 733.101 259.936 733.014 259.98C732.926 260.023 732.831 260.048 732.733 260.053L730.373 260.33L730.289 260.334ZM735.008 259.768C734.826 259.771 734.65 259.703 734.516 259.58C734.382 259.456 734.301 259.286 734.29 259.104C734.278 258.922 734.337 258.743 734.454 258.603C734.571 258.464 734.738 258.375 734.919 258.355L737.274 258.056C737.456 258.043 737.636 258.1 737.777 258.216C737.918 258.332 738.009 258.497 738.032 258.678C738.055 258.859 738.008 259.042 737.9 259.189C737.792 259.336 737.632 259.437 737.452 259.469L735.097 259.764L735.008 259.768ZM739.718 259.171C739.536 259.173 739.36 259.106 739.226 258.982C739.092 258.858 739.011 258.688 739 258.506C738.988 258.325 739.047 258.145 739.164 258.006C739.282 257.866 739.448 257.777 739.629 257.757L741.98 257.445C742.164 257.428 742.347 257.482 742.491 257.597C742.636 257.712 742.73 257.879 742.754 258.062C742.778 258.244 742.731 258.43 742.621 258.578C742.512 258.727 742.349 258.827 742.167 258.858L739.812 259.166L739.718 259.171ZM744.429 258.546C744.246 258.55 744.069 258.484 743.934 258.361C743.799 258.237 743.717 258.067 743.705 257.884C743.693 257.702 743.752 257.522 743.869 257.382C743.986 257.242 744.153 257.153 744.335 257.133L746.694 256.834C746.787 256.821 746.881 256.826 746.971 256.85C747.061 256.873 747.146 256.914 747.22 256.971C747.295 257.027 747.357 257.098 747.404 257.178C747.451 257.259 747.481 257.348 747.493 257.44C747.518 257.627 747.469 257.816 747.355 257.967C747.242 258.117 747.073 258.217 746.886 258.243L744.531 258.56L744.429 258.546ZM709.561 258.471C709.442 258.469 709.325 258.439 709.222 258.381C708.561 258.025 707.883 257.637 707.13 257.218C706.966 257.124 706.846 256.969 706.796 256.788C706.746 256.606 706.771 256.412 706.864 256.248C706.958 256.084 707.112 255.964 707.294 255.914C707.476 255.864 707.67 255.889 707.834 255.982C708.557 256.397 709.248 256.781 709.9 257.133C710.037 257.209 710.146 257.329 710.209 257.474C710.272 257.618 710.285 257.78 710.246 257.932C710.207 258.085 710.119 258.221 709.995 258.318C709.871 258.415 709.718 258.469 709.561 258.471ZM749.134 257.909C748.956 257.905 748.785 257.835 748.656 257.712C748.527 257.589 748.448 257.423 748.436 257.245C748.424 257.067 748.478 256.891 748.59 256.751C748.701 256.612 748.86 256.519 749.036 256.491L751.387 256.165C751.566 256.154 751.743 256.211 751.883 256.325C752.022 256.439 752.113 256.601 752.138 256.779C752.162 256.957 752.119 257.138 752.016 257.285C751.913 257.433 751.759 257.536 751.583 257.574L749.228 257.9L749.134 257.909ZM753.836 257.253C753.657 257.25 753.487 257.18 753.358 257.057C753.228 256.934 753.15 256.767 753.137 256.589C753.125 256.411 753.18 256.235 753.291 256.096C753.402 255.956 753.561 255.863 753.738 255.835L756.084 255.505C756.27 255.479 756.46 255.527 756.61 255.64C756.761 255.753 756.86 255.921 756.887 256.107C756.913 256.294 756.865 256.483 756.752 256.633C756.639 256.784 756.471 256.883 756.285 256.91L753.934 257.244L753.836 257.253ZM758.533 256.584C758.354 256.581 758.184 256.511 758.054 256.388C757.925 256.265 757.847 256.098 757.834 255.92C757.822 255.742 757.877 255.566 757.988 255.427C758.099 255.287 758.258 255.194 758.435 255.166L760.785 254.832C760.972 254.805 761.161 254.854 761.312 254.967C761.462 255.08 761.562 255.248 761.588 255.434C761.615 255.62 761.566 255.809 761.453 255.96C761.34 256.11 761.172 256.21 760.986 256.237L758.635 256.575L758.533 256.584ZM705.426 256.138C705.299 256.139 705.174 256.105 705.064 256.04C704.404 255.652 703.726 255.242 703.017 254.819C702.855 254.721 702.739 254.563 702.694 254.38C702.649 254.197 702.678 254.004 702.776 253.842C702.874 253.681 703.031 253.565 703.215 253.52C703.398 253.474 703.591 253.504 703.753 253.601C704.449 254.025 705.131 254.431 705.787 254.814C705.927 254.891 706.036 255.013 706.099 255.16C706.161 255.307 706.172 255.471 706.131 255.625C706.089 255.779 705.997 255.914 705.869 256.01C705.741 256.105 705.585 256.155 705.426 256.152V256.138ZM763.234 255.92C763.05 255.927 762.871 255.863 762.733 255.74C762.596 255.618 762.512 255.446 762.498 255.263C762.485 255.079 762.544 254.898 762.662 254.757C762.78 254.615 762.948 254.526 763.132 254.507L765.478 254.163C765.659 254.147 765.84 254.2 765.983 254.313C766.127 254.425 766.221 254.589 766.248 254.769C766.275 254.949 766.232 255.133 766.128 255.282C766.023 255.431 765.866 255.535 765.687 255.572L763.337 255.916L763.234 255.92ZM767.931 255.233C767.747 255.241 767.568 255.176 767.43 255.054C767.293 254.931 767.209 254.76 767.195 254.576C767.182 254.393 767.241 254.211 767.359 254.07C767.477 253.929 767.645 253.839 767.829 253.82L770.175 253.472C770.356 253.456 770.537 253.509 770.68 253.622C770.824 253.734 770.918 253.897 770.945 254.078C770.972 254.258 770.929 254.441 770.825 254.591C770.72 254.74 770.563 254.844 770.384 254.881L768.034 255.224C767.999 255.226 767.965 255.223 767.931 255.215V255.233ZM772.633 254.538C772.449 254.545 772.269 254.481 772.132 254.358C771.994 254.235 771.91 254.064 771.897 253.881C771.883 253.697 771.942 253.516 772.06 253.374C772.178 253.233 772.347 253.144 772.53 253.124L774.881 252.772C774.973 252.758 775.067 252.763 775.158 252.785C775.248 252.808 775.333 252.848 775.408 252.903C775.483 252.959 775.547 253.029 775.595 253.109C775.643 253.189 775.674 253.277 775.688 253.369C775.715 253.556 775.667 253.746 775.555 253.898C775.444 254.05 775.277 254.151 775.09 254.181L772.74 254.529L772.633 254.538ZM777.329 253.833C777.145 253.843 776.963 253.78 776.824 253.657C776.685 253.535 776.6 253.363 776.586 253.179C776.572 252.994 776.631 252.811 776.75 252.67C776.868 252.528 777.038 252.438 777.222 252.42L779.573 252.067C779.759 252.04 779.949 252.087 780.101 252.199C780.252 252.311 780.353 252.479 780.38 252.665C780.408 252.851 780.361 253.041 780.249 253.192C780.137 253.344 779.969 253.444 779.783 253.472L777.437 253.829L777.329 253.833ZM701.353 253.686C701.222 253.685 701.094 253.648 700.983 253.579C700.323 253.173 699.645 252.759 698.958 252.326C698.798 252.226 698.685 252.067 698.642 251.883C698.6 251.7 698.633 251.507 698.733 251.347C698.833 251.188 698.992 251.074 699.175 251.032C699.359 250.99 699.552 251.022 699.712 251.122L701.728 252.371C701.861 252.451 701.964 252.573 702.021 252.718C702.077 252.862 702.085 253.022 702.043 253.171C702 253.321 701.909 253.452 701.785 253.545C701.66 253.638 701.509 253.688 701.353 253.686ZM782.022 253.124C781.852 253.124 781.689 253.063 781.56 252.953C781.432 252.842 781.347 252.69 781.322 252.522C781.295 252.336 781.342 252.146 781.454 251.994C781.566 251.842 781.733 251.74 781.919 251.711L784.266 251.354C784.448 251.335 784.63 251.387 784.775 251.5C784.92 251.612 785.017 251.775 785.044 251.957C785.072 252.138 785.028 252.323 784.923 252.473C784.818 252.623 784.659 252.727 784.48 252.763L782.133 253.12L782.022 253.124ZM786.719 252.411C786.534 252.42 786.353 252.357 786.214 252.235C786.075 252.113 785.989 251.941 785.975 251.756C785.961 251.572 786.02 251.389 786.139 251.247C786.258 251.105 786.428 251.016 786.612 250.997L788.958 250.641C789.144 250.612 789.334 250.659 789.486 250.771C789.638 250.882 789.739 251.05 789.768 251.236C789.796 251.422 789.749 251.612 789.638 251.764C789.526 251.916 789.358 252.017 789.172 252.045L786.826 252.402C786.789 252.397 786.753 252.388 786.719 252.375V252.411ZM791.411 251.693C791.226 251.702 791.045 251.639 790.906 251.517C790.767 251.395 790.682 251.223 790.668 251.038C790.654 250.854 790.713 250.671 790.831 250.529C790.95 250.388 791.12 250.298 791.304 250.279L793.646 249.918C793.832 249.889 794.023 249.936 794.175 250.047C794.327 250.158 794.429 250.325 794.458 250.511C794.487 250.698 794.441 250.888 794.329 251.04C794.218 251.192 794.051 251.294 793.865 251.323L791.518 251.684L791.411 251.693ZM697.325 251.171C697.191 251.171 697.059 251.133 696.946 251.06C696.286 250.645 695.608 250.217 694.939 249.785C694.793 249.677 694.694 249.518 694.661 249.34C694.628 249.162 694.664 248.979 694.761 248.826C694.859 248.674 695.011 248.564 695.186 248.519C695.361 248.474 695.547 248.498 695.706 248.585L697.704 249.86C697.836 249.942 697.937 250.064 697.992 250.208C698.047 250.352 698.054 250.511 698.011 250.659C697.968 250.808 697.878 250.938 697.754 251.03C697.63 251.123 697.48 251.172 697.325 251.171ZM796.104 250.966C795.917 250.979 795.733 250.918 795.592 250.796C795.45 250.674 795.363 250.501 795.348 250.315C795.333 250.128 795.393 249.944 795.513 249.801C795.634 249.659 795.806 249.569 795.992 249.553L798.339 249.187C798.522 249.166 798.707 249.216 798.854 249.328C799.001 249.44 799.098 249.604 799.127 249.786C799.155 249.969 799.111 250.155 799.005 250.306C798.899 250.457 798.738 250.561 798.557 250.596L796.211 250.957C796.175 250.959 796.139 250.956 796.104 250.948V250.966ZM800.796 250.235C800.703 250.243 800.608 250.233 800.518 250.205C800.428 250.177 800.345 250.132 800.273 250.072C800.2 250.011 800.141 249.938 800.097 249.854C800.053 249.771 800.026 249.68 800.018 249.586C800.009 249.492 800.02 249.398 800.048 249.308C800.076 249.218 800.121 249.135 800.181 249.063C800.242 248.99 800.315 248.931 800.399 248.887C800.482 248.843 800.573 248.817 800.667 248.808L803.013 248.438C803.2 248.409 803.39 248.455 803.542 248.566C803.694 248.678 803.796 248.845 803.825 249.031C803.854 249.217 803.808 249.407 803.697 249.56C803.585 249.712 803.418 249.814 803.232 249.842L800.886 250.213L800.796 250.235ZM805.489 249.504C805.302 249.516 805.118 249.455 804.977 249.333C804.835 249.211 804.748 249.038 804.733 248.852C804.718 248.666 804.778 248.481 804.898 248.339C805.019 248.196 805.191 248.107 805.377 248.09L807.724 247.72C807.91 247.69 808.1 247.736 808.253 247.847C808.406 247.958 808.508 248.125 808.538 248.311C808.567 248.497 808.522 248.687 808.411 248.84C808.3 248.993 808.133 249.095 807.947 249.125L805.6 249.495L805.489 249.504ZM810.181 248.763C810.006 248.758 809.839 248.687 809.712 248.566C809.585 248.445 809.508 248.281 809.494 248.106C809.48 247.932 809.531 247.758 809.637 247.618C809.744 247.479 809.898 247.383 810.07 247.35L812.416 246.98C812.602 246.95 812.793 246.996 812.945 247.107C813.098 247.218 813.201 247.384 813.23 247.571C813.26 247.757 813.214 247.947 813.103 248.1C812.992 248.253 812.825 248.355 812.639 248.384L810.293 248.755L810.181 248.763ZM693.315 248.612C693.179 248.613 693.045 248.572 692.932 248.496C692.271 248.05 691.593 247.644 690.938 247.203C690.78 247.1 690.669 246.939 690.63 246.754C690.591 246.57 690.627 246.377 690.73 246.22C690.833 246.062 690.995 245.951 691.179 245.912C691.364 245.873 691.556 245.909 691.714 246.012L693.703 247.305C693.833 247.388 693.932 247.511 693.986 247.655C694.04 247.799 694.045 247.957 694.001 248.105C693.958 248.252 693.867 248.381 693.743 248.473C693.619 248.564 693.469 248.613 693.315 248.612ZM814.865 248.019C814.69 248.013 814.523 247.943 814.396 247.821C814.269 247.7 814.191 247.537 814.177 247.362C814.164 247.187 814.215 247.013 814.321 246.874C814.427 246.734 814.581 246.639 814.753 246.605L817.104 246.235C817.29 246.206 817.481 246.251 817.633 246.362C817.786 246.473 817.889 246.64 817.918 246.826C817.948 247.012 817.902 247.203 817.791 247.355C817.68 247.508 817.513 247.61 817.327 247.64L814.976 248.01C814.942 248.011 814.908 248.008 814.874 248.001L814.865 248.019ZM819.562 247.274C819.386 247.268 819.219 247.198 819.093 247.077C818.966 246.956 818.888 246.792 818.874 246.617C818.861 246.442 818.912 246.269 819.018 246.129C819.124 245.989 819.278 245.894 819.45 245.861L821.805 245.482C821.992 245.452 822.182 245.498 822.335 245.609C822.488 245.719 822.59 245.886 822.619 246.072C822.649 246.259 822.603 246.449 822.493 246.602C822.382 246.754 822.215 246.857 822.028 246.886L819.678 247.261C819.642 247.263 819.606 247.262 819.571 247.256L819.562 247.274ZM824.272 246.516C824.097 246.511 823.929 246.442 823.801 246.321C823.674 246.2 823.595 246.036 823.581 245.861C823.567 245.686 823.617 245.512 823.723 245.372C823.83 245.232 823.984 245.136 824.156 245.103L826.529 244.719C826.709 244.704 826.887 244.757 827.029 244.867C827.171 244.978 827.266 245.138 827.295 245.316C827.323 245.494 827.284 245.676 827.184 245.825C827.084 245.975 826.932 246.082 826.757 246.124L824.384 246.507L824.272 246.516ZM689.336 246.021C689.199 246.02 689.064 245.98 688.948 245.905L686.963 244.599C686.886 244.547 686.819 244.481 686.766 244.403C686.714 244.326 686.678 244.239 686.659 244.148C686.64 244.056 686.64 243.962 686.658 243.87C686.675 243.779 686.711 243.691 686.763 243.613C686.814 243.535 686.881 243.469 686.958 243.416C687.036 243.364 687.123 243.328 687.214 243.309C687.306 243.29 687.4 243.29 687.492 243.308C687.583 243.326 687.671 243.361 687.748 243.413L689.729 244.715C689.856 244.8 689.952 244.923 690.004 245.067C690.056 245.21 690.06 245.367 690.016 245.513C689.972 245.659 689.882 245.787 689.76 245.879C689.638 245.97 689.489 246.02 689.336 246.021ZM685.375 243.404C685.236 243.405 685.099 243.364 684.983 243.288C684.327 242.842 683.645 242.396 683.007 241.95C682.87 241.838 682.78 241.679 682.754 241.503C682.729 241.328 682.77 241.15 682.869 241.003C682.969 240.856 683.12 240.753 683.292 240.712C683.465 240.671 683.646 240.696 683.801 240.782L685.772 242.097C685.901 242.181 685.998 242.304 686.05 242.448C686.103 242.592 686.107 242.748 686.063 242.895C686.019 243.041 685.928 243.17 685.805 243.261C685.682 243.352 685.533 243.4 685.38 243.399L685.375 243.404ZM681.428 240.769C681.287 240.769 681.148 240.727 681.031 240.648L679.059 239.311C678.982 239.258 678.916 239.192 678.864 239.114C678.813 239.036 678.777 238.949 678.759 238.858C678.741 238.766 678.742 238.672 678.76 238.581C678.779 238.489 678.815 238.402 678.868 238.325C678.92 238.248 678.987 238.182 679.064 238.13C679.142 238.079 679.229 238.043 679.321 238.025C679.412 238.007 679.506 238.008 679.598 238.026C679.689 238.045 679.776 238.081 679.853 238.133L681.825 239.471C681.95 239.557 682.045 239.68 682.095 239.824C682.145 239.967 682.149 240.122 682.104 240.268C682.06 240.413 681.971 240.54 681.849 240.631C681.727 240.722 681.58 240.772 681.428 240.773V240.769ZM677.489 238.116C677.348 238.115 677.21 238.073 677.092 237.995L675.125 236.657C674.98 236.547 674.883 236.384 674.854 236.204C674.825 236.024 674.866 235.84 674.969 235.689C675.072 235.538 675.229 235.432 675.407 235.394C675.585 235.355 675.772 235.386 675.928 235.48L677.891 236.818C678.017 236.903 678.113 237.027 678.164 237.17C678.215 237.314 678.218 237.47 678.173 237.616C678.128 237.762 678.037 237.889 677.914 237.979C677.791 238.069 677.642 238.117 677.489 238.116ZM673.564 235.44C673.421 235.44 673.282 235.398 673.163 235.32L671.209 233.982C671.132 233.93 671.066 233.863 671.015 233.785C670.964 233.707 670.928 233.62 670.911 233.528C670.894 233.437 670.894 233.343 670.913 233.251C670.932 233.16 670.969 233.074 671.021 232.997C671.074 232.92 671.141 232.854 671.219 232.803C671.297 232.752 671.384 232.716 671.476 232.699C671.567 232.682 671.661 232.682 671.752 232.701C671.844 232.72 671.93 232.757 672.007 232.809L673.965 234.147C674.092 234.232 674.188 234.356 674.239 234.499C674.29 234.643 674.293 234.799 674.248 234.945C674.203 235.091 674.112 235.218 673.989 235.308C673.865 235.398 673.717 235.446 673.564 235.445V235.44ZM669.648 232.765C669.504 232.765 669.364 232.721 669.246 232.64L667.284 231.302C667.199 231.252 667.126 231.186 667.069 231.107C667.012 231.027 666.971 230.937 666.95 230.842C666.929 230.746 666.928 230.648 666.947 230.552C666.966 230.456 667.004 230.365 667.059 230.284C667.115 230.204 667.186 230.135 667.269 230.083C667.352 230.032 667.445 229.997 667.542 229.983C667.638 229.968 667.737 229.974 667.832 229.999C667.926 230.024 668.014 230.069 668.091 230.13L670.054 231.467C670.178 231.554 670.271 231.678 670.319 231.822C670.368 231.965 670.37 232.12 670.325 232.264C670.28 232.409 670.19 232.535 670.068 232.625C669.946 232.715 669.799 232.764 669.648 232.765ZM665.731 230.089C665.588 230.089 665.448 230.046 665.33 229.965L663.376 228.627C663.214 228.521 663.101 228.355 663.061 228.166C663.021 227.976 663.058 227.779 663.164 227.617C663.27 227.455 663.436 227.342 663.626 227.302C663.815 227.262 664.012 227.299 664.175 227.405L666.128 228.743C666.252 228.83 666.345 228.954 666.394 229.097C666.443 229.24 666.445 229.395 666.4 229.54C666.355 229.684 666.265 229.811 666.143 229.901C666.021 229.991 665.874 230.04 665.722 230.04L665.731 230.089ZM661.828 227.392C661.683 227.392 661.541 227.347 661.422 227.262L659.473 225.925C659.334 225.811 659.243 225.649 659.218 225.471C659.193 225.294 659.237 225.113 659.339 224.966C659.441 224.818 659.596 224.715 659.771 224.676C659.946 224.637 660.13 224.666 660.285 224.757L662.234 226.094C662.358 226.181 662.451 226.305 662.5 226.448C662.549 226.592 662.551 226.747 662.506 226.891C662.46 227.036 662.37 227.162 662.249 227.252C662.127 227.342 661.98 227.391 661.828 227.392ZM657.93 224.685C657.785 224.684 657.643 224.639 657.524 224.556L655.575 223.218C655.436 223.105 655.345 222.943 655.32 222.765C655.295 222.587 655.338 222.407 655.44 222.259C655.543 222.112 655.697 222.008 655.873 221.97C656.048 221.931 656.231 221.959 656.386 222.05L658.336 223.388C658.46 223.475 658.553 223.599 658.602 223.742C658.65 223.885 658.652 224.04 658.607 224.185C658.562 224.329 658.472 224.456 658.35 224.546C658.228 224.635 658.081 224.684 657.93 224.685ZM654.036 221.97C653.89 221.969 653.749 221.924 653.63 221.84L651.694 220.503C651.617 220.449 651.551 220.381 651.5 220.302C651.45 220.223 651.415 220.135 651.398 220.043C651.382 219.95 651.384 219.856 651.404 219.764C651.424 219.672 651.462 219.585 651.516 219.508C651.568 219.432 651.635 219.366 651.713 219.316C651.79 219.265 651.878 219.231 651.969 219.214C652.06 219.197 652.154 219.199 652.245 219.219C652.335 219.239 652.421 219.277 652.497 219.33L654.442 220.69C654.567 220.776 654.661 220.9 654.71 221.043C654.76 221.186 654.762 221.342 654.716 221.486C654.671 221.631 654.58 221.757 654.458 221.847C654.335 221.936 654.187 221.984 654.036 221.983V221.97ZM650.146 219.245C649.999 219.246 649.856 219.201 649.736 219.116L647.795 217.756C647.719 217.702 647.654 217.634 647.604 217.556C647.554 217.477 647.52 217.389 647.503 217.297C647.487 217.205 647.489 217.111 647.51 217.02C647.53 216.929 647.568 216.843 647.622 216.766C647.675 216.69 647.743 216.625 647.822 216.575C647.901 216.524 647.989 216.49 648.081 216.474C648.173 216.458 648.267 216.46 648.358 216.48C648.449 216.501 648.535 216.539 648.612 216.592L650.552 217.952C650.629 218.006 650.694 218.074 650.744 218.152C650.795 218.231 650.829 218.319 650.845 218.411C650.861 218.503 650.859 218.597 650.838 218.688C650.818 218.78 650.78 218.866 650.726 218.942C650.66 219.03 650.573 219.101 650.474 219.149C650.375 219.197 650.265 219.221 650.155 219.219L650.146 219.245ZM646.261 216.521C646.114 216.52 645.971 216.475 645.851 216.392L643.91 215.023C643.832 214.97 643.766 214.902 643.714 214.823C643.662 214.744 643.627 214.656 643.61 214.563C643.593 214.471 643.595 214.376 643.615 214.284C643.635 214.192 643.673 214.104 643.728 214.027C643.782 213.95 643.851 213.885 643.931 213.835C644.011 213.785 644.1 213.751 644.193 213.736C644.286 213.721 644.381 213.724 644.473 213.746C644.564 213.768 644.651 213.808 644.727 213.863L646.667 215.228C646.792 215.314 646.886 215.437 646.935 215.581C646.985 215.724 646.987 215.88 646.942 216.024C646.896 216.169 646.806 216.295 646.683 216.385C646.561 216.474 646.413 216.522 646.261 216.521ZM642.376 213.788C642.229 213.787 642.086 213.742 641.966 213.658L640.025 212.289C639.884 212.176 639.791 212.012 639.766 211.833C639.741 211.653 639.785 211.471 639.89 211.323C639.994 211.175 640.151 211.072 640.329 211.035C640.506 210.999 640.691 211.031 640.846 211.126L642.786 212.495C642.94 212.603 643.045 212.768 643.077 212.954C643.11 213.139 643.068 213.33 642.96 213.484C642.892 213.571 642.805 213.642 642.705 213.69C642.605 213.738 642.496 213.762 642.385 213.761L642.376 213.788ZM638.495 211.05C638.349 211.049 638.206 211.004 638.085 210.921L636.145 209.547C636.06 209.496 635.988 209.429 635.931 209.349C635.874 209.269 635.835 209.178 635.815 209.081C635.795 208.985 635.795 208.886 635.815 208.79C635.835 208.694 635.875 208.603 635.932 208.523C635.989 208.443 636.062 208.376 636.146 208.325C636.23 208.274 636.324 208.242 636.421 208.229C636.519 208.216 636.618 208.224 636.712 208.251C636.806 208.279 636.894 208.325 636.97 208.388L638.906 209.757C639.059 209.865 639.164 210.03 639.197 210.216C639.229 210.401 639.187 210.592 639.08 210.747C639.011 210.834 638.924 210.904 638.824 210.952C638.724 211 638.615 211.024 638.504 211.023L638.495 211.05ZM634.619 208.308C634.472 208.307 634.329 208.262 634.209 208.178L632.268 206.805C632.192 206.751 632.127 206.683 632.078 206.604C632.028 206.525 631.994 206.437 631.978 206.345C631.963 206.253 631.965 206.159 631.986 206.068C632.007 205.977 632.045 205.891 632.099 205.815C632.153 205.739 632.221 205.674 632.3 205.624C632.379 205.575 632.467 205.541 632.559 205.525C632.651 205.51 632.745 205.512 632.836 205.533C632.927 205.553 633.013 205.592 633.089 205.646L635.029 207.015C635.152 207.102 635.243 207.226 635.291 207.369C635.338 207.512 635.339 207.666 635.294 207.81C635.248 207.953 635.158 208.079 635.037 208.168C634.916 208.258 634.77 208.306 634.619 208.308ZM630.738 205.561C630.591 205.562 630.448 205.517 630.328 205.432L628.388 204.058C628.312 204.004 628.247 203.936 628.197 203.857C628.147 203.778 628.114 203.69 628.098 203.598C628.082 203.506 628.085 203.412 628.105 203.321C628.126 203.23 628.164 203.144 628.218 203.068C628.272 202.992 628.34 202.927 628.419 202.878C628.498 202.828 628.586 202.794 628.678 202.779C628.77 202.763 628.864 202.765 628.955 202.786C629.046 202.807 629.132 202.845 629.208 202.899L631.149 204.272C631.272 204.359 631.364 204.483 631.413 204.626C631.461 204.769 631.462 204.923 631.416 205.067C631.37 205.211 631.28 205.336 631.158 205.425C631.036 205.514 630.889 205.561 630.738 205.561ZM626.853 202.819C626.706 202.818 626.562 202.771 626.443 202.685L624.498 201.316C624.357 201.202 624.264 201.039 624.239 200.86C624.214 200.68 624.258 200.498 624.363 200.349C624.467 200.201 624.624 200.098 624.802 200.062C624.979 200.025 625.164 200.058 625.319 200.152L627.264 201.526C627.386 201.613 627.477 201.738 627.525 201.88C627.572 202.023 627.573 202.177 627.528 202.321C627.482 202.464 627.393 202.59 627.271 202.679C627.15 202.769 627.004 202.817 626.853 202.819ZM622.955 200.076C622.81 200.075 622.668 200.03 622.549 199.947C621.657 199.327 620.997 198.868 620.591 198.609C620.445 198.5 620.346 198.339 620.315 198.159C620.284 197.98 620.323 197.795 620.424 197.643C620.525 197.491 620.681 197.384 620.858 197.343C621.036 197.302 621.223 197.331 621.38 197.423C621.791 197.695 622.46 198.159 623.365 198.792C623.49 198.878 623.585 199.003 623.634 199.146C623.683 199.29 623.685 199.446 623.639 199.591C623.593 199.736 623.502 199.862 623.379 199.951C623.255 200.04 623.107 200.087 622.955 200.085V200.076Z" fill="#1C056D"/>
<path d="M597.609 173.087C597.609 173.087 598.947 215.544 598.273 216.213C597.6 216.882 590.11 211.384 590.11 211.384C590.11 211.384 589.218 177.523 589.945 175.419C590.673 173.314 597.609 173.087 597.609 173.087Z" fill="#1C056D"/>
<path d="M681.374 209.476C681.374 209.476 648.812 182.691 643.82 181.385C643.82 181.385 676.681 188.809 702.12 196.046C727.558 203.282 835.24 201.798 835.24 201.798V212.561L681.351 209.467" fill="#1C056D"/>
</g>
<path d="M836.039 234.004C836.039 234.004 838.626 229.875 843.461 229.202C848.297 228.529 849.876 229.202 849.876 229.202C849.876 229.202 862.86 264.383 860.505 265.128C858.15 265.872 852.82 265.993 851.209 264.508C849.599 263.023 837.382 246.012 837.382 246.012C837.382 246.012 838.136 236.814 836.039 234.004Z" fill="#1B3D9E"/>
<mask id="mask9_28175_9137" style="mask-type:luminance" maskUnits="userSpaceOnUse" x="836" y="228" width="25" height="38">
<path d="M836.039 234.004C836.039 234.004 838.626 229.875 843.461 229.202C848.297 228.529 849.876 229.202 849.876 229.202C849.876 229.202 862.86 264.383 860.505 265.128C858.15 265.872 852.82 265.993 851.209 264.508C849.599 263.023 837.382 246.012 837.382 246.012C837.382 246.012 838.136 236.814 836.039 234.004Z" fill="white"/>
</mask>
<g mask="url(#mask9_28175_9137)">
<path d="M839.688 250.694C839.688 250.694 843.14 246.761 844.799 246.851C845.177 246.862 845.542 246.994 845.84 247.227C846.138 247.459 846.355 247.78 846.459 248.144C846.514 248.307 846.525 248.483 846.491 248.652C846.456 248.821 846.377 248.978 846.262 249.107C845.294 250.213 842.484 253.352 841.873 253.196C841.128 253.008 839.688 250.694 839.688 250.694Z" fill="#1C056D"/>
<path d="M843.164 255.791C843.164 255.791 846.617 251.858 848.276 251.947C848.654 251.959 849.018 252.091 849.316 252.323C849.615 252.556 849.831 252.877 849.935 253.24C849.991 253.404 850.002 253.579 849.967 253.748C849.933 253.917 849.854 254.074 849.739 254.203C848.771 255.309 845.961 258.448 845.35 258.292C844.605 258.105 843.164 255.791 843.164 255.791Z" fill="#1C056D"/>
<path d="M846.352 228.333C846.352 228.333 858.538 264.793 858.453 266.314C858.453 266.314 862.517 266.06 862.517 265.047C862.517 264.035 852.529 228.484 851.258 228.333C849.987 228.181 846.352 228.333 846.352 228.333Z" fill="#1C056D"/>
</g>
<path d="M832.699 195.823C832.699 195.823 847.66 197.905 847.941 198.65C848.222 199.394 848.275 209.494 848.275 209.494L832.699 209.52V195.823Z" fill="#E57492"/>
<path d="M847.32 198.351C847.929 197.008 848.895 195.859 850.114 195.029C851.333 194.199 852.757 193.721 854.23 193.647C859.373 193.361 871.412 199.769 872.487 200.219C873.562 200.669 888.058 204.571 888.313 204.7C891.435 206.27 888.652 209.966 888.652 209.966L848.275 209.494L847.32 198.351Z" fill="#1B3D9E"/>
<mask id="mask10_28175_9137" style="mask-type:luminance" maskUnits="userSpaceOnUse" x="847" y="193" width="43" height="17">
<path d="M847.32 198.351C847.929 197.008 848.895 195.859 850.114 195.029C851.333 194.199 852.757 193.721 854.23 193.647C859.373 193.361 871.412 199.769 872.487 200.219C873.562 200.669 888.058 204.571 888.313 204.7C891.435 206.27 888.652 209.966 888.652 209.966L848.275 209.494L847.32 198.351Z" fill="white"/>
</mask>
<g mask="url(#mask10_28175_9137)">
<path d="M851.445 193.638C851.936 194.084 869.287 202.342 871.875 202.672C874.462 203.001 890.341 207.278 890.341 207.278C890.341 207.278 891.198 205.106 889.784 204.295C888.37 203.483 873.03 199.836 871.808 199.136C870.585 198.436 855.79 192.487 854.568 192.692C853.503 192.923 852.459 193.239 851.445 193.638Z" fill="#1C056D"/>
<path d="M855.828 210.31C856.145 209.168 857.278 203.621 858.143 203.447C859.008 203.273 861.105 203.826 861.042 204.147C860.98 204.468 860.534 210.501 859.133 210.501C857.733 210.501 855.828 210.31 855.828 210.31Z" fill="#1C056D"/>
<path d="M864.051 211.902C864.372 210.756 865.505 205.213 866.366 205.035C867.227 204.856 869.328 205.418 869.265 205.735C869.203 206.051 868.757 212.093 867.361 212.093C865.964 212.093 864.051 211.902 864.051 211.902Z" fill="#1C056D"/>
</g>
</g>
<defs>
<clipPath class="clip0_28175_9137">
<rect width="1142" height="713" fill="white"/>
</clipPath>
</defs>
</svg>
