<?xml version="1.0" standalone="no"?>
<!DOCTYPE svg PUBLIC "-//W3C//DTD SVG 1.1//EN" "http://www.w3.org/Graphics/SVG/1.1/DTD/svg11.dtd">
<svg xmlns="http://www.w3.org/2000/svg">
<metadata>Copyright (C) 2024 by original authors @ fontello.com</metadata>
<defs>
<font id="rt-fontello" horiz-adv-x="1000" >
<font-face font-family="rt-fontello" font-weight="400" font-stretch="normal" units-per-em="1000" ascent="850" descent="-150" />
<missing-glyph horiz-adv-x="1000" />
<glyph glyph-name="rt-warning-empty" unicode="&#xe800;" d="M514 701q-49 0-81-55l-308-513q-32-55-11-95t87-40l625 0q65 0 87 40t-12 95l-307 513q-33 55-80 55z m0 105q106 0 169-107l308-513q63-105 12-199-52-93-177-93l-625 0q-123 0-177 93-53 92 11 199l309 513q62 107 170 107z m-69-652q0 69 69 69 67 0 67-69 0-67-67-67-69 0-69 67z m146 313q0-14-6-29l-71-179q-44 108-73 179-6 15-6 29 0 32 23 55t56 24 55-24 22-55z" horiz-adv-x="1026" />

<glyph glyph-name="rt-tag" unicode="&#xe801;" d="M365 792q-109 0-185-76t-76-184 76-184l159-155 286-286 365 365q-369 369-441 444-76 76-184 76z m0 105q151 0 259-107 109-113 440-444 30-31 30-74t-30-74l-365-365q-30-30-74-30t-74 30l-270 270q-8 7-18 15l-157 157q-106 106-106 257t106 258q108 107 259 107z m0-286q-32 0-56-23t-23-56 23-55 56-22 55 22 23 55-23 56-55 23z m0 51q54 0 92-38t38-92-38-92-92-38-92 38-38 92 38 92 92 38z" horiz-adv-x="1094" />

<glyph glyph-name="rt-filter" unicode="&#xe802;" d="M320-77c-29 0-53 8-78 23-25 15-41 39-50 66l-4 15h-82c-8 0-17 4-21 8-4 7-8 15-8 23 0 7 4 15 8 19 4 4 13 8 21 8h82l4 15c9 27 25 50 50 65 25 16 49 24 78 24 29 0 54-8 78-24 25-15 42-38 50-65l4-15h404c8 0 16-4 20-8 5-4 9-12 9-19 0-8-4-16-9-19-4-4-12-8-20-8h-404l-4-19c-8-27-25-51-50-66-24-11-49-23-78-23z m0 208c-21 0-41-8-58-23-12-12-20-31-20-50 0-19 8-39 20-54 17-16 33-23 58-23 21 0 41 7 58 23 16 15 20 35 20 54 0 19-8 38-20 54-17 11-37 19-58 19z m322 104c-29 0-54 7-79 23-24 15-41 38-49 65l-4 16h-404c-8 0-17 3-21 7-4 8-8 16-8 23 0 8 4 16 8 20 4 3 13 7 21 7h404l4 16c8 27 25 50 49 65 25 15 50 23 79 23 28 0 53-8 78-23 25-15 41-38 49-65l4-16h83c8 0 16-4 20-7 5-4 9-12 9-20 0-7-4-15-9-19-4-4-12-8-20-8h-83l-4-15c-8-27-24-50-49-65-25-20-50-27-78-27z m0 207c-21 0-42-7-58-23-17-15-21-34-21-54 0-19 8-38 21-53 16-16 33-23 58-23 24 0 41 7 57 23 17 15 21 34 21 53 0 20-8 39-21 54-16 16-37 23-57 23z m-322 104c-29 0-53 8-78 23-25 16-41 39-50 66l-4 15h-82c-8 0-17 4-21 8-4 7-8 15-8 23 0 8 4 15 8 19 4 4 13 8 21 8h82l4 15c9 27 25 50 50 66 25 15 49 23 78 23 29 0 54-8 78-23 25-16 42-39 50-66l4-15h404c8 0 16-4 20-8 5-4 9-11 9-19 0-8-4-16-9-19-4-4-12-8-20-8h-404l-4-19c-8-27-25-50-50-66-24-15-49-23-78-23z m0 208c-21 0-41-8-58-23-12-12-20-31-20-50 0-19 8-39 20-54 17-15 33-23 58-23 21 0 41 8 58 23 12 15 20 31 20 54 0 19-8 38-20 54-17 11-37 19-58 19z" horiz-adv-x="1000" />

<glyph glyph-name="rt-tags" unicode="&#xe803;" d="M1011 502q30-32 30-74t-30-73l-56-56 5-5q30-31 29-74t-30-73l-364-366q-30-30-74-30t-73 30q-227 227-342 338-106 106-106 258 0 102 54 188-8 165 105 278 106 106 257 106 153 0 259-106z m-490-647l364 365-336 340q-76 77-184 77-109 0-185-77t-76-183 76-184q115-111 341-338z m102 779l258-261 57 56-337 340q-76 76-185 76-107 0-183-76-35-35-54-79 86 52 186 52 150 0 258-108z m-258-179q-32 0-56-23t-23-55 23-55 56-23 55 23 23 55-23 55-55 23z m0 52q54 0 92-39t38-91-38-92-92-38-92 38-38 92 38 91 92 39z" horiz-adv-x="1041" />

<glyph glyph-name="rt-grid" unicode="&#xe805;" d="M125 769c-24 0-44-20-44-44v-292c0-24 20-43 44-43h292c24 0 43 19 43 43v292c0 24-19 44-43 44h-292z m44-292v204h204v-204h-204z m414 292c-24 0-43-20-43-44v-292c0-24 19-43 43-43h292c24 0 44 19 44 43v292c0 24-20 44-44 44h-292z m44-292v204h204v-204h-204z m-87-210c0 24 19 43 43 43h292c24 0 44-19 44-43v-292c0-24-20-44-44-44h-292c-24 0-43 20-43 44v292z m87-44v-204h204v204h-204z m-502 87c-24 0-44-19-44-43v-292c0-24 20-44 44-44h292c24 0 43 20 43 44v292c0 24-19 43-43 43h-292z m44-291v204h204v-204h-204z" horiz-adv-x="1000" />

<glyph glyph-name="rt-minus" unicode="&#xe806;" d="M625 256h281c52 0 94 42 94 94 0 52-42 94-94 94h-281-125-406c-52 0-94-42-94-94 0-52 42-94 94-94h406 125z" horiz-adv-x="1000" />

<glyph glyph-name="rt-up-angle-bar" unicode="&#xe807;" d="M500 426l-375-374 53-52 322 321 323-321 52 52-375 374z m-450 224h900v-75h-900v75z" horiz-adv-x="1000" />

<glyph glyph-name="rt-plus" unicode="&#xe809;" d="M594 756v-281-31h31 281c52 0 94-42 94-94 0-52-42-94-94-94h-281-31v-312c0-52-42-94-94-94-52 0-94 42-94 94v312h-312c-52 0-94 42-94 94 0 52 42 94 94 94h312v31 281c0 52 42 94 94 94 52 0 94-42 94-94z" horiz-adv-x="1000" />

<glyph glyph-name="rt-reply" unicode="&#xe80b;" d="M969-67c-6 0-11 2-16 5-5 3-9 7-12 12l0 1c-46 83-114 152-195 201-82 48-175 73-270 73h-59v-177c0-6-2-12-5-17-4-5-9-9-14-12-6-2-12-3-18-2-6 1-12 4-16 9l-354 343c-3 3-6 7-7 11-2 3-3 8-3 12 0 4 1 8 3 12 1 4 4 7 7 10l354 344c4 4 10 7 16 8 6 1 12 1 18-2 5-2 10-6 14-11 3-5 5-11 5-18v-177c322-5 583-269 583-593 0-9-3-17-9-23-6-5-14-9-22-9z m-584 355h91c174 0 337-77 448-205-54 236-265 413-518 413h-21c-8 0-16 3-22 9-5 6-9 14-9 22v135l-278-270 278-270v134c0 9 4 17 9 22 6 6 14 10 22 10z" horiz-adv-x="1000" />

<glyph glyph-name="rt-list" unicode="&#xe80d;" d="M98 672c-30 0-54-24-54-53 0-30 24-54 54-54h0c30 0 54 24 54 54 0 29-24 53-54 53h0z m223-6c-26 0-47-21-47-47 0-26 21-47 47-47h582c26 0 47 21 47 47 0 26-21 47-47 47h-582z m0-269c-26 0-47-21-47-47 0-26 21-47 47-47h582c26 0 47 21 47 47 0 26-21 47-47 47h-582z m-47-315c0 25 21 47 47 47h582c26 0 47-22 47-47 0-26-21-47-47-47h-582c-26 0-47 21-47 47z m-230 268c0 30 24 54 54 54h0c30 0 54-24 54-54 0-30-24-54-54-54h0c-30 0-54 24-54 54z m54-215c-30 0-54-24-54-53 0-30 24-54 54-54h0c30 0 54 24 54 54 0 29-24 53-54 53h0z" horiz-adv-x="1000" />

<glyph glyph-name="rt-calendar" unicode="&#xe80e;" d="M810 715h-80v40c0 25-20 45-45 45-25 0-45-20-45-45v-40h-245v40c0 25-20 45-45 45-20 0-40-20-40-45v-40h-85c-70 0-125-55-125-125v-585c0-70 55-125 125-125h585c70 0 125 55 125 125v585c5 70-55 125-125 125z m40-710c0-20-20-40-40-40h-585c-20 0-40 20-40 40v375h665v-375z m0 460h-660v125c0 20 20 40 40 40h80v-40c0-25 20-45 45-45 25 0 45 20 45 45v40h245v-40c0-25 20-45 45-45 25 0 45 20 45 45v40h80c20 0 40-20 40-40v-125h-5z" horiz-adv-x="1000" />

<glyph glyph-name="rt-user" unicode="&#xe812;" d="M500 321c29 0 59 6 86 18 27 11 52 27 73 48 21 21 37 46 49 73 11 28 17 57 17 86 0 30-6 59-17 87-12 27-28 52-49 72-21 21-46 38-73 49-27 12-57 17-86 17-60 0-117-23-159-66-43-42-66-99-66-159 0-59 23-117 66-159 42-42 99-66 159-66z m0 529c66 0 130-22 182-62 53-40 90-96 108-159 17-64 13-131-12-192-25-61-69-112-126-146 184-55 323-211 348-404 2-18-12-35-31-37-19-2-36 11-39 29-27 210-208 368-428 368-221 0-405-158-432-368-3-18-20-31-39-29-19 2-33 19-31 37 25 193 164 348 349 404-57 33-101 84-126 145-25 61-30 129-13 192 18 64 55 120 108 160 52 40 116 62 182 62z" horiz-adv-x="1000" />

<glyph glyph-name="rt-email" unicode="&#xe815;" d="M845 750h-670c-70 0-125-55-125-125v-500c0-70 55-125 125-125h665c70 0 125 55 125 125v500c5 70-50 125-120 125z m-670-90h665c15 0 30-10 35-20l-25-15-340-240-340 240-30 15c10 15 20 20 35 20z m710-535c0-20-20-40-40-40h-670c-20 0-40 20-40 40v415l350-245c15-10 35-10 50 0l350 245v-415z" horiz-adv-x="1000" />

<glyph glyph-name="rt-play" unicode="&#xe816;" d="M742 434c29-18 48-51 48-84 0-35-19-68-48-84l-592-362c-31-19-70-21-101-2-30 16-49 49-49 86v724c0 35 19 68 49 84 31 19 70 19 101-2l592-360z m0 0c29-18 48-51 48-84 0-35-19-68-48-84l-592-362c-31-19-70-21-101-2-30 16-49 49-49 86v724c0 35 19 68 49 84 31 19 70 19 101-2l592-360z" horiz-adv-x="789" />

<glyph glyph-name="rt-cart" unicode="&#xe817;" d="M0 814c0 10 4 19 11 26 6 6 15 10 25 10h31c52 0 82-34 99-67 12-24 20-52 27-76h736c11 0 22-3 31-8 10-4 19-12 26-20 6-9 11-19 13-30 2-11 1-22-2-33l-106-377c-9-29-27-56-52-75-25-18-55-28-86-28h-363c-31 0-61 10-86 29-25 19-43 46-51 76l-46 168c0 1-1 2-1 2l-74 250-7 24c-7 25-13 47-23 65-11 22-21 29-35 29h-31c-10 0-19 3-25 10-7 7-11 16-11 25l0 0z m275-383l47-172c4-15 13-28 25-37 13-10 28-15 43-15h363c16 0 31 5 43 14 13 10 22 23 26 38l107 377h-714l60-205z m225-474c0-28-11-56-31-76-20-20-48-31-76-31-28 0-56 11-76 31-20 20-31 48-31 76 0 28 11 56 31 76 20 20 48 31 76 31 28 0 56-11 76-31 20-20 31-48 31-76z m-71 0c0 10-4 19-11 25-6 7-15 11-25 11-9 0-18-4-25-11-7-6-11-15-11-25 0-9 4-18 11-25 7-7 16-11 25-11 10 0 19 4 25 11 7 7 11 16 11 25z m428 0c0-28-11-56-31-76-20-20-47-31-76-31-28 0-56 11-76 31-20 20-31 48-31 76 0 28 11 56 31 76 20 20 48 31 76 31 29 0 56-11 76-31 20-20 31-48 31-76z m-71 0c0 10-4 19-11 25-6 7-15 11-25 11-9 0-18-4-25-11-7-6-11-15-11-25 0-9 4-18 11-25 7-7 16-11 25-11 10 0 19 4 25 11 7 7 11 16 11 25z" horiz-adv-x="1000" />

<glyph glyph-name="rt-clock" unicode="&#xe818;" d="M127 350c0 206 167 373 373 373 206 0 373-167 373-373 0-206-167-373-373-373-206 0-373 167-373 373z m373 460c-254 0-460-206-460-460 0-254 206-460 460-460 254 0 460 206 460 460 0 254-206 460-460 460z m44-210c0 24-20 44-44 44-24 0-44-20-44-44v-250c0-17 10-32 24-39l167-83c22-11 48-2 59 19 11 22 2 48-20 59l-142 71v223z" horiz-adv-x="1000" />

<glyph glyph-name="rt-phone" unicode="&#xe81a;" d="M917-122c-113 0-223 25-330 75-107 51-202 117-284 200-83 82-149 177-200 284-50 107-75 217-75 330 0 16 5 29 16 39 10 11 23 16 39 16h212c13 0 24-4 33-12 10-8 16-18 17-30l34-183c2-13 2-24 0-34-2-10-8-19-15-27l-126-128c36-63 82-122 137-177 56-55 116-103 183-143l123 123c8 8 18 14 31 18 12 4 25 5 37 3l181-37c12-2 22-8 30-17 8-10 12-20 12-33v-212c0-16-5-29-16-39-10-11-23-16-39-16z" horiz-adv-x="1000" />

<glyph glyph-name="rt-comment-2" unicode="&#xe81c;" d="M500 491c-9 0-18-3-26-8-8-5-14-13-17-21-4-9-5-18-3-27 2-9 6-18 13-24 6-7 15-11 24-13 9-2 18-1 27 2 9 4 16 10 21 18 5 7 8 17 8 26 0 12-5 24-14 33-9 9-21 14-33 14z m328 328h-656c-37 0-73-15-100-41-26-27-41-63-41-100v-469c0-37 15-73 41-99 27-26 63-41 100-41h543l174-174c4-5 9-8 15-10 6-3 12-4 18-4 6 0 12 1 18 4 8 3 16 9 21 17 5 8 8 17 8 26v750c0 37-15 73-41 100-27 26-63 41-100 41z m47-778l-107 108c-5 4-10 8-16 10-5 2-11 4-18 4h-562c-13 0-24 4-33 13-9 9-14 21-14 33v469c0 13 5 25 14 33 9 9 20 14 33 14h656c13 0 25-5 33-14 9-8 14-20 14-33v-637z m-562 450c-10 0-19-3-26-8-8-5-14-13-18-21-3-9-4-18-2-27 1-9 6-18 12-24 7-7 15-11 24-13 9-2 19-1 27 2 9 4 16 10 22 18 5 7 7 17 7 26 0 12-5 24-13 33-9 9-21 14-33 14z m375 0c-10 0-19-3-26-8-8-5-14-13-18-21-3-9-4-18-2-27 1-9 6-18 12-24 7-7 15-11 24-13 10-2 19-1 27 2 9 4 16 10 22 18 5 7 7 17 7 26 0 12-5 24-13 33-9 9-21 14-33 14z" horiz-adv-x="1000" />

<glyph glyph-name="rt-award" unicode="&#xe822;" d="M720 782v68h-482v-68h-238v-105c0-32 6-63 18-93 12-29 30-56 53-78 11-11 23-21 37-30l13-7c9-6 19-11 29-15 6 0 13-4 19-6 8-3 17-5 26-7 6-1 13-1 20 0 9-2 18-3 27-3 0 0 0-4 0-6 0-2 0-8 3-13 2-10 5-20 9-29l6-13c4-10 8-19 14-27l7-12c8-12 17-23 27-33 36-36 83-60 133-67v-269h-132v-75h341v75h-134v267c50 7 97 29 134 64 10 10 20 21 28 34 2 3 5 7 7 11 5 9 10 19 15 29 0 5 4 9 6 14 1 4 6 19 9 29l3 13v6c9 0 18 1 27 3 6-1 13-1 19 0 9 3 18 7 26 11 6 0 13 3 19 6 8 4 17 8 26 14 5 3 10 5 15 8 13 9 25 19 37 30 22 22 40 48 52 78 12 29 18 60 18 92v104h-237z m-482-271h-17-14l-18 6-12 4-18 10-9 8c-9 6-17 13-25 20-16 15-28 34-37 54-8 20-13 42-13 64v30h163v-196z m407-38c-1-22-5-44-14-64-8-20-21-38-36-53-32-30-74-47-118-47-44 0-86 17-117 47-32 31-50 73-50 117v300h332l3-300z m237 204c0-22-5-44-13-64-9-20-21-39-37-54-8-7-16-14-25-20l-10-5-18-10-13-4c-6 0-11-4-18-5h-14c-5 0-10 0-16 0v192h163l1-30z" horiz-adv-x="1000" />

<glyph glyph-name="rt-check" unicode="&#xe825;" d="M980 732c18-17 18-45 2-62l-619-650c-8-9-20-14-32-14-12 0-23 5-31 14l-282 295c-16 18-16 46 2 62 17 17 45 16 62-1l249-262 587 616c17 18 45 18 62 2z" horiz-adv-x="1000" />

<glyph glyph-name="rt-share" unicode="&#xe826;" d="M794 163c-36 19-78 25-120 19-36-7-72-31-96-61l-228 158c12 24 18 48 18 72 0 24-6 49-18 67l228 164c18-25 36-43 66-55 24-12 54-18 84-12 30 0 54 12 78 30 24 18 42 37 54 61 12 24 18 54 18 85 0 30-12 54-24 78-12 25-36 43-60 61-30 12-60 18-84 18-24 0-48-6-72-18-24-6-42-24-54-42-18-19-30-43-36-61-6-24-6-48 0-73l-240-169c-29 12-59 30-89 30-30 0-60 0-90-18-24-12-48-31-66-61-18-24-24-54-24-85 0-30 6-60 24-91 18-24 42-48 66-60 30-12 60-18 90-18 30 6 60 12 83 36l240-170c-6-42 0-79 24-115 24-36 54-61 90-73 36-12 78-12 120 6 36 18 66 49 84 85 18 37 18 79 6 121-12 37-42 67-72 91z m-150 582c18 18 36 24 60 24 24 0 48-6 60-24 18-18 24-36 24-60 0-25-6-49-24-61-18-18-36-24-60-24-24 0-48 6-60 24-18 18-24 36-24 61 0 24 6 42 24 60z m-377-460c-18-19-36-25-60-25-24 0-48 12-66 25-18 18-24 42-24 66 0 24 12 49 24 61 18 18 42 24 60 24 18 0 48-12 60-24 18-18 24-43 24-61 0-18 0-48-18-66z m503-334c-18-18-36-24-60-24-24 0-48 12-60 24-18 18-24 43-24 67 0 24 6 48 24 61 18 18 36 24 60 24 24 0 48-6 60-24 18-19 24-43 24-61 0-24-6-49-24-67z" horiz-adv-x="917" />

<glyph glyph-name="rt-location-2" unicode="&#xe827;" d="M400 350c28 0 51 10 71 29 19 20 29 44 29 71 0 28-10 51-29 71-20 19-43 29-71 29-27 0-51-10-71-29-19-20-29-43-29-71 0-27 10-51 29-71 20-19 44-29 71-29z m0-368c102 94 177 179 226 255 49 76 74 144 74 203 0 91-29 165-87 223-58 58-129 87-213 87-84 0-155-29-213-87-58-58-87-132-87-223 0-59 25-127 74-203 49-76 124-161 226-255z m0-132c-134 114-234 220-301 318-66 98-99 189-99 272 0 125 40 225 121 299 80 74 173 111 279 111 106 0 199-37 279-111 81-74 121-174 121-299 0-83-33-174-99-272-67-98-167-204-301-318z" horiz-adv-x="800" />

<glyph glyph-name="rt-carbon_forum" unicode="&#xe829;" d="M875 663h-625c-37 0-62-25-62-63v-437c0-38 25-63 62-63h250v63h-250v437h625v-437h-225l-150-213 50-38 131 188h194c38 0 63 25 63 63v437c0 38-25 63-63 63z m-750-375h-62v406c0 53 40 94 93 94h407v-63h-407c-18 0-31-12-31-31v-406z" horiz-adv-x="1000" />

<glyph glyph-name="rt-comment-1" unicode="&#xe82a;" d="M1259 58c33-67 83-121 83-121 15-16 17-38 11-56-9-20-27-31-47-31-121 0-217 45-281 85-43-9-87-14-132-14-194 0-357 90-429 217-20 4-42 7-62 11-65-40-161-87-279-87-23 0-40 13-49 31-7 20-3 43 11 56 0 2 49 56 85 123-63 62-99 138-99 221 0 196 208 357 465 357 192 0 357-91 426-221 223-24 395-172 395-350 0-85-38-161-98-221z m-877 207l44-11c36-9 72-11 110-11 192 0 357 114 357 250 0 134-165 250-357 250-194 0-357-116-357-250 0-65 35-114 64-143l56-56-33-69c-7-11-14-22-18-33 31 11 65 26 96 49l38 24z m801-129c29 29 67 78 67 143 0 109-109 203-252 236 0-9 2-15 2-22 0-181-174-330-402-355 65-65 174-109 295-109 36 0 74 2 109 11l43 11 40-25c31-20 62-38 96-49-7 11-14 23-18 34l-36 69 56 56z" horiz-adv-x="1429" />

<glyph glyph-name="rt-chevron-down" unicode="&#xe82d;" d="M65 585c19 20 51 20 70 0l365-364 365 364c19 20 51 20 70 0 20-19 20-51 0-70l-400-400c-19-20-51-20-70 0l-400 400c-20 19-20 51 0 70z" horiz-adv-x="1000" />

<glyph glyph-name="rt-grid-2" unicode="&#xe82f;" d="M139 100c29 0 58-12 79-32 20-21 32-50 32-79 0-30-12-58-32-79-21-21-50-32-79-32-30 0-58 11-79 32-20 21-32 49-32 79 0 29 12 58 32 79 21 20 49 32 79 32z m361 0c30 0 58-12 79-32 20-21 32-50 32-79 0-30-12-58-32-79-21-21-49-32-79-32-29 0-58 11-79 32-20 21-32 49-32 79 0 29 12 58 32 79 21 20 50 32 79 32z m361 0c30 0 58-12 79-32 21-21 32-50 32-79 0-30-11-58-32-79-21-21-49-32-79-32-29 0-58 11-78 32-21 21-33 49-33 79 0 29 12 58 33 79 20 20 49 32 78 32z m-722 361c29 0 58-12 79-32 20-21 32-49 32-79 0-29-12-58-32-79-21-20-50-32-79-32-30 0-58 12-79 32-20 21-32 50-32 79 0 30 12 58 32 79 21 20 49 32 79 32z m361 0c30 0 58-12 79-32 20-21 32-49 32-79 0-29-12-58-32-79-21-20-49-32-79-32-29 0-58 12-79 32-20 21-32 50-32 79 0 30 12 58 32 79 21 20 50 32 79 32z m361 0c30 0 58-12 79-32 21-21 32-49 32-79 0-29-11-58-32-79-21-20-49-32-79-32-29 0-58 12-78 32-21 21-33 50-33 79 0 30 12 58 33 79 20 20 49 32 78 32z m-722 361c29 0 58-11 79-32 20-21 32-49 32-79 0-29-12-58-32-78-21-21-50-33-79-33-30 0-58 12-79 33-20 20-32 49-32 78 0 30 12 58 32 79 21 21 49 32 79 32z m361 0c30 0 58-11 79-32 20-21 32-49 32-79 0-29-12-58-32-78-21-21-49-33-79-33-29 0-58 12-79 33-20 20-32 49-32 78 0 30 12 58 32 79 21 21 50 32 79 32z m361 0c30 0 58-11 79-32 21-21 32-49 32-79 0-29-11-58-32-78-21-21-49-33-79-33-29 0-58 12-78 33-21 20-33 49-33 78 0 30 12 58 33 79 20 21 49 32 78 32z m-722-722c29 0 58-12 79-32 20-21 32-50 32-79 0-30-12-58-32-79-21-21-50-32-79-32-30 0-58 11-79 32-20 21-32 49-32 79 0 29 12 58 32 79 21 20 49 32 79 32z m361 0c30 0 58-12 79-32 20-21 32-50 32-79 0-30-12-58-32-79-21-21-49-32-79-32-29 0-58 11-79 32-20 21-32 49-32 79 0 29 12 58 32 79 21 20 50 32 79 32z m361 0c30 0 58-12 79-32 21-21 32-50 32-79 0-30-11-58-32-79-21-21-49-32-79-32-29 0-58 11-78 32-21 21-33 49-33 79 0 29 12 58 33 79 20 20 49 32 78 32z m-722 361c29 0 58-12 79-32 20-21 32-49 32-79 0-29-12-58-32-79-21-20-50-32-79-32-30 0-58 12-79 32-20 21-32 50-32 79 0 30 12 58 32 79 21 20 49 32 79 32z m361 0c30 0 58-12 79-32 20-21 32-49 32-79 0-29-12-58-32-79-21-20-49-32-79-32-29 0-58 12-79 32-20 21-32 50-32 79 0 30 12 58 32 79 21 20 50 32 79 32z m361 0c30 0 58-12 79-32 21-21 32-49 32-79 0-29-11-58-32-79-21-20-49-32-79-32-29 0-58 12-78 32-21 21-33 50-33 79 0 30 12 58 33 79 20 20 49 32 78 32z m-722 361c29 0 58-11 79-32 20-21 32-49 32-79 0-29-12-58-32-78-21-21-50-33-79-33-30 0-58 12-79 33-20 20-32 49-32 78 0 30 12 58 32 79 21 21 49 32 79 32z m361 0c30 0 58-11 79-32 20-21 32-49 32-79 0-29-12-58-32-78-21-21-49-33-79-33-29 0-58 12-79 33-20 20-32 49-32 78 0 30 12 58 32 79 21 21 50 32 79 32z m361 0c30 0 58-11 79-32 21-21 32-49 32-79 0-29-11-58-32-78-21-21-49-33-79-33-29 0-58 12-78 33-21 20-33 49-33 78 0 30 12 58 33 79 20 21 49 32 78 32z" horiz-adv-x="1000" />

<glyph glyph-name="rt-i" unicode="&#xe830;" d="M314 501l-245-30-9-41 48-9c32-8 38-19 31-50l-79-372c-21-96 11-141 86-141 59 0 127 27 157 64l10 44c-22-18-53-26-74-26-29 0-40 21-32 57l107 504z m7 224c0-28-11-56-31-76-20-20-47-31-76-31-28 0-55 11-75 31-21 20-32 48-32 76 0 28 11 56 32 76 20 20 47 31 75 31 29 0 56-11 76-31 20-20 31-48 31-76z" horiz-adv-x="357" />

<glyph glyph-name="rt-location-pointer" unicode="&#xe832;" d="M179 427c0 61 24 119 66 162 43 43 100 67 160 67 60 0 118-24 160-67 43-43 66-101 66-162 0-61-23-120-66-163-42-43-100-67-160-67-60 0-117 24-160 67-42 43-66 102-66 163z m226 157c-41 0-80-17-109-46-29-30-46-70-46-111 0-42 17-82 46-112 29-29 68-46 109-46 41 0 81 17 110 46 29 30 45 70 45 112 0 41-16 81-45 111-29 29-69 46-110 46z m-404-102c9 100 54 194 126 262 73 68 169 106 268 106h20c100 0 195-38 268-106 73-68 118-162 126-262 9-112-25-223-95-310l-228-283c-10-12-22-22-36-29-14-7-29-10-45-10-15 0-30 3-44 10-14 7-27 17-36 29l-229 283c-70 87-104 198-95 310z m394 295c-81 0-159-31-219-86-60-56-97-133-103-215-8-93 20-185 79-258l228-283c3-4 7-7 11-9 5-2 9-4 14-4 5 0 10 2 14 4 5 2 8 5 12 9l228 283c58 73 86 165 79 258-7 82-44 159-104 215-59 55-137 86-219 86h-20 0z" horiz-adv-x="813" />

<glyph glyph-name="rt-location-pointer-2" unicode="&#xe833;" d="M340-117c5-8 14-13 24-13 9 0 18 5 23 13 67 102 166 228 235 356 55 102 82 189 82 267 0 189-153 344-340 344-188 0-340-155-340-344 0-78 26-165 81-267 69-128 168-255 235-356z m24 910c156 0 283-129 283-287 0-68-24-146-75-240-59-110-144-222-208-316-65 94-149 206-209 316-50 94-75 172-75 240 0 158 127 287 284 287z m0-460c93 0 170 78 170 173 0 95-77 172-170 172-94 0-170-77-170-172 0-95 76-173 170-173z m0 287c62 0 113-51 113-114 0-64-51-115-113-115-63 0-114 51-114 115 0 63 51 114 114 114z" horiz-adv-x="727" />

<glyph glyph-name="rt-lock" unicode="&#xe834;" d="M400 850c-158 0-285-125-285-281v-125c-54 0-95-41-95-94v-406c0-53 41-94 95-94h570c54 0 95 41 95 94v406c0 53-41 94-95 94v125c0 156-127 281-285 281z m317-500v-406c0-19-13-32-32-32h-570c-19 0-32 13-32 32v406c0 19 13 31 32 31h570c19 0 32-12 32-31z m-539 94v125c0 122 99 219 222 219 124 0 222-97 222-219v-125h-444z m222-156c-54 0-95-41-95-94 0-41 25-75 63-88v-68c0-19 13-32 32-32 19 0 32 13 32 32v68c38 13 63 47 63 88 0 53-41 94-95 94z m0-125c-19 0-32 12-32 31 0 19 13 31 32 31 19 0 32-12 32-31 0-19-13-31-32-31z" horiz-adv-x="800" />

<glyph glyph-name="rt-star" unicode="&#xe838;" d="M446 768c21 41 80 39 99 0l113-230 252-36c45-7 62-62 29-95l-181-177 43-250c7-45-41-79-81-59l-224 119-225-119c-40-20-88 14-81 59l43 250-181 177c-33 33-16 88 29 95l253 36 112 230z" horiz-adv-x="1000" />

<glyph glyph-name="zoom-in" unicode="&#xe83c;" d="M571 404v-36q0-7-5-13t-12-5h-125v-125q0-7-6-13t-12-5h-36q-7 0-13 5t-5 13v125h-125q-7 0-12 5t-6 13v36q0 7 6 12t12 5h125v125q0 8 5 13t13 5h36q7 0 12-5t6-13v-125h125q7 0 12-5t5-12z m72-18q0 103-73 176t-177 74-177-74-73-176 73-177 177-73 177 73 73 177z m286-465q0-29-21-50t-51-21q-30 0-50 21l-191 191q-100-69-223-69-80 0-153 31t-125 84-84 125-31 153 31 152 84 126 125 84 153 31 153-31 125-84 84-126 31-152q0-123-69-223l191-191q21-21 21-51z" horiz-adv-x="928.6" />

<glyph glyph-name="rt-plus-1" unicode="&#xe842;" d="M549-150c-50 0-91 41-91 91v214c0 50-40 91-91 91h-214c-50 0-91 41-91 91v26c0 50 41 91 91 91h214c51 0 91 41 91 91v214c0 50 41 91 91 91h26c51 0 91-41 91-91v-214c0-50 41-91 91-91h214c51 0 91-41 91-91v-26c0-50-40-91-91-91h-214c-50 0-91-41-91-91v-214c0-50-40-91-91-91h-26z" horiz-adv-x="1091" />

<glyph glyph-name="rt-pdf" unicode="&#xe845;" d="M856 492h-25l1 95c0 5-2 11-6 15l-221 241c-2 2-4 4-6 5-3 1-5 2-8 2l-462 0c-10 0-20-4-28-12-7-7-11-17-11-27v-319h-26c-14 0-28-6-38-16-10-11-16-25-16-40v-291c0-31 24-56 54-56h26v-200c0-10 4-20 11-27 8-8 18-12 28-12h664c21 0 39 18 39 39v200h24c30 0 54 25 54 56v291c0 15-6 29-16 40-5 5-10 9-17 12-7 3-14 4-21 4h0z m-698 289h347v-229c0-5 2-10 6-14 2-1 4-3 6-4 2-1 5-1 7-1h238v-41h-604v289z m0-862v170h604v-170h-604z m417 855l19-22 129-142 7-9h-132c-10 0-16 2-19 5-2 3-4 9-4 16v152z m-465-636v300h96c36 0 60-1 71-4 17-5 31-14 43-29 11-16 17-35 17-59 0-18-4-34-10-46-7-13-15-23-25-30-10-7-20-11-31-14-15-3-35-4-62-4h-39v-114h-60z m60 250v-85h33c23 0 39 1 47 4 7 3 14 8 19 15 4 7 6 15 6 23 1 10-3 20-9 27-7 7-15 12-24 14-7 1-22 2-43 2h-29v0z m202 50h109c25 0 43-1 56-5 18-5 33-15 45-28 12-13 22-29 28-49 7-19 10-42 10-70 0-25-3-46-9-64-8-22-18-40-32-53-10-10-24-19-42-24-13-4-31-7-53-7h-112v300z m60-50v-199h44c17 0 29 1 36 3 10 2 18 6 24 12 7 6 12 16 16 29 4 14 6 32 6 55 0 23-2 41-6 54-3 11-9 21-17 29-8 7-17 12-28 14-8 2-24 3-49 3h-26z m225-250v300h203v-50h-143v-71h123v-51h-123v-128h-60z" horiz-adv-x="920" />

<glyph glyph-name="zoom-out" unicode="&#xe849;" d="M571 404v-36q0-7-5-13t-12-5h-322q-7 0-12 5t-6 13v36q0 7 6 12t12 5h322q7 0 12-5t5-12z m72-18q0 103-73 176t-177 74-177-74-73-176 73-177 177-73 177 73 73 177z m286-465q0-29-21-50t-51-21q-30 0-50 21l-191 191q-100-69-223-69-80 0-153 31t-125 84-84 125-31 153 31 152 84 126 125 84 153 31 153-31 125-84 84-126 31-152q0-123-69-223l191-191q21-21 21-51z" horiz-adv-x="928.6" />

<glyph glyph-name="check" unicode="&#xe84a;" d="M786 331v-177q0-67-47-114t-114-47h-464q-67 0-114 47t-47 114v464q0 66 47 113t114 48h464q35 0 65-14 9-4 10-13 2-10-5-16l-27-28q-6-5-13-5-1 0-5 1-13 3-25 3h-464q-37 0-63-26t-27-63v-464q0-37 27-63t63-27h464q37 0 63 27t26 63v141q0 8 5 13l36 35q6 6 13 6 3 0 7-2 11-4 11-16z m129 273l-455-454q-13-14-31-14t-32 14l-240 240q-14 13-14 31t14 32l61 62q14 13 32 13t32-13l147-147 361 361q13 13 31 13t32-13l62-61q13-14 13-32t-13-32z" horiz-adv-x="928.6" />

<glyph glyph-name="quotes-stroke" unicode="&#xe84b;" d="M1151 798h0z m126-518h0a296 296 0 0 1-193 142h0a312 312 0 0 1-140 0 510 510 0 0 0 69 143 178 178 0 0 0 114 79 55 55 0 0 1 29 14 58 58 0 0 1 15 26q3 14 8 28h0l-32 136a229 229 0 0 1-98-9 335 335 0 0 1-107-55 467 467 0 0 1-82-82h0a722 722 0 0 1-148-364 786 786 0 0 1-6-97 538 538 0 0 1 30-182 314 314 0 0 1 121-161 306 306 0 0 1 186-48 288 288 0 0 1 271 269h0z m-11-158h0a242 242 0 0 0-71-154 235 235 0 0 0-155-69 259 259 0 0 0-156 39 266 266 0 0 0-103 137 546 546 0 0 0-21 257 671 671 0 0 0 138 340 335 335 0 0 0 165 121 179 179 0 0 0 78 8h0a19 19 0 0 0 10-3 17 17 0 0 0 0-9c-4-19-9-37-15-55-3-12-7-24-10-37a14 14 0 0 0-3-5 7 7 0 0 0-4-2 198 198 0 0 1-83-36 277 277 0 0 1-61-62h0a617 617 0 0 1-91-200l-13-45 44 16a269 269 0 0 0 158 12 244 244 0 0 0 193-253z m-76 704a57 57 0 0 0 7-48c-5-19-11-39-16-58 0-2-1-4-2-7l-32 135a60 60 0 0 0 43-22z m124-707l-36 161a287 287 0 0 0 36-161z m-869 679z m-1 1z m93-847a277 277 0 0 0-276-95 298 298 0 0 0-165 85 324 324 0 0 0-80 165 816 816 0 0 0-16 157 693 693 0 0 0 200 487 321 321 0 0 0 83 64 300 300 0 0 0 102 32 234 234 0 0 0 34 3v-48h0a186 186 0 0 1-27-2 258 258 0 0 1-158-82c-161-171-215-374-171-602a277 277 0 0 1 67-141 253 253 0 0 1 140-72 280 280 0 0 1 53-5 227 227 0 0 1 179 86 227 227 0 0 1 58 149 258 258 0 0 1-17 90 244 244 0 0 1-232 158 295 295 0 0 1-101-18l-45-16 14 45a610 610 0 0 0 95 207 221 221 0 0 0 138 90 8 8 0 0 1 5 3 18 18 0 0 1 4 7v-57a173 173 0 0 1-109-71 502 502 0 0 1-76-151c151 33 299-38 352-180a274 274 0 0 0-51-288z m-45 842a141 141 0 0 0-6-34l-4-13c-5-20-11-39-16-59l-24 6 24-6a67 67 0 0 0-15-29 58 58 0 0 0-32-17v57s0 0 0 1c6 21 11 40 17 60 0 5 3 9 4 13a91 91 0 0 1 4 22 9 9 0 0 1 0 3l-3 0a90 90 0 0 1-22 3v49a138 138 0 0 0 35-5 52 52 0 0 0 29-18 52 52 0 0 0 9-33z" horiz-adv-x="1314" />

<glyph glyph-name="rt-heart-1" unicode="&#xe84d;" d="M480-95c-10 0-20 5-30 15l-370 365c-50 50-80 120-80 190 0 70 30 140 80 195 50 55 120 80 195 80 75 0 140-30 195-80l15-15 15 15c25 25 55 45 90 60 65 30 140 30 210 0 35-15 65-35 90-60 25-25 45-55 60-90 0-30 10-65 10-105 0-40-10-70-20-100-15-35-35-65-60-90l-370-370c-10-10-20-10-30-10z m-205 755c-50 0-95-20-130-55-35-35-55-80-55-130 0-50 20-95 55-130l335-335 335 335c15 15 30 40 40 60 10 25 15 45 15 70 0 25-5 50-15 70-10 25-25 45-40 60-15 20-35 35-60 45-45 20-95 20-140 0-25-10-45-25-60-40l-45-45c-15-20-45-20-60 0l-45 45c-35 35-80 50-130 50z" horiz-adv-x="1000" />

<glyph glyph-name="rt-dollar-1" unicode="&#xe855;" d="M500 314h-5c-81 11-179 49-179 170 0 73 48 152 183 152 135 0 180-97 184-149 1-20-13-37-33-38-9-1-19 2-26 8-7 6-11 14-13 24-1 13-13 83-112 83-75 0-113-28-113-80 0-28 0-85 118-100 9-1 17-6 22-13 6-7 9-16 8-25-1-9-5-17-11-23-7-6-15-10-24-10l1 1z m0 0h-5c-81 11-179 49-179 170 0 73 48 152 183 152 135 0 180-97 184-149 1-20-13-37-33-38-9-1-19 2-26 8-7 6-11 14-13 24-1 13-13 83-112 83-75 0-113-28-113-80 0-28 0-85 118-100 9-1 17-6 22-13 6-7 9-16 8-25-1-9-5-17-11-23-7-6-15-10-24-10l1 1z m0-250c-136 0-179 97-184 149-1 20 13 37 33 38 20 2 37-12 39-32 1-13 13-83 113-83 74 0 112 28 112 80 0 28 0 85-117 100-10 1-18 6-24 13-6 8-8 17-7 27 3 19 21 33 40 30 81-10 179-48 179-170 0-72-48-151-183-151l-1-1z m0 0c-136 0-179 97-184 149-1 20 13 37 33 38 20 2 37-12 39-32 1-13 13-83 113-83 74 0 112 28 112 80 0 28 0 85-117 100-10 1-18 6-24 13-6 8-8 17-7 27 3 19 21 33 40 30 81-10 179-48 179-170 0-72-48-151-183-151l-1-1z m0-214c-276 0-500 224-500 500 0 276 224 500 500 500 276 0 500-224 500-500 0-276-224-500-500-500z m0 929c-236 0-429-193-429-429 0-236 193-429 429-429 236 0 429 193 429 429 0 236-193 429-429 429z m0-929c-276 0-500 224-500 500 0 276 224 500 500 500 276 0 500-224 500-500 0-276-224-500-500-500z m0 929c-236 0-429-193-429-429 0-236 193-429 429-429 236 0 429 193 429 429 0 236-193 429-429 429z m0-786c-20 0-36 16-36 36v642c0 20 16 36 36 36 20 0 36-16 36-36v-642c0-20-16-36-36-36z m0 0c-20 0-36 16-36 36v642c0 20 16 36 36 36 20 0 36-16 36-36v-642c0-20-16-36-36-36z" horiz-adv-x="1000" />

<glyph glyph-name="message" unicode="&#xe85a;" d="M138 763c-17 0-33-7-45-19-11-11-18-27-18-44v-709l136 136c7 7 17 11 27 11h600c16 0 32 6 44 18 11 12 18 28 18 44v500c0 17-7 33-18 44-12 12-28 19-44 19h-700z m-98 34c26 26 61 41 98 41h700c36 0 71-15 97-41 26-25 40-60 40-97v-500c0-36-14-71-40-97-26-26-61-40-97-40h-585l-189-190c-11-10-27-13-41-8-14 6-23 20-23 35v800c0 37 15 72 40 97z" horiz-adv-x="1000" />

<glyph glyph-name="quotation-right" unicode="&#xe85d;" d="M1383 225c0-207-166-375-371-375l-24 0c-55 0-99 45-99 100 0 55 44 100 99 100l24 0c96 0 173 78 173 175l0 25-197 0c-109 0-198 90-198 200l0 200c0 110 89 200 198 200l197 0c109 0 198-90 198-200l0-425z m-790 0c0-207-166-375-371-375l-24 0c-55 0-99 45-99 100 0 55 44 100 99 100l24 0c96 0 173 78 173 175l0 25-197 0c-109 0-198 90-198 200l0 200c0 110 89 200 198 200l197 0c109 0 198-90 198-200l0-425z" horiz-adv-x="1383" />

<glyph glyph-name="quotation-right-small" unicode="&#xe85e;" d="M1163-7c-90-95-224-143-401-143l-64 0 0 176 52 10c87 17 147 51 179 101 17 26 27 57 28 88l-195 0c-17 0-33 7-45 18-12 12-19 28-19 45l0 437c0 69 57 125 127 125l381 0c17 0 33-7 45-18 12-12 19-28 19-44l0-313 0-182c0-7 12-172-107-300z m-1036 857l381 0c17 0 33-7 45-18 12-12 18-28 18-44l0-313 0-182c1-7 13-172-107-300-89-95-224-143-400-143l-64 0 0 176 51 10c87 17 148 51 180 101 17 26 26 57 28 88l-195 0c-17 0-33 7-45 18-12 12-19 28-19 45l0 437c0 69 57 125 127 125z" horiz-adv-x="1270" />

<glyph glyph-name="quotation-small" unicode="&#xe85f;" d="M106 707c88 95 220 143 394 143h63v-176l-50-10c-86-17-146-51-177-100-17-27-27-58-28-89h192c17 0 33-7 44-18 12-12 19-28 19-44v-438c0-69-56-125-125-125h-375c-17 0-33 7-44 18-12 12-19 28-19 44v313l1 182c-1 7-13 172 105 300z m1019-857h-375c-16 0-32 7-44 18-12 12-18 28-18 44v313l0 182c-1 7-13 172 105 300 88 95 221 143 395 143h62v-176l-50-10c-86-17-145-51-177-100-17-27-26-58-28-89h193c16 0 32-7 44-18 11-12 18-28 18-44v-438c0-69-56-125-125-125z" horiz-adv-x="1250" />

<glyph glyph-name="quotation-small-alt" unicode="&#xe860;" d="M1173-7c-90-95-226-143-404-143l-64 0 0 176 51 10c88 17 149 51 181 101 17 26 27 57 28 88l-196 0c-17 0-34 7-46 18-12 12-18 28-18 45l0 437c0 69 57 125 128 125l384 0c17 0 33-7 45-18 12-12 19-28 19-44l0-313 0-182c0-7 12-172-108-300z m-1045 857l384 0c17 0 34-7 46-18 12-12 18-28 18-44l0-313 0-182c1-7 13-172-108-300-90-95-226-143-404-143l-64 0 0 176 52 10c87 17 148 51 181 101 17 26 27 57 28 88l-197 0c-17 0-33 7-45 18-12 12-19 28-19 45l0 437c0 69 57 125 128 125z" horiz-adv-x="1281" />

<glyph glyph-name="rt-chevron-right" unicode="&#xe863;" d="M32 780c25 25 65 25 90 0l385-385c12-12 19-28 19-45 0-17-7-33-19-45l-385-385c-25-25-65-25-90 0-25 25-25 66 0 91l339 339-339 339c-25 25-25 66 0 91z" horiz-adv-x="538" />

<glyph glyph-name="search" unicode="&#xe864;" d="M449 767c-202 0-366-164-366-366 0-202 164-366 366-366 99 0 189 39 254 103 2 2 3 3 4 5 2 1 3 3 5 4 64 66 103 155 103 254 0 202-164 366-366 366z m346-653l193-193c16-16 16-43 0-59-16-16-43-16-59 0l-193 193c-78-64-178-103-287-103-248 0-449 201-449 449 0 248 201 449 449 449 248 0 449-201 449-449 0-109-39-209-103-287z" horiz-adv-x="1000" />

<glyph glyph-name="secure-data-service" unicode="&#xe865;" d="M480 836c6 5 13 8 20 8 65 0 129-13 189-37 60-25 115-62 161-108 46-46 82-100 107-160 25-60 37-124 37-189 0-15-12-28-28-28h-466c-15 0-28 13-28 28v466c0 8 3 15 8 20z m48-49v-409h410c-4 48-14 95-33 140-22 53-54 101-95 142-41 41-89 73-142 95-45 18-92 29-140 32z m-189 2c7-15 0-31-14-37-66-29-123-73-168-129-44-56-75-122-88-193-13-70-8-142 13-211 21-68 59-130 110-180 51-51 113-88 182-109 69-20 141-24 211-10 71 14 136 45 192 90 55 45 99 104 127 169 6 15 22 21 36 15 15-6 21-22 15-36-31-75-80-140-143-191-63-51-137-86-216-102-79-15-161-11-238 12-77 23-148 65-205 122-58 56-100 126-124 203-25 78-30 159-15 239 15 79 49 154 99 217 51 63 116 113 190 145 14 6 30 0 36-14z" horiz-adv-x="1000" />

<glyph glyph-name="security-service" unicode="&#xe866;" d="M468 795c-57 0-112-23-152-62-40-40-63-93-63-149v-164h430v164c0 56-22 109-63 149-40 39-95 62-152 62z m264-375h72c66 0 120-53 120-119v-329c0-66-54-119-120-119h-671c-66 0-121 53-121 119v329c0 66 55 119 121 119h71v164c0 69 28 135 78 184 49 48 116 76 186 76 70 0 137-28 187-76 49-49 77-115 77-184v-164z m-599-49c-40 0-72-32-72-70v-329c0-38 32-70 72-70h671c40 0 71 32 71 70v329c0 38-31 70-71 70h-671z" horiz-adv-x="941" />

<glyph glyph-name="tax-service" unicode="&#xe868;" d="M147 771c-18 0-35-8-48-20-12-13-19-30-19-47v-708c0-17 7-34 19-47 13-12 30-20 48-20h808c17 0 34 8 47 20 12 13 20 30 20 47v556c0 18-8 35-20 47-13 13-30 20-47 20h-455c-11 0-22 6-28 15l-91 137h-234z m-96 28c25 25 60 40 96 40h252c11 0 22-6 28-15l91-137h437c35 0 70-14 95-39 25-26 40-60 40-96v-556c0-35-15-70-40-95-25-25-60-40-95-40h-808c-36 0-71 15-96 40-25 25-40 60-40 95v708c0 35 15 70 40 95z" horiz-adv-x="1091" />

<glyph glyph-name="time-data-service" unicode="&#xe86a;" d="M500 791c-16 0-31-7-42-18-11-11-17-26-17-42v-7l0 0c0-18-6-37-16-52-10-16-25-28-42-35-3-1-6-2-8-2-16-6-34-8-51-5-18 4-36 13-49 26l-1 0-2 3c-6 5-12 10-19 13-8 3-15 4-23 4-8 0-16-1-23-4-7-3-14-8-19-13l0 0c-6-6-10-12-13-19-3-8-4-15-4-23 0-8 1-16 4-23 3-7 7-14 13-19l2-3 1 0c13-14 22-31 25-50 4-18 2-37-6-54-7-18-18-33-34-44-15-11-34-18-53-18 0 0 0 0 0 0h-4c-16 0-31-6-42-17-11-12-18-27-18-42 0-16 7-31 18-42 11-11 26-18 42-18h7c19 0 37-5 52-16 16-10 28-24 35-41 8-18 10-37 7-56-4-18-13-36-26-49l0-1-3-2c-5-6-10-12-13-19-3-8-4-15-4-23 0-8 1-16 4-23 3-7 8-14 13-19l0 0c6-6 12-10 20-13 7-3 15-4 22-4 8 0 16 1 23 4 7 3 14 7 19 13l3 2 0 1c14 13 31 22 50 25 18 4 37 2 54-6 18-7 33-18 44-34 11-15 18-34 18-53 0 0 0 0 0 0 0 0 0-1 0-1v-3c0-16 6-31 17-42 12-11 27-18 42-18 16 0 31 7 42 18 12 11 18 26 18 42v7l0 0c0 18 5 37 16 52 10 16 24 28 41 35 18 8 37 10 56 7 19-4 36-13 49-26l1 0 2-3c6-5 12-10 19-13 8-3 15-4 23-4 8 0 16 1 23 4 7 3 14 8 19 13l0 0c6 6 10 12 13 20 3 7 5 15 5 22 0 8-2 16-5 23-3 7-7 14-13 19l-2 3-1 0c-13 14-22 31-25 50-4 18-1 38 6 55 8 17 20 32 35 42 16 10 34 16 52 16l1 0 3 0c16 0 31 6 42 17 11 11 18 26 18 42 0 16-7 31-18 42-11 11-26 17-42 17h-7l0 0c-18 0-37 6-52 16-16 10-28 25-35 42-1 3-2 6-2 8-6 17-8 34-5 51 4 19 13 36 26 49l0 1 3 2c5 6 10 12 13 19 3 8 4 15 4 23 0 8-1 16-4 23-3 7-8 14-13 19l0 0c-6 6-12 10-19 13-8 3-15 5-23 5-8 0-16-2-23-5-7-3-14-7-19-13l-3-2 0-1c-14-13-31-22-50-25-18-4-38-1-55 6-17 8-32 20-42 35-10 16-16 34-16 52l0 1v3c0 16-6 31-17 42-11 11-26 18-42 18z m-78 18c21 21 49 33 78 33 29 0 57-12 78-33 21-20 32-48 32-78v-3c0-9 3-17 8-25 4-7 11-13 19-16l0 0c9-4 18-5 26-3 9 1 17 6 23 12l3 2c0 0 0 0 0 0 10 10 22 18 36 24 13 6 27 8 42 8 14 0 29-2 42-8 13-6 25-14 36-24 10-10 18-22 24-36 5-13 8-27 8-42 0-14-3-29-8-42-6-13-14-26-24-36 0 0 0 0 0 0l-3-2c-6-7-10-15-12-23-1-9 0-18 3-26 2-3 2-5 2-8 4-6 9-11 15-15 7-5 16-8 24-8h7c30 0 58-11 78-32 21-21 33-49 33-78 0-29-12-57-33-78-20-21-48-32-78-32h-3c-9 0-17-3-25-8-7-4-13-11-16-19l0 0c-4-8-5-17-3-26 1-9 6-17 12-23l2-3c10-10 18-22 24-35 6-14 8-28 8-43 0-14-2-29-8-42-6-13-14-25-24-36-10-10-22-18-36-24-13-5-27-8-42-8-14 0-29 3-42 8-13 6-26 14-36 24 0 0 0 0 0 0l-2 3c-7 6-15 10-23 12-9 1-18 0-26-3l0 0c-8-4-15-10-20-17-5-7-7-16-7-24v-7c0-30-12-58-33-78-20-21-48-33-78-33-29 0-57 12-77 33-21 20-33 48-33 78v3c0 9-3 17-8 25-5 7-12 13-21 16 0 0-1 0-1 0-8 4-17 5-26 3-9-1-17-5-23-12l-3-2c-10-10-22-18-35-24-14-6-28-8-43-8-14 0-29 2-42 8-13 6-25 14-36 24-10 10-18 22-24 36-5 13-8 27-8 42 0 14 3 29 8 42 6 13 14 26 24 36 0 0 0 0 0 0l3 2c6 7 10 15 12 23 1 9 0 18-3 26l0 1c-4 8-10 14-17 19-7 5-15 7-24 7h-7c-30 0-58 12-78 33-21 20-32 48-32 78 0 29 11 57 32 78 20 20 48 32 78 32h3c9 0 18 3 25 8 7 5 13 13 16 21 0 0 0 1 0 1 4 9 5 18 3 26-1 9-5 17-12 23l-2 3c0 0 0 0 0 0-10 10-18 22-24 36-5 13-8 27-8 42 0 14 3 29 8 42 6 13 14 26 24 36 10 10 22 18 36 24 13 5 27 8 42 8 14 0 29-3 42-8 13-6 26-14 36-24 0 0 0 0 0 0l2-3c7-6 15-10 23-12 9-1 18 0 26 3 3 2 5 2 8 2 6 4 11 9 15 15 5 7 8 16 8 24v7c0 30 11 58 32 78z m78-357c-56 0-102-46-102-102 0-56 46-102 102-102 56 0 102 46 102 102 0 56-46 102-102 102z m-152-102c0 84 68 153 152 153 84 0 153-69 153-153 0-84-69-152-153-152-84 0-152 68-152 152z" horiz-adv-x="1000" />

<glyph glyph-name="rt-comments" unicode="&#xe86b;" d="M60-140c-5 0-10 0-15 5-15 5-25 20-25 35v800c0 35 15 70 40 95s60 40 95 40h700c35 0 70-15 95-40s40-60 40-95v-500c0-35-15-70-40-95s-60-40-95-40h-580l-190-190c-5-10-15-15-25-15z m100 900c-15 0-35-5-45-20s-20-25-20-40v-710l135 135c5 5 15 10 25 10h600c15 0 35 5 45 20s20 30 20 45v500c0 15-5 35-20 45s-30 20-45 20h-695z" horiz-adv-x="1000" />

<glyph glyph-name="uiux-service" unicode="&#xe86c;" d="M19 831c7 8 18 11 28 8l667-161c11-3 20-12 22-23l58-290 7 6c12 12 31 12 42 0l138-138c12-11 12-30 0-42l-322-322c-11-12-30-12-42 0l-138 138c-12 12-12 31 0 42l6 7-290 58c-11 2-20 11-23 22l-161 667c-3 10 0 21 8 28z m517-724l207 207-62 310-544 132 255-255c18 11 39 17 62 17 67 0 122-55 122-122 0-67-55-122-122-122-67 0-122 55-122 122 0 23 6 44 17 62l-255 255 132-544 310-62z m-126 332c-11-11-18-26-18-43 0-34 28-62 62-62 34 0 62 28 62 62 0 34-28 62-62 62-17 0-32-7-43-18 0 0-1 0-1 0 0 0 0 0 0-1z m132-411l96-96 280 280-96 96-25-25c0 0 0 0 0 0l-230-230c0 0 0 0 0 0l-25-25z" horiz-adv-x="1000" />

<glyph glyph-name="user-datalist-feature" unicode="&#xe86e;" d="M502 841c65 0 129-13 189-38 60-25 114-61 160-107 46-45 82-100 107-160 25-59 37-123 37-188 0-272-220-493-493-493-272 0-493 221-493 493 0 131 52 256 145 348 92 93 218 145 348 145z m-229-356c32 40 78 65 128 70 50 5 101-9 140-41 20-16 36-35 48-57 12-22 19-46 22-71 3-25 0-50-7-74-7-24-18-47-34-66-32-40-78-65-128-70-51-6-101 9-140 41-40 32-65 78-70 128-6 50 9 101 41 140z m175-400l253 314 31-284-284-30z" horiz-adv-x="1000" />

<glyph glyph-name="analysis-service" unicode="&#xe86f;" d="M1214 707c-39 0-71 32-71 72 0 39 32 71 71 71h429c39 0 71-32 71-71v-429c0-39-32-71-71-71-40 0-72 32-72 71v256l-556-556c-28-28-73-28-101 0l-307 306-485-485c-28-28-73-28-101 0-28 28-28 73 0 101l536 536c28 28 73 28 101 0l306-307 506 506h-256z" horiz-adv-x="1714" />

<glyph glyph-name="clock" unicode="&#xe876;" d="M489 771c-233 0-421-189-421-421 0-232 188-420 421-420 232 0 420 188 420 420 0 232-188 421-420 421z m-489-421c0 270 219 489 489 489 270 0 488-219 488-489 0-270-218-489-488-489-270 0-489 219-489 489z m489 307c19 0 34-15 34-34v-252l163-81c17-9 23-29 15-46-8-17-29-24-46-15l-182 91c-11 5-18 17-18 30v273c0 19 15 34 34 34z" horiz-adv-x="1000" />

<glyph glyph-name="comunication-service-alt" unicode="&#xe877;" d="M125 795c-39 0-70-31-70-70v-187c0-39 31-71 70-71h750c39 0 70 32 70 71v187c0 39-31 70-70 70h-750z m-117-70c0 65 52 117 117 117h750c65 0 117-52 117-117v-187c0-65-52-118-117-118h-750c-65 0-117 53-117 118v187z m187-94c0 13 11 24 24 24h0c13 0 24-11 24-24 0-13-11-23-24-23h0c-13 0-24 10-24 23z m-70-398c-39 0-70-32-70-70v-188c0-39 31-70 70-70h750c39 0 70 31 70 70v188c0 38-31 70-70 70h-750z m-117-70c0 64 52 117 117 117h750c65 0 117-53 117-117v-188c0-65-52-117-117-117h-750c-65 0-117 52-117 117v188z m187-94c0 13 11 23 24 23h0c13 0 24-10 24-23 0-13-11-24-24-24h0c-13 0-24 11-24 24z" horiz-adv-x="1000" />

<glyph glyph-name="degital-art" unicode="&#xe87c;" d="M158 756c-17 0-33-7-45-18-12-12-19-27-19-42v-494c0-15 7-31 19-42 12-11 28-18 45-18h52c21 0 39-17 39-39 0-21-18-39-39-39h-52c-37 0-73 14-99 40-27 26-42 61-42 98v494c0 37 15 72 42 98 26 25 62 39 99 39h823c37 0 73-14 99-39 27-26 42-61 42-98v-494c0-37-15-72-42-98-26-26-62-40-99-40h-52c-21 0-39 18-39 39 0 22 18 39 39 39h52c17 0 33 7 45 18 12 11 18 27 18 42v494c0 15-6 30-18 42-12 11-28 18-45 18h-823z m411-515c12 0 22-5 30-14l257-296c10-12 12-28 6-42-7-13-20-22-36-22h-513c-16 0-30 9-36 22-6 14-4 30 6 42l257 296c8 9 18 14 29 14z m-171-297h343l-172 199-171-199z" horiz-adv-x="1139" />

<glyph glyph-name="development-service" unicode="&#xe87d;" d="M142 777h800c37 0 68-31 68-70v-510c0-39-31-70-68-70h-800c-38 0-69 31-69 70v510c0 39 31 70 69 70z m431-713h369c73 0 131 60 131 133v510c0 72-58 133-131 133h-800c-73 0-132-61-132-133v-510c0-73 59-133 132-133h368v-141h-168c-18 0-32-14-32-31 0-18 14-32 32-32h400c17 0 31 14 31 32 0 17-14 31-31 31h-169v141z" horiz-adv-x="1083" />

<glyph glyph-name="digital-marketing-service" unicode="&#xe87e;" d="M64 787c35 34 82 53 132 53 49 0 96-19 131-53 35-34 54-81 54-129v-125h257v125c0 48 20 95 55 129 34 34 82 53 131 53 49 0 96-19 131-53 35-34 55-81 55-129 0-49-20-95-55-130-35-34-82-53-131-53h-128v-250h128c49 0 96-19 131-53 35-34 55-81 55-130 0-48-20-95-55-129-35-34-82-53-131-53-49 0-97 19-131 53-35 34-55 81-55 129v125h-257v-125c0-48-19-95-54-129-35-34-82-53-131-53-50 0-97 19-132 53-35 34-54 81-54 129 0 49 19 96 54 130 35 34 82 53 132 53h128v250h-128c-50 0-97 19-132 53-35 35-54 81-54 130 0 48 19 95 54 129z m260-254v125c0 33-14 64-38 88-24 23-56 37-90 37-35 0-67-14-91-37-24-24-38-55-38-88 0-33 14-65 38-88 24-24 56-37 91-37h128z m57-58v-250h257v250h-257z m-57-308h-128c-35 0-67-13-91-36-24-24-38-56-38-89 0-33 14-64 38-88 24-23 56-37 91-37 34 0 66 14 90 37 24 24 38 55 38 88v125z m372 0v-125c0-33 13-64 37-88 24-23 57-37 91-37 34 0 67 14 91 37 24 24 37 55 37 88 0 33-13 65-37 89-24 23-57 36-91 36h-128z m0 366h128c34 0 67 13 91 37 24 23 37 55 37 88 0 33-13 64-37 88-24 23-57 37-91 37-34 0-67-14-91-37-24-24-37-55-37-88v-125z" horiz-adv-x="1019" />

<glyph glyph-name="file" unicode="&#xe880;" d="M56 809c24 24 57 37 90 37h323c9 0 18-3 25-10l323-323c6-6 10-15 10-24v-508c0-34-13-66-37-90-24-24-56-37-90-37h-554c-33 0-66 13-90 37-23 24-37 56-37 90v738c0 34 14 66 37 90z m90-32c-15 0-30-6-41-17-10-11-16-25-16-41v-738c0-16 6-30 16-41 11-11 26-17 41-17h554c15 0 30 6 41 17 11 11 17 25 17 41v473h-289c-19 0-34 15-34 35v288h-289z m358-49v-205h205l-205 205z" horiz-adv-x="846" />

<glyph glyph-name="file-alt" unicode="&#xe881;" d="M366 846l541 0c29 0 57-9 81-24 25-15 44-36 57-62 0 0 0 0 0 0l196-392c3-5 4-12 4-18v-341c0-41-16-80-45-109-29-29-68-45-109-45h-909c-41 0-80 16-109 45-29 29-46 68-46 109v341c0 6 2 13 5 18l196 392c0 0 0 0 0 0 12 26 32 47 57 62 24 15 52 24 81 24z m0-82c-14 0-27-4-38-11-12-7-21-18-27-30l0 0-167-332h275c14 0 27-7 34-18l102-152h183l102 152c7 11 20 18 34 18h274l-166 332 0 0c-6 12-15 23-27 30-11 7-25 11-38 11m257-455h-278l-102-152c-8-11-20-18-34-18h-227c-14 0-27 7-34 18l-102 152h-278v-300c0-19 8-38 21-51 14-14 33-22 52-22h909c19 0 38 8 51 22 14 13 22 32 22 51v300z m-257 455h-541z" horiz-adv-x="1273" />

<glyph glyph-name="parcentege" unicode="&#xe883;" d="M205 725c-44 0-80-36-80-80 0-45 36-81 80-81 45 0 81 36 81 81 0 44-36 80-81 80z m-187-80c0 103 84 187 187 187 104 0 188-84 188-187 0-104-84-188-188-188-103 0-187 84-187 188z m819 118c21 21 55 21 76 0 21-21 21-55 0-76l-750-750c-21-21-55-21-76 0-21 21-21 55 0 76l750 750z m-42-627c-45 0-81-36-81-81 0-44 36-80 81-80 44 0 80 36 80 80 0 45-36 81-80 81z m-188-81c0 104 84 188 188 188 103 0 187-84 187-188 0-103-84-187-187-187-104 0-188 84-188 187z" horiz-adv-x="1000" />

<glyph glyph-name="rt-round-chevron-left" unicode="&#xe88e;" d="M513 807c24-25 24-64 0-89l-340-339c-15-16-15-42 0-58l340-339c24-25 24-64 0-89-24-24-64-24-88 0l-340 340c-64 64-64 170 0 234l340 340c24 24 64 24 88 0z" horiz-adv-x="563" />

<glyph glyph-name="rt-round-chevron-right" unicode="&#xe88f;" d="M50 807c-25-25-25-64 0-89l339-339c16-16 16-42 0-58l-339-339c-25-25-25-64 0-89 24-24 64-24 88 0l340 340c64 64 64 170 0 234l-340 340c-24 24-64 24-88 0z" horiz-adv-x="563" />

<glyph glyph-name="cancel" unicode="&#xe892;" d="M724 112q0-22-15-38l-76-76q-16-15-38-15t-38 15l-164 165-164-165q-16-15-38-15t-38 15l-76 76q-16 16-16 38t16 38l164 164-164 164q-16 16-16 38t16 38l76 76q16 16 38 16t38-16l164-164 164 164q16 16 38 16t38-16l76-76q15-15 15-38t-15-38l-164-164 164-164q15-15 15-38z" horiz-adv-x="785.7" />

<glyph glyph-name="user-plus" unicode="&#xe8a0;" d="M499 791c-140 0-254-118-254-263 0-90 43-170 110-217-62-22-119-59-167-109-83-86-129-200-129-322h69c0 212 166 385 371 385 141 0 255 118 255 263 0 145-114 263-255 263z m0-455c-102 0-186 86-186 192 0 106 84 192 186 192 103 0 186-86 186-192 0-106-83-192-186-192z m298-235v149h-69v-149h-145v-71h145v-150h69v150h144v71h-144z" horiz-adv-x="1000" />

<glyph glyph-name="location-fill" unicode="&#xe8aa;" d="M320-108c-272 391-320 432-320 577 0 197 158 357 357 357 197 0 357-160 357-357 0-145-50-186-321-577-17-26-56-26-73 0z m37 428c82 0 149 65 149 149 0 82-67 149-149 149-84 0-149-67-149-149 0-84 65-149 149-149z" horiz-adv-x="714" />

<glyph glyph-name="play-stroke" unicode="&#xe8c1;" d="M27-150c-4 0-9 1-13 3-4 3-8 6-10 10-3 4-4 9-4 14v946c0 5 1 10 4 14 2 4 6 7 10 10 4 2 9 3 14 3 5 0 10-2 14-4l735-473c4-3 7-6 9-10 3-4 4-8 4-13 0-4-1-9-4-13-2-4-5-7-9-10l-735-473c-5-3-10-4-15-4z m27 924v-848l659 424-659 424z" horiz-adv-x="800" />

<glyph glyph-name="f-check-circle" unicode="&#xe8ef;" d="M525-150c-83 0-165 20-239 60-73 40-135 97-180 167-59 91-86 198-78 305 7 107 49 209 119 291 70 81 164 138 269 162 105 24 214 13 313-30 11-5 19-14 24-26 4-11 4-24-1-35-5-11-14-19-26-24-11-4-24-4-35 1-80 37-170 46-256 27-86-19-163-65-221-132-57-67-91-151-97-239-6-88 17-176 65-250 48-74 119-130 201-161 83-30 173-33 258-8 85 25 159 76 212 147 53 71 81 157 81 245v42c0 12 5 23 13 32 9 9 21 13 33 13 12 0 23-4 32-13 8-9 13-20 13-32v-42c0-108-35-213-99-299-65-87-156-150-259-181-46-13-94-20-142-20z m0 364c-6 0-12 1-17 3-6 2-11 6-15 10l-137 136c-7 9-11 20-10 32 0 11 5 22 13 30 8 8 19 13 31 13 11 0 22-4 31-11l104-104 422 423c5 4 10 7 15 9 6 3 12 4 18 4 6 0 12-1 17-4 6-2 11-5 15-9 8-9 13-21 13-33 0-12-5-23-13-32l-455-454c-4-4-9-8-14-10-6-2-12-3-18-3z" horiz-adv-x="1045" />

<glyph glyph-name="f-check-round" unicode="&#xe8f0;" d="M511-127c-96 0-191 28-271 82-80 54-143 130-180 219-37 90-47 188-28 283 19 95 66 182 134 250 68 68 155 115 250 134 95 19 193 9 282-28 90-37 166-100 220-180 53-80 82-175 82-272 0-129-52-253-143-345-92-92-216-143-346-143z m0 909c-83 0-164-25-233-71-69-46-123-112-155-189-32-77-40-161-24-243 16-81 56-156 115-215 59-59 134-99 215-115 82-16 166-8 243 24 77 32 143 86 189 155 46 69 71 150 71 233 0 112-45 219-123 298-79 78-186 123-298 123z m-68-591c-9 0-17 4-24 10l-113 114c-6 6-10 15-10 23 1 9 4 18 10 24 7 6 15 10 24 10 9 0 17-3 24-9l91-89 227 247c6 5 14 8 23 8 8 0 16-3 22-9 6-5 10-13 11-21 1-8-1-17-6-23l-250-273c-3-4-7-6-11-8-4-2-9-3-13-3l-5-1z" horiz-adv-x="1000" />

<glyph glyph-name="f-clock" unicode="&#xe8f3;" d="M489-127c-97 0-191 28-272 82-80 54-143 130-180 219-37 90-47 188-28 283 19 95 66 182 134 250 69 68 156 115 250 134 95 19 193 9 283-28 89-37 165-100 219-180 54-80 82-175 82-272 0-129-51-253-143-345-92-92-216-143-345-143z m0 909c-83 0-165-25-234-71-69-46-123-112-155-189-32-77-40-161-24-243 17-81 57-156 115-215 59-59 134-99 216-115 81-16 166-8 243 24 76 32 142 86 188 155 46 69 71 150 71 233 0 112-44 219-123 298-79 78-186 123-297 123z m182-546c-6 0-11 2-15 4l-182 91c-6 3-11 7-14 12-4 6-5 12-5 18v273c0 9 3 18 10 24 6 7 15 10 24 10 9 0 17-3 24-10 6-6 10-15 10-24v-252l163-81c4-2 7-5 10-8 3-3 5-7 7-12 1-4 2-8 1-13 0-4-1-9-3-12-3-6-7-11-13-14-5-4-11-6-17-6z" horiz-adv-x="1000" />

<glyph glyph-name="f-comment" unicode="&#xe8f4;" d="M193-127c-20 0-40 1-60 5-6 1-11 4-15 8-5 3-8 8-10 14-2 6-3 11-2 17 1 6 4 12 7 16 22 26 36 58 43 91 0 7-1 13-4 19-2 6-6 11-11 15-42 43-76 93-99 148-23 56-34 115-34 175 3 127 56 248 147 336 92 87 214 135 341 133 127 2 250-46 342-133 91-88 144-209 147-336-3-127-56-248-147-335-92-88-215-136-342-134-31 0-63 3-94 9l-28 4-26-14c-48-25-101-38-155-38z m303 909c-108 2-214-39-293-114-78-75-124-178-127-287 1-102 41-200 114-273 12-12 22-26 28-43 6-16 7-34 5-51-5-26-13-50-24-73 41 1 81 11 117 31 15 9 31 17 49 21 18 1 35-1 52-7 27-5 54-7 81-7 54-1 107 8 158 28 50 19 96 48 135 86 39 37 70 82 92 131 21 50 33 103 34 157-3 109-49 212-128 287-78 75-184 116-293 114z m182-466c-12 0-23 5-32 13-8 9-13 20-13 32 0 12 5 24 13 33 9 8 20 13 32 13 12 0 24-5 32-13 9-9 14-21 14-33 0-12-5-23-14-32-8-8-20-13-32-13z m-182 0c-12 0-23 5-32 13-8 9-13 20-13 32 0 12 5 24 13 33 9 8 20 13 32 13 12 0 24-5 33-13 8-9 13-21 13-33 0-12-5-23-13-32-9-8-21-13-33-13z m-181 0c-12 0-24 5-33 13-8 9-13 20-13 32 0 12 5 24 13 33 9 8 21 13 33 13 12 0 23-5 32-13 8-9 13-21 13-33 0-12-5-23-13-32-9-8-20-13-32-13z" horiz-adv-x="1000" />

<glyph glyph-name="f-corner-left-up" unicode="&#xe8f5;" d="M618 489c-5 0-10 1-15 3-6 2-10 5-14 9l-248 248-249-248c-8-7-18-11-29-11-11 0-21 5-29 12-7 8-12 18-12 29 0 11 4 21 11 29l278 278c8 8 19 12 30 12 11 0 21-4 29-12l278-278c8-8 12-18 12-29 0-11-4-22-12-30-4-4-9-7-14-9-5-2-10-3-16-3z m334-611h-389c-70 0-137 28-187 77-49 50-77 117-77 187v666c0 11 4 22 12 30 8 8 19 12 30 12 11 0 21-4 29-12 8-8 12-19 12-30v-666c0-24 5-48 14-69 9-22 22-42 39-59 17-17 37-30 59-39 22-9 45-14 69-14h389c11 0 21-4 29-12 8-8 12-19 12-30 0-11-4-21-12-29-8-8-18-12-29-12z" horiz-adv-x="1000" />

<glyph glyph-name="f-credit-card" unicode="&#xe8f6;" d="M1153-122h-1000c-41 0-80 16-108 44-29 29-45 68-45 109l0 666c0 41 16 80 45 108 28 29 67 45 108 45l1000 0c40 0 79-16 108-45 29-28 45-67 45-108v-666c0-41-16-80-45-109-29-28-68-44-108-44z m-1000 889c-19 0-36-8-49-21-13-13-21-30-21-49v-666c0-19 8-37 21-50 13-13 30-20 49-20h1000c18 0 36 7 49 20 13 13 20 31 20 50v666c0 19-7 36-20 49-13 13-31 21-49 21h-1000z m1111-334h-1222c-11 0-22 5-30 13-8 7-12 18-12 29 0 11 4 22 12 30 8 7 19 12 30 12h1222c11 0 22-5 29-12 8-8 13-19 13-30 0-11-5-22-13-29-7-8-18-13-29-13z" horiz-adv-x="1333" />

<glyph glyph-name="f-cross" unicode="&#xe8f7;" d="M625 191c-4 0-9 1-13 3-4 1-8 4-11 7l-112 112-113-112c-6-6-15-9-23-9-9 0-18 4-24 10-6 6-10 14-10 23 0 9 3 18 9 24l113 112-113 113c-6 6-9 15-9 24 0 8 4 17 10 23 6 6 15 10 24 10 8 0 17-3 23-9l113-112 112 112c6 6 15 9 24 9 9 0 17-4 23-10 7-6 10-15 10-23 0-9-3-18-9-24l-112-113 112-112c7-6 10-15 10-24 0-9-3-18-10-24-3-3-7-6-11-7-4-2-8-3-13-3z m-136-318c-97 0-191 28-272 82-80 54-143 130-180 219-37 90-47 188-28 283 19 95 66 182 134 250 69 68 156 115 250 134 95 19 193 9 283-28 89-37 165-100 219-180 54-80 82-175 82-272 0-129-51-253-143-345-92-92-216-143-345-143z m0 909c-83 0-165-25-234-71-69-46-123-112-155-189-32-77-40-161-24-243 17-81 57-156 115-215 59-59 134-99 216-115 81-16 166-8 243 24 76 32 142 86 188 155 46 69 71 150 71 233 0 112-44 219-123 298-79 78-186 123-297 123z" horiz-adv-x="1000" />

<glyph glyph-name="f-eye" unicode="&#xe8f8;" d="M653-122c-410 0-639 448-648 467-3 6-5 12-5 19 0 7 2 13 5 19 9 19 238 467 648 467 410 0 639-448 648-467 3-6 5-12 5-19 0-7-2-13-5-19-9-19-238-467-648-467z m-564 486c47-82 249-403 564-403 314 0 517 321 564 403-47 82-250 403-564 403-315 0-517-321-564-403z m564-208c-41 0-82 12-116 35-34 23-61 55-77 93-15 38-20 80-12 121 9 40 28 77 58 106 29 29 66 49 106 57 41 8 82 4 121-12 38-15 70-42 93-76 23-35 35-75 35-116 0-55-22-108-61-147-39-39-92-61-147-61z m0 333c-25 0-49-7-70-21-20-14-36-33-46-56-9-23-12-48-7-72 5-25 17-47 34-64 18-18 40-30 64-35 25-4 50-2 73 7 23 10 42 26 56 46 13 21 21 45 21 70 0 33-13 65-37 88-23 24-55 37-88 37z" horiz-adv-x="1333" />

<glyph glyph-name="f-filters" unicode="&#xe8f9;" d="M638-125c-6 0-12 1-17 4l-200 100c-6 3-11 8-15 14-4 6-6 13-6 20v313l-391 463c-5 5-8 12-9 19-1 7 1 14 4 21 3 6 7 11 13 15 6 4 13 6 21 6h1000c7 0 14-2 20-6 6-4 11-9 14-15 3-7 4-14 3-21-1-7-4-14-9-19l-391-463v-414c0-6-2-12-5-18-3-6-7-10-13-14-6-3-13-5-19-5z m-163 161l125-63v367c0 8 3 17 9 24l350 411h-840l350-411c6-7 9-16 9-24l-3-304z" horiz-adv-x="1100" />

<glyph glyph-name="f-flash" unicode="&#xe8fa;" d="M83-150c-7 0-13 2-18 5-6 4-10 10-12 17-2 6-2 13 1 20l169 396h-125c-11 0-21 3-30 7-9 5-17 12-23 21-5 9-8 19-9 29 0 10 2 21 6 30l191 438c5 11 13 20 23 27 10 7 22 10 34 10h321c12 0 24-3 34-9 9-7 17-16 23-26 5-11 7-23 5-35-1-11-6-22-13-32l-169-210h141c13-1 25-4 35-11 10-7 18-17 23-28 5-12 6-24 3-36-2-12-8-24-17-32l-571-572c-6-6-14-9-22-9z m140 500c10 0 20-2 30-7 9-5 17-12 23-20 6-9 10-19 11-30 1-10-1-20-5-30l-107-246 458 458h-142c-12 0-23 3-33 10-10 6-18 15-23 26-5 10-7 22-6 34 2 11 6 22 14 32l166 211h-319l-191-438h124z" horiz-adv-x="708" />

<glyph glyph-name="f-gift-card" unicode="&#xe8fb;" d="M852-127h-727c-9 0-18 3-24 10-6 6-10 15-10 24v454c0 9 4 18 10 25 6 6 15 10 24 10 9 0 18-4 24-10 7-7 10-16 10-25v-420h659v420c0 9 4 18 10 25 7 6 15 10 24 10 9 0 18-4 24-10 7-7 10-16 10-25v-454c0-9-3-18-10-24-6-7-15-10-24-10z m91 454h-909c-9 0-17 4-24 10-6 7-10 15-10 24l0 228c0 9 4 17 10 24 7 6 15 10 24 10h909c9 0 18-4 24-10 7-7 10-15 10-24v-228c0-9-3-17-10-24-6-6-15-10-24-10z m-875 69h841v159h-841v-159z m421-523c-9 0-18 3-24 10-7 6-10 15-10 24v682c0 9 3 17 10 24 6 6 15 10 24 10 9 0 17-4 24-10 6-7 10-15 10-24v-682c0-9-4-18-10-24-7-7-15-10-24-10z m0 682h-205c-39 0-77 15-104 43-28 28-44 65-44 104 0 40 16 77 44 105 27 27 65 43 104 43 185 0 236-244 238-254 1-6 1-11 0-16-2-5-4-9-7-13-3-4-7-7-12-9-4-2-9-3-14-3z m-205 227c-10 0-21-2-30-6-10-4-19-10-26-17-7-8-13-17-17-26-4-10-6-20-6-31 0-10 2-20 6-30 4-10 10-19 17-26 7-7 16-13 26-17 9-4 20-6 30-6h160c-20 58-68 159-160 159z m409-227h-204c-5 0-10 1-15 3-4 2-8 5-12 9-3 4-5 8-7 13-1 5-1 10 0 16 2 10 53 254 238 254 39 0 77-16 104-43 28-28 44-65 44-105 0-39-16-76-44-104-27-28-65-43-104-43h0z m-159 68h159c11 0 21 2 31 6 9 4 18 10 25 17 8 7 14 16 18 26 4 10 6 20 6 30 0 11-2 21-6 31-4 9-10 18-18 26-7 7-16 13-25 17-10 4-20 6-31 6-92 0-139-101-159-159z" horiz-adv-x="1000" />

<glyph glyph-name="f-globe" unicode="&#xe8fc;" d="M496-127c-96 0-191 28-271 82-80 54-143 130-180 219-37 90-47 188-28 283 19 95 66 182 134 250 68 68 155 115 250 134 95 19 193 9 282-28 90-37 166-100 220-180 53-80 82-175 82-272 0-129-52-253-143-345-92-92-216-143-346-143z m0 909c-83 0-164-25-233-71-69-46-123-112-155-189-32-77-40-161-24-243 16-81 56-156 115-215 59-59 134-99 215-115 82-16 166-8 243 24 77 32 143 86 189 155 46 69 71 150 71 233 0 112-45 219-123 298-79 78-186 123-298 123z m455-455h-909c-9 0-18 4-24 10-7 7-10 15-10 24 0 9 3 18 10 25 6 6 15 10 24 10h909c9 0 18-4 24-10 6-7 10-16 10-25 0-9-4-17-10-24-6-6-15-10-24-10z m-455-454c-4 0-9 1-13 3-5 1-8 4-12 8-119 130-187 300-190 477 3 177 71 347 190 478 4 3 8 6 12 8 4 2 9 3 13 3 5 0 10-1 14-3 4-2 8-5 11-8 120-130 188-300 191-477-3-177-71-347-191-478-3-4-7-7-11-8-4-2-9-3-14-3z m0 891c-92-114-144-256-147-403 3-147 55-288 147-402 93 114 145 256 148 403-3 147-55 288-148 402z" horiz-adv-x="1000" />

<glyph glyph-name="f-grid-four" unicode="&#xe8fd;" d="M2188 158h-6c-17 1-34-1-51-7-16-6-31-15-44-26-13-12-23-27-30-42-7-16-11-34-11-51 0-17 4-35 11-51 7-16 17-30 30-42 13-12 28-21 44-26 17-6 34-8 51-7h6c17-1 34 1 51 7 16 5 31 14 44 26 13 12 23 26 30 42 7 16 11 34 11 51 0 17-4 35-11 51-7 15-17 30-30 42-13 11-28 20-44 26-17 6-34 8-51 7z m-693 0h-5c-17 1-35-1-51-7-17-6-32-15-44-26-13-12-23-27-30-42-7-16-11-34-11-51 0-17 4-35 11-51 7-16 17-30 30-42 12-12 27-21 44-26 16-6 34-8 51-7h5c18-1 35 1 52 7 16 5 31 14 44 26 13 12 23 26 30 42 7 16 10 34 10 51 0 17-3 35-10 51-7 15-17 30-30 42-13 11-28 20-44 26-17 6-34 8-52 7z m-665 0h-5c-17 1-34-1-51-7-16-6-31-15-44-26-13-12-23-27-30-42-7-16-11-34-11-51 0-17 4-35 11-51 7-16 17-30 30-42 13-12 28-21 44-26 17-6 34-8 51-7h6c17-1 35 1 51 7 16 5 31 14 44 26 13 12 23 26 30 42 7 16 11 34 11 51 0 17-4 35-11 51-7 15-17 30-30 42-13 11-28 20-44 26-16 6-34 8-51 7h-1z m-642 0h-6c-17 1-34-1-51-7-16-6-31-15-44-26-13-12-23-27-30-42-7-16-11-34-11-51 0-17 4-35 11-51 7-16 17-30 30-42 13-12 28-21 44-26 17-6 34-8 51-7h6c17-1 34 1 51 7 16 5 31 14 44 26 13 12 23 26 30 42 7 16 11 34 11 51 0 17-4 35-11 51-7 15-17 30-30 42-13 11-28 20-44 26-17 6-34 8-51 7z m2000 692h-6c-17 1-34-1-51-7-16-5-31-14-44-26-13-12-23-26-30-42-7-16-11-33-11-51 0-17 4-34 11-50 7-16 17-31 30-42 13-12 28-21 44-27 17-6 34-8 51-6h6c17-2 34 0 51 6 16 6 31 15 44 27 13 11 23 26 30 42 7 16 11 33 11 50 0 18-4 35-11 51-7 16-17 30-30 42-13 12-28 21-44 26-17 6-34 8-51 7z m-693 0h-5c-17 1-35-1-51-7-17-5-32-14-44-26-13-12-23-26-30-42-7-16-11-33-11-51 0-17 4-34 11-50 7-16 17-31 30-42 12-12 27-21 44-27 16-6 34-8 51-6h5c18-2 35 0 52 6 16 6 31 15 44 27 13 11 23 26 30 42 7 16 10 33 10 50 0 18-3 35-10 51-7 16-17 30-30 42-13 12-28 21-44 26-17 6-34 8-52 7z m-665 0h-5c-17 1-34-1-51-7-16-5-31-14-44-26-13-12-23-26-30-42-7-16-11-33-11-51 0-17 4-34 11-50 7-16 17-31 30-42 13-12 28-21 44-27 17-6 34-8 51-6h6c17-2 35 0 51 6 16 6 31 15 44 27 13 11 23 26 30 42 7 16 11 33 11 50 0 18-4 35-11 51-7 16-17 30-30 42-13 12-28 21-44 26-16 6-34 8-51 7h-1z m-642 0h-6c-17 1-34-1-51-7-16-5-31-14-44-26-13-12-23-26-30-42-7-16-11-33-11-51 0-17 4-34 11-50 7-16 17-31 30-42 13-12 28-21 44-27 17-6 34-8 51-6h6c17-2 34 0 51 6 16 6 31 15 44 27 13 11 23 26 30 42 7 16 11 33 11 50 0 18-4 35-11 51-7 16-17 30-30 42-13 12-28 21-44 26-17 6-34 8-51 7z" horiz-adv-x="2385" />

<glyph glyph-name="f-grid-three" unicode="&#xe8fe;" d="M161 158h-6c-17 1-34-1-51-7-16-6-31-15-44-26-13-12-23-27-30-42-7-16-11-34-11-51 0-17 4-35 11-51 7-16 17-30 30-42 13-12 28-21 44-26 17-6 34-8 51-7h6c17-1 35 1 51 7 16 5 32 14 44 26 13 12 23 26 30 42 7 16 11 34 11 51 0 17-4 35-11 51-7 15-17 30-30 42-12 11-28 20-44 26-16 6-34 8-51 7z m642 0h-5c-17 1-34-1-51-7-16-6-31-15-44-26-13-12-23-27-30-42-7-16-11-34-11-51 0-17 4-35 11-51 7-16 17-30 30-42 13-12 28-21 44-26 17-6 34-8 51-7h6c17-1 35 1 51 7 16 5 32 14 44 26 13 12 23 26 30 42 7 16 11 34 11 51 0 17-4 35-11 51-7 15-17 30-30 42-12 11-28 20-44 26-16 6-34 8-51 7h-1z m666 0h-6c-17 1-35-1-51-7-17-6-32-15-44-26-13-12-23-27-30-42-7-16-11-34-11-51 0-17 4-35 11-51 7-16 17-30 30-42 12-12 27-21 44-26 16-6 34-8 51-7h6c17-1 34 1 51 7 16 5 31 14 44 26 13 12 23 26 30 42 7 16 11 34 11 51 0 17-4 35-11 51-7 15-17 30-30 42-13 11-28 20-44 26-17 6-34 8-51 7z m0 692h-6c-17 1-35-1-51-7-17-5-32-14-44-26-13-12-23-26-30-42-7-16-11-33-11-51 0-17 4-34 11-50 7-16 17-31 30-42 12-12 27-21 44-27 16-6 34-8 51-6h6c17-2 34 0 51 6 16 6 31 15 44 27 13 11 23 26 30 42 7 16 11 33 11 50 0 18-4 35-11 51-7 16-17 30-30 42-13 12-28 21-44 26-17 6-34 8-51 7z m-666 0h-5c-17 1-34-1-51-7-16-5-31-14-44-26-13-12-23-26-30-42-7-16-11-33-11-51 0-17 4-34 11-50 7-16 17-31 30-42 13-12 28-21 44-27 17-6 34-8 51-6h6c17-2 35 0 51 6 16 6 32 15 44 27 13 11 23 26 30 42 7 16 11 33 11 50 0 18-4 35-11 51-7 16-17 30-30 42-12 12-28 21-44 26-16 6-34 8-51 7h-1z m-642 0h-6c-17 1-34-1-51-7-16-5-31-14-44-26-13-12-23-26-30-42-7-16-11-33-11-51 0-17 4-34 11-50 7-16 17-31 30-42 13-12 28-21 44-27 17-6 34-8 51-6h6c17-2 35 0 51 6 16 6 32 15 44 27 13 11 23 26 30 42 7 16 11 33 11 50 0 18-4 35-11 51-7 16-17 30-30 42-12 12-28 21-44 26-16 6-34 8-51 7z" horiz-adv-x="1615" />

<glyph glyph-name="f-grid-two" unicode="&#xe8ff;" d="M184 158h-5c-18 1-35-1-52-7-16-6-31-15-44-26-13-12-23-27-30-42-7-16-10-34-10-51 0-17 3-35 10-51 7-16 17-30 30-42 13-12 28-21 44-26 17-6 34-8 52-7h5c17-1 35 1 51 7 17 5 32 14 44 26 13 12 23 26 30 42 7 16 11 34 11 51 0 17-4 35-11 51-7 15-17 30-30 42-12 11-27 20-44 26-16 6-34 8-51 7z m642 0h-4c-18 1-35-1-52-7-16-6-31-15-44-26-13-12-23-27-30-42-7-16-10-34-10-51 0-17 3-35 10-51 7-16 17-30 30-42 13-12 28-21 44-26 17-6 34-8 52-7h5c17-1 35 1 51 7 17 5 32 14 44 26 13 12 23 26 30 42 7 16 11 34 11 51 0 17-4 35-11 51-7 15-17 30-30 42-12 11-27 20-44 26-16 6-34 8-51 7h-1z m0 692h-4c-18 1-35-1-52-7-16-5-31-14-44-26-13-12-23-26-30-42-7-16-10-33-10-51 0-17 3-34 10-50 7-16 17-31 30-42 13-12 28-21 44-27 17-6 34-8 52-6h5c17-2 35 0 51 6 17 6 32 15 44 27 13 11 23 26 30 42 7 16 11 33 11 50 0 18-4 35-11 51-7 16-17 30-30 42-12 12-27 21-44 26-16 6-34 8-51 7h-1z m-642 0h-5c-18 1-35-1-52-7-16-5-31-14-44-26-13-12-23-26-30-42-7-16-10-33-10-51 0-17 3-34 10-50 7-16 17-31 30-42 13-12 28-21 44-27 17-6 34-8 52-6h5c17-2 35 0 51 6 17 6 32 15 44 27 13 11 23 26 30 42 7 16 11 33 11 50 0 18-4 35-11 51-7 16-17 30-30 42-12 12-27 21-44 26-16 6-34 8-51 7z" horiz-adv-x="1000" />

<glyph glyph-name="f-hart" unicode="&#xe900;" d="M560-137c-5 0-10 1-14 3-5 2-9 5-12 8l-442 443c-59 58-92 138-92 221 0 82 33 162 92 221 58 58 138 91 221 91 82 0 162-33 221-91l26-27 27 27c58 58 138 91 221 91 82 0 162-33 221-91 29-29 52-63 68-100 31-77 31-163 0-239-16-38-39-72-68-100l-442-443c-4-4-8-7-12-9-5-3-10-4-15-5z m-247 912c-47 0-93-14-132-40-40-26-70-63-88-107-18-43-23-91-13-137 9-46 31-88 65-121l415-416 416 416c44 44 69 105 69 168 0 63-25 123-69 168-45 44-105 69-168 69-63 0-124-25-168-69l-53-56c-7-7-17-11-27-11-10 0-19 4-26 11l-53 56c-22 22-49 39-77 51-29 12-60 18-91 18z" horiz-adv-x="1150" />

<glyph glyph-name="f-home" unicode="&#xe901;" d="M792-127h-636c-34 0-65 13-89 37-23 23-36 55-36 88l0 500c0 5 1 10 3 15 2 4 6 8 10 12l409 318c6 4 13 7 21 7 7 0 15-3 21-7l409-318c4-4 7-8 9-12 3-5 4-10 4-15v-500c0-33-14-65-37-88-23-24-55-37-88-37z m-693 608v-483c0-15 6-30 16-40 11-11 25-17 41-17h636c15 0 29 6 40 17 11 10 17 25 17 40v483l-375 292-375-292z m511-608c-9 0-18 3-24 10-6 6-10 15-10 24v420h-205v-420c0-9-3-18-10-24-6-7-15-10-24-10-9 0-17 3-24 10-6 6-10 15-10 24v454c0 9 4 18 10 24 7 7 15 10 24 11h273c9-1 18-4 24-11 6-6 10-15 10-24v-454c0-9-4-18-10-24-6-7-15-10-24-10z" horiz-adv-x="955" />

<glyph glyph-name="f-list" unicode="&#xe902;" d="M494 10c0 17 3 33 10 48 6 16 15 30 27 41 11 12 25 21 40 28 16 6 32 9 48 9h1682c17 0 33-3 48-9 16-7 29-16 41-28 12-11 21-25 28-41 6-15 9-31 9-48 0-17-3-33-9-48-7-16-16-30-28-41-24-24-56-37-89-37h-1682c-33 0-65 14-88 37-12 12-21 26-27 41-7 15-10 31-10 48z m-452 0c0 17 3 33 10 48 6 16 16 30 27 41 12 12 26 21 41 28 16 6 32 9 49 9h5c17 0 33-3 48-9 16-7 29-16 41-28 12-11 21-25 28-41 6-15 9-31 9-48 0-17-3-33-9-48-7-16-16-30-28-41-24-24-56-37-89-37h-5c-34 0-66 13-90 37-11 11-21 25-27 41-6 15-10 31-10 48z m452 713c0 17 3 34 10 50 6 15 15 28 26 39 12 12 26 22 41 28 15 6 32 10 48 10h1682c17 1 33-1 49-7 17-6 31-15 44-27 14-12 25-26 33-43 7-16 11-33 11-50 0-17-4-34-11-50-7-16-17-30-30-41-12-13-27-22-44-27-16-6-34-8-51-7h-1683c-33 0-65 13-88 37-12 11-21 25-27 40-7 15-10 32-10 48z m-452 0c0 17 3 34 10 50 6 15 16 29 27 40 12 12 25 21 40 27 16 7 33 10 50 10h5c17 1 35-1 52-6 17-6 34-15 47-28 12-12 21-27 26-43 7-16 11-33 11-51 0-17-4-34-11-50-6-15-15-29-26-40-12-13-27-22-44-27-16-6-34-8-51-7h-9c-17 0-34 3-50 10-15 6-29 15-40 27-12 11-21 25-27 40-7 15-10 32-10 48z" horiz-adv-x="2462" />

<glyph glyph-name="f-mail" unicode="&#xe903;" d="M1079-122h-889c-40 0-79 16-108 44-29 29-45 68-45 109v666c0 41 16 80 45 108 29 29 68 45 108 45l889 0c40 0 79-16 108-45 29-28 45-67 45-108v-666c0-41-16-80-45-109-29-28-68-44-108-44z m-889 889c-18 0-36-8-49-21-13-13-20-30-20-49v-666c0-19 7-37 20-50 13-13 31-20 49-20h889c18 0 36 7 49 20 13 13 20 31 20 50v666c0 19-7 36-20 49-13 13-31 21-49 21h-889z m444-500c-8 0-16 3-23 7l-556 389c-8 7-14 16-16 26-2 11 0 21 6 30 6 8 16 14 26 16 10 2 21 0 30-6l531-372 532 372c9 5 20 7 30 4 10-2 19-8 25-16 5-9 8-19 7-29-1-11-6-20-14-27l-556-389c-6-3-14-5-22-5z" horiz-adv-x="1278" />

<glyph glyph-name="f-map" unicode="&#xe904;" d="M406-129c-6 0-12 2-17 5-14 11-389 263-389 568 0 108 43 211 119 287 76 76 180 119 287 119 108 0 211-43 287-119 77-76 119-179 120-287 0-305-373-557-389-568-5-3-11-5-18-5z m0 917c-91-1-178-37-243-101-64-65-100-152-100-243 0-237 270-451 343-504 72 53 344 267 344 504 0 91-36 178-101 243-64 64-152 100-243 101z m0-500c-31 0-61 9-87 26-25 17-45 41-57 70-12 29-15 60-9 90 6 31 21 58 43 80 22 22 50 37 80 43 30 6 62 3 90-9 29-12 53-32 70-57 17-26 27-56 27-87 0-42-17-81-46-111-30-29-69-45-111-45z m0 250c-18 0-36-6-52-16-15-11-27-25-34-42-7-17-9-36-6-54 4-19 13-35 26-48 13-14 30-23 48-26 18-4 37-2 54 5 17 7 32 19 42 35 11 15 16 33 16 52 0 25-10 49-27 66-18 18-42 28-67 28z" horiz-adv-x="833" />

<glyph glyph-name="f-minus" unicode="&#xe905;" d="M943 313h-875c-14 0-26 5-36 14-9 10-14 22-14 36 0 13 5 26 14 35 10 9 22 15 36 15h875c13 0 26-6 35-15 9-9 15-22 15-35 0-14-6-26-15-36-9-9-22-14-35-14z" horiz-adv-x="1000" />

<glyph glyph-name="f-moon" unicode="&#xe906;" d="M500-140c-127-1-249 48-341 135-92 87-147 207-153 334-6 127 38 251 122 346 84 95 201 154 328 165 6 0 12-1 17-4 5-3 10-7 13-12 3-5 4-12 4-18 0-6-3-12-6-16-47-63-69-141-64-218 6-78 40-152 95-207 55-55 129-89 207-95 77-5 155 17 218 64 4 3 10 6 16 6 6 0 13-1 18-4 5-3 9-8 12-13 3-5 4-11 4-17-9-93-44-182-101-255-57-74-134-130-221-162-54-19-111-29-168-29z m-103 907c-56-15-108-41-153-76-46-36-83-80-111-130-28-50-46-106-52-163-6-57 0-115 17-170 16-55 44-106 81-150 37-44 83-80 134-106 51-26 107-42 164-46 58-4 115 4 170 23 66 24 125 63 172 115 47 52 80 115 98 183-57-28-120-42-184-40-63 3-125 20-180 52-55 31-102 76-136 130-33 54-54 115-58 178-6 69 7 138 38 200z" horiz-adv-x="1000" />

<glyph glyph-name="f-natural-food" unicode="&#xe907;" d="M219 325h-23c-26 4-52 13-75 26-22 13-42 31-58 52-17 22-29 46-35 72-7 26-9 52-5 78 10 76 44 146 98 200 54 53 124 88 200 97 6 2 12 2 17 0 7-2 12-7 16-12 5-5 7-10 9-17 1-6 1-12 0-18-13-55-5-112 22-161 23-43 34-91 32-140-6-48-30-93-66-125-36-32-83-51-132-52z m-15 71c17-2 35 0 51 5 17 5 33 13 46 24 27 22 44 54 47 89 0 36-9 72-27 103-24 48-37 100-38 153-50-16-95-46-128-87-33-39-54-87-62-138-4-34 5-69 25-97 11-14 23-26 38-34 15-9 31-15 48-18z m86-454c-7 1-13 3-19 7-6 4-10 10-13 17-77 180-108 378-89 573 0 5 2 9 4 13 2 4 6 7 9 10 4 3 8 5 12 6 5 2 9 2 14 1 9-1 17-5 23-12 5-7 8-16 7-25-18-185 11-371 83-542 2-4 4-9 4-13 0-5-1-10-3-14-1-5-4-9-7-12-4-3-8-6-12-7-4-2-9-2-13-2z m287 0c-19 1-38 3-56 8-31 8-60 23-85 44-25 20-45 46-59 75-29 66-34 140-14 210 19 69 63 129 122 170 80 58 179 84 277 72 98-11 188-58 253-132 3-4 6-9 8-15 1-5 1-11 0-16-1-5-4-11-7-15-4-4-8-7-13-10-81-35-122-113-162-186-27-62-68-116-120-158-42-30-92-46-144-47z m-139 158c9-20 24-38 41-52 17-15 37-26 59-32 25-5 51-5 75 0 25 5 49 15 70 30 41 37 74 82 95 133 34 77 86 143 153 194-182 163-383 35-407 19-46-31-80-77-96-131-15-53-12-110 10-161z m-194-250c-6 0-13 2-18 5-8 4-13 12-16 20-2 9-1 18 3 26 90 163 224 296 387 385 4 2 8 4 13 4 4 1 9 0 13-1 5-2 9-4 12-7 4-3 7-6 9-10 2-4 3-9 4-13 0-5 0-9-2-14-1-4-3-8-6-12-3-3-7-6-11-8-151-83-275-208-358-359-3-5-8-9-13-12-5-3-11-4-17-4z" horiz-adv-x="1042" />

<glyph glyph-name="f-next" unicode="&#xe908;" d="M1444 308h-1333c-17 0-33 7-44 19-12 11-19 27-19 44 0 16 7 32 19 44 11 12 27 18 44 18h1333c17 0 33-6 44-18 12-12 19-28 19-44 0-17-7-33-19-44-11-12-27-19-44-19z m-416-416c-13 0-26 4-37 12-10 8-18 18-22 31-4 12-4 25 0 38 4 12 11 23 22 31 202 150 382 319 391 369-9 45-192 217-391 365-13 9-21 23-24 39-2 15 2 31 11 44 9 12 23 21 39 23 15 3 31-1 44-10 167-121 442-343 442-466 0-124-276-345-441-467-11-6-22-10-34-9z" horiz-adv-x="1583" />

<glyph glyph-name="f-paper-plane" unicode="&#xe909;" d="M475 282c-4 0-9 1-13 2-4 2-8 5-11 8-6 6-10 15-10 24 0 9 4 18 10 24l500 500c6 6 15 9 24 9 9 0 17-4 23-10 6-6 10-14 10-23 0-9-3-18-9-24l-500-500c-3-3-7-6-11-8-4-1-9-2-13-2z m182-409c-7 0-13 2-19 5-5 4-10 9-13 15l-176 397-397 176c-6 3-11 8-15 14-4 5-5 12-5 19 0 7 2 14 6 20 4 6 10 11 17 13l909 318c6 2 12 2 19 1 6-2 12-5 16-9 5-5 8-10 9-17 2-6 1-12-1-19l-318-909c-2-6-6-12-12-16-5-4-12-6-19-7l-1-1z m-499 621l331-147c7-3 14-10 17-17l147-331 267 760-762-265z" horiz-adv-x="1045" />

<glyph glyph-name="f-percent" unicode="&#xe90a;" d="M125-67c-5 0-11 1-16 3-5 3-10 6-13 9-8 8-13 19-13 30 0 11 5 22 13 29l777 778c8 8 19 12 29 11 11 0 22-4 29-12 8-7 12-18 12-28 1-11-3-22-11-30l-778-778c-3-3-8-6-13-9-5-2-11-3-16-3z m83 556c-35 0-70 11-100 30-30 20-53 48-66 81-14 33-18 70-11 105 7 35 24 67 50 92 25 25 57 43 92 50 35 7 71 3 104-11 33-13 62-37 82-66 19-30 30-65 30-101 0-47-19-93-53-127-34-34-80-53-128-53z m0 278c-19 0-38-6-54-17-16-10-28-26-35-43-8-18-10-38-6-56 4-19 13-37 27-50 13-14 31-23 49-27 19-4 39-2 57 6 17 7 33 19 43 35 11 16 17 35 17 54-1 26-11 51-29 69-18 18-43 29-69 29z m611-889c-35 0-70 10-100 30-30 20-53 48-66 81-14 33-18 70-11 105 7 35 25 67 50 92 25 25 57 42 92 49 35 7 72 4 105-10 33-13 61-37 81-66 19-30 30-65 30-101 0-47-19-93-53-127-34-34-80-53-128-53z m0 278c-19 0-38-6-54-17-16-10-28-26-35-43-8-18-10-38-6-57 4-18 13-36 27-49 13-14 31-23 50-27 18-4 38-2 56 5 17 8 33 20 43 36 11 16 17 35 17 54 0 26-11 51-29 69-18 18-43 28-69 29z" horiz-adv-x="1000" />

<glyph glyph-name="f-phone-call" unicode="&#xe90b;" d="M810-125h-10c-140 15-274 62-392 139-108 69-200 162-269 271-76 118-124 252-139 391-1 17 1 33 6 49 5 16 14 31 25 44 12 12 25 22 40 29 16 6 32 9 49 9h130c29 0 57-10 79-29 22-19 36-46 40-74 5-40 15-78 29-115 8-21 10-44 5-67-5-22-16-43-32-59l-37-37c54-88 127-161 214-215l38 37c16 17 36 28 59 32 22 5 45 3 67-5 37-14 75-24 114-29 29-4 56-19 75-41 19-23 29-51 28-80v-131c0-16-3-33-10-48-7-15-16-29-29-40-12-11-27-20-43-25-12-4-24-6-37-6z m-559 866h-131c-7 0-15-1-22-4-6-3-13-8-18-13-5-6-9-12-11-20-2-7-3-14-2-22 14-129 59-253 130-362 63-101 148-187 248-253 108-71 232-115 361-130 7-1 15 0 22 3 7 2 14 6 19 11 6 5 10 11 13 18 3 7 5 15 5 22v131c0 13-4 26-13 36-9 10-21 17-34 19-45 6-89 16-131 32-9 4-20 4-30 2-11-2-20-7-27-14l-55-55c-5-5-12-9-19-10-7 0-14 1-20 5-114 66-208 162-272 278-3 6-5 14-4 21 1 7 5 13 10 18l55 54c7 8 12 17 14 27 3 10 3 21 0 31-16 42-26 86-32 130-3 13-9 25-20 33-10 9-23 13-36 12z m516-304c-8 0-15 3-21 8-6 4-10 11-11 19-7 36-25 69-51 95-26 26-59 43-95 50-9 2-17 7-22 14-5 8-7 17-5 26 1 9 6 17 14 22 7 5 16 7 25 5 49-9 94-33 129-68 36-36 59-81 69-130 1-8 0-17-5-24-5-7-12-12-21-14l-6-3z m174 0c-8 0-16 3-22 8-6 6-10 13-11 21-8 81-44 157-102 215-58 58-133 95-215 104-8 1-16 5-21 12-6 7-8 15-7 24 1 9 5 16 12 22 6 5 15 8 24 7 95-11 184-54 252-122 68-68 111-157 122-252 1-5 0-9-1-13-1-4-3-8-6-11-2-3-6-6-10-8-3-2-7-4-12-4l-3-3z" horiz-adv-x="1000" />

<glyph glyph-name="f-pie-chart" unicode="&#xe90c;" d="M498-127c-48 1-96 8-141 22-77 23-147 65-203 121-57 56-99 125-123 202-24 76-29 157-14 235 14 79 48 153 98 215 50 62 114 110 187 142 4 1 9 2 13 2 5 1 9 0 13-2 5-2 8-4 12-7 3-3 5-7 7-11 2-4 3-9 3-13 0-5-1-9-2-13-2-4-4-8-8-12-3-3-6-5-10-7-64-27-119-70-162-124-43-53-71-117-84-184-13-68-8-137 12-203 21-66 57-125 106-173 49-48 109-84 175-104 66-20 135-23 203-10 66 14 129 43 181 87 53 43 95 99 122 162 2 4 4 8 7 12 3 3 7 6 11 8 5 2 9 3 14 3 5 0 9-1 14-3 4-2 8-4 11-8 3-3 6-7 7-12 2-4 3-9 2-13 0-5-1-9-3-14-31-73-80-138-142-188-62-51-135-85-213-101-31-6-62-9-93-9z m454 454h-454c-9 0-18 4-24 10-7 7-10 15-10 24v455c0 9 3 18 10 24 6 6 15 10 24 10 64 0 127-13 187-37 59-25 113-61 158-106 46-46 82-99 106-159 25-59 37-122 37-187 0-9-3-17-10-24-6-6-15-10-24-10z m-420 69h386c-8 99-51 192-122 263-70 71-164 114-264 122v-385z" horiz-adv-x="1000" />

<glyph glyph-name="f-play" unicode="&#xe90d;" d="M73-125c-7 0-13 1-18 4-6 4-11 9-15 14-3 6-5 13-5 19l0 901c0 6 2 13 5 19 4 5 9 10 15 14 5 3 12 5 19 5 7 0 13-2 19-5l700-450c5-4 10-9 13-14 3-6 4-12 4-18 0-6-1-12-4-18-3-5-8-10-13-13l-700-451c-6-4-13-7-20-7z m37 869v-763l593 382-593 381z" horiz-adv-x="850" />

<glyph glyph-name="f-plus" unicode="&#xe90e;" d="M500-150c-17 0-32 7-44 18-12 12-18 28-18 44v876c0 16 6 32 18 44 12 11 27 18 44 18 17 0 33-7 44-18 12-12 19-28 19-44v-876c0-16-7-32-19-44-11-11-27-18-44-18z m438 438h-875c-17 0-33 6-45 18-11 12-18 27-18 44 0 17 7 33 18 44 12 12 28 19 45 19h875c16 0 32-7 44-19 11-11 18-27 18-44 0-17-7-32-18-44-12-12-28-18-44-18z" horiz-adv-x="1000" />

<glyph glyph-name="f-question" unicode="&#xe90f;" d="M511-127c-96 0-191 28-271 82-80 54-143 130-180 219-37 90-47 188-28 283 19 95 66 182 134 250 68 68 155 115 250 134 95 19 193 9 282-28 90-37 166-100 220-180 53-80 82-175 82-272 0-129-52-253-143-345-92-92-216-143-346-143z m0 909c-83 0-164-25-233-71-69-46-123-112-155-189-32-77-40-161-24-243 16-81 56-156 115-215 59-59 134-99 215-115 82-16 166-8 243 24 77 32 143 86 189 155 46 69 71 150 71 233 0 112-45 219-123 298-79 78-186 123-298 123z m-3-500c-9-2-18 1-26 6-7 5-12 13-14 23-1 9 1 18 6 25 6 8 14 13 23 14 0 0 113 40 113 104 0 18-5 35-14 51-10 15-23 28-38 37-16 8-33 13-51 13-18-1-36-5-51-14-21-12-37-32-45-55-3-8-9-15-17-19-8-4-18-5-26-1-9 3-16 9-20 17-4 8-4 18-1 26 13 38 40 70 74 91 35 20 76 28 116 21 39-7 75-27 101-58 26-31 40-70 40-110 0-114-153-167-159-169-4-1-7-2-11-2z m4-182c-9 0-18 4-24 10-7 6-11 15-11 24 0 9 4 18 10 24 7 6 15 10 24 10 9 0 18-3 25-10 6-6 10-15 10-24 0-9-4-18-10-24-7-6-16-10-25-10h1z" horiz-adv-x="1000" />

<glyph glyph-name="f-quote_down" unicode="&#xe910;" d="M264 322c-111 0-175 0-219 45-44 45-45 107-45 219 0 112 0 175 45 219 45 44 107 45 219 45 112 0 174 0 219-45 44-45 45-107 45-219 0-112 0-174-45-219-45-44-107-45-219-45z m0 445c-97 0-141 0-160-21-20-20-21-63-21-160 0-97 0-140 21-160 20-19 63-20 160-20 97 0 140 0 160 20 19 21 20 63 20 160 0 97 0 141-20 160-21 20-63 21-160 21z m-111-889c-11-2-22 1-32 7-9 7-15 17-16 28-2 11 0 22 7 31 7 9 16 15 28 17 89 31 166 90 221 167 55 78 84 170 84 265v249c0 11 4 21 12 29 8 8 18 12 29 12 11 0 22-4 30-12 7-8 12-18 12-29v-249c1-113-33-223-98-315-65-92-157-161-263-198-5-2-9-2-14-2z m778 444c-112 0-175 0-219 45-45 45-45 107-45 219 0 112 0 175 45 219 45 44 106 45 219 45 112 0 174 0 218-45 45-45 45-107 45-219 0-112 0-174-45-219-45-44-106-45-218-45z m0 445c-98 0-141 0-160-21-20-20-21-63-21-160 0-97 0-140 21-160 20-19 62-20 160-20 97 0 140 0 160 20 19 21 20 63 20 160 0 97 0 141-20 160-21 20-63 21-160 21z m-111-889c-12-2-23 1-32 7-9 7-15 17-17 28-2 11 1 22 8 31 6 9 16 15 27 17 90 31 167 90 222 167 54 78 84 170 83 265v249c0 11 5 21 12 29 8 8 19 12 30 12 11 0 22-4 29-12 8-8 13-18 13-29v-249c1-113-34-223-99-315-64-92-156-161-263-198-4-2-9-2-13-2z" horiz-adv-x="1222" />

<glyph glyph-name="f-search" unicode="&#xe911;" d="M438-25c-87 0-172 26-244 74-71 48-128 116-161 196-33 80-42 168-25 253 17 85 59 163 120 224 61 61 139 103 224 120 85 17 173 8 253-25 80-33 148-89 196-161 48-72 74-157 74-243 0-116-46-228-128-310-82-82-193-128-309-128z m0 800c-72 0-142-21-202-61-59-40-106-96-133-163-28-66-35-139-21-209 14-70 49-135 99-186 51-50 116-85 186-99 70-14 143-7 209 21 67 27 123 74 163 133 40 60 61 130 61 202 0 96-38 188-106 256-68 68-160 106-256 106z m500-900c-5 0-10 1-15 3-4 2-9 4-12 8l-217 218c-4 3-7 7-9 12-2 4-3 9-3 14 0 5 0 10 2 15 2 5 5 9 9 12 3 4 7 7 12 9 5 2 10 3 15 2 5 0 10-1 14-3 5-2 9-5 13-8l217-218c7-7 11-17 11-27 0-9-4-19-11-26-3-4-8-6-12-8-5-2-10-3-14-3z" horiz-adv-x="1000" />

<glyph glyph-name="f-quote_up" unicode="&#xe912;" d="M958-122c-111 0-174 0-219 45-44 45-45 106-45 219 0 112 0 174 45 219 45 44 107 45 219 45 113 0 175 0 219-45 45-45 45-107 45-219 0-113 0-175-45-219-45-45-106-45-219-45z m0 444c-97 0-140 0-160-20-19-21-20-63-20-160 0-98 0-141 20-160 21-20 63-21 160-21 98 0 141 0 160 21 20 20 21 62 21 160 0 97 0 140-21 160-20 19-62 20-160 20z m-222-222c-11 0-21 5-29 12-8 8-12 19-13 30v230c2 108 37 213 103 299 65 86 156 149 260 179 11 3 22 2 32-3 10-5 17-14 20-25 4-10 2-22-3-32-5-9-14-17-24-20-87-25-163-77-218-149-55-72-85-159-86-249v-230c0-11-5-22-13-30-7-7-18-12-29-12z m-444-222c-111 0-175 0-219 45-45 45-45 106-45 219 0 112 0 174 45 219 45 44 106 45 219 45 112 0 174 0 219-45 44-45 45-107 45-219 0-113 0-175-45-219-45-45-107-45-219-45z m0 444c-98 0-141 0-160-20-20-21-21-63-21-160 0-98 0-141 21-160 20-20 62-21 160-21 97 0 140 0 160 21 19 20 20 62 20 160 0 97 0 140-20 160-21 19-63 20-160 20z m-223-222c-11 0-21 5-29 12-8 8-12 19-12 30v230c1 108 37 213 102 299 65 86 157 149 261 179 10 3 22 2 31-3 10-5 17-14 21-25 3-10 2-22-3-32-6-9-14-17-25-20-87-25-163-77-218-149-55-72-85-159-86-249v-230c0-11-4-22-12-30-8-7-18-12-30-12z" horiz-adv-x="1222" />

<glyph glyph-name="f-shipment" unicode="&#xe913;" d="M443-127c-55 5-108 22-157 48-190 82-286 123-286 210v424c0 49 46 71 129 110 8 4 17 4 26 1 8-3 15-9 19-17 4-8 5-18 2-26-3-9-10-16-18-20-32-12-62-29-91-48 29-20 59-36 91-49l133-65c154-73 150-73 305 0l131 65c32 13 63 29 91 49-28 19-59 36-91 48-8 4-14 11-17 20-3 8-3 18 1 26 4 8 11 14 20 17 8 3 18 3 26-1 83-39 129-61 129-110v-424c0-87-96-128-286-210-48-26-102-43-157-48z m34 450v-377c33 11 65 23 97 38 147 63 244 105 244 147v344c-17-10-37-19-60-30l-133-64c-47-25-96-45-148-58z m-409 152v-344c0-42 98-84 244-147 32-15 64-27 97-38v377c-51 13-101 33-148 58l-132 64c-23 11-43 20-61 30z m208-250c-5 0-10 1-15 3l-90 43c-9 4-15 11-18 19-3 9-3 18 1 26 4 9 11 15 19 18 9 3 18 3 27-1l91-43c8-4 14-11 17-20 3-8 2-18-2-26-2-6-6-10-12-14-5-3-11-5-18-5z m281 421c-8 0-15 2-21 6-6 6-11 13-12 22-1 8 1 17 6 24l68 91c5 7 13 12 22 13 9 1 18-1 26-6 7-6 12-14 13-23 1-9-1-18-7-25l-68-91c-3-4-7-7-12-9-5-2-10-3-15-2z m-227 0c-6-1-11 1-16 3-4 2-9 6-12 10l-68 91c-3 4-4 8-6 12-1 4-1 9 0 13 0 5 2 9 4 13 2 4 5 7 9 10 4 2 8 4 12 6 4 1 9 1 13 0 5 0 9-2 13-4 4-2 7-5 10-9l68-91c5-7 7-16 5-24-1-8-5-16-12-21-6-6-13-9-20-9z m113 45c-9 0-17 4-24 10-6 6-10 15-10 24v91c0 9 4 18 10 24 7 6 15 10 24 10 9 0 18-4 24-10 7-6 10-15 10-24v-91c0-9-3-18-10-24-6-6-15-10-24-10z" horiz-adv-x="909" />

<glyph glyph-name="f-shopping-bag" unicode="&#xe914;" d="M761-127h-636c-33 0-65 13-88 37-23 23-37 55-37 88v636c0 8 2 15 7 21l136 181c3 5 7 8 12 10 5 3 10 4 16 4h545c5 0 10-1 15-4 5-2 9-5 12-10l137-181c4-6 6-13 6-21v-636c0-33-13-65-36-88-24-24-56-37-89-37z m-693 750v-625c0-15 6-30 17-40 11-11 25-17 40-17h636c15 0 30 6 40 17 11 10 17 25 17 40v625l-119 159h-512l-119-159z m784-23h-818c-9 0-18 4-24 10-6 6-10 15-10 24 0 9 4 18 10 24 6 7 15 10 24 10h818c9 0 18-3 24-10 7-6 10-15 10-24 0-9-3-18-10-24-6-6-15-10-24-10z m-409-364c-57 0-112 23-152 64-41 40-64 95-64 152 0 9 4 18 10 24 7 7 15 10 24 10 9 0 18-3 25-10 6-6 10-15 10-24 0-19 4-39 12-57 8-17 19-34 33-47 28-27 66-42 105-42 38 0 76 15 104 42 27 28 42 65 41 104 0 9 4 18 10 24 6 7 15 10 24 10 9 0 18-3 24-10 7-6 10-15 10-24 0-57-23-112-63-152-41-41-96-64-153-64z" horiz-adv-x="909" />

<glyph glyph-name="f-shuffle" unicode="&#xe915;" d="M888 525c-10 0-20 4-27 11-7 7-11 17-11 27v212h-212c-10 0-20 4-27 11-7 7-11 17-11 27 0 9 4 19 11 26 7 7 17 11 27 11l250 0c9 0 19-4 26-11 7-7 11-17 11-26v-250c0-10-4-20-11-27-7-7-17-11-26-11z m-850-600c-5 0-10 1-15 3-4 2-9 4-12 8-7 7-11 17-11 26 0 10 4 20 11 27l850 850c7 7 17 10 26 10 10 0 19-4 26-11 7-7 11-16 11-26 0-9-3-19-10-26l-850-850c-3-4-8-6-12-8-5-2-10-3-14-3z m850-50h-250c-10 0-20 4-27 11-7 7-11 17-11 26 0 10 4 20 11 27 7 7 17 11 27 11h212v213c0 9 4 19 11 26 7 7 17 11 27 11 9 0 19-4 26-11 7-7 11-17 11-26v-251c0-9-4-19-11-26-7-7-17-11-26-11z m0 0c-5 0-10 1-15 3-4 2-8 4-12 8l-300 300c-7 7-10 17-10 26 0 10 4 19 11 26 7 7 16 11 26 11 10 0 19-3 26-10l300-300c7-7 11-17 11-27 0-9-4-19-11-26-3-4-7-6-12-8-5-2-9-3-14-3z m-600 600c-5 0-10 1-15 3-4 2-8 5-12 8l-250 250c-7 7-10 17-10 26 0 10 4 19 11 26 7 7 16 11 26 11 10 0 19-3 26-10l250-250c7-7 11-17 11-26 0-10-4-20-11-27-3-3-7-6-12-8-5-2-9-3-14-3z" horiz-adv-x="950" />

<glyph glyph-name="f-star" unicode="&#xe916;" d="M510 817c5 10 12 18 22 24 9 6 20 9 31 9 11 0 21-3 31-9 9-6 16-14 21-24l118-235c4-9 10-16 18-22 8-5 17-9 26-11l258-37c11-2 21-6 30-14 8-7 14-16 17-26 4-11 4-22 2-32-3-11-9-21-16-28l-187-182c-7-7-12-15-15-24-3-9-3-19-2-28l44-257c2-11 1-22-3-32-4-10-11-19-20-26-9-6-19-10-30-11-11-1-22 2-32 7l-235 123c-9 4-18 6-28 6-9 0-19-2-27-6l-231-121c-9-6-20-8-32-8-11 1-22 5-31 11-9 7-16 16-20 26-4 11-5 22-3 33l43 256c2 10 2 20-1 29-3 9-8 17-15 24l-186 182c-8 7-13 17-16 28-2 10-2 21 2 32 3 10 9 19 18 26 8 7 18 12 29 14l258 37c9 2 18 5 26 11 8 5 14 13 18 22l118 233z" horiz-adv-x="1118" />

<glyph glyph-name="f-sun" unicode="&#xe917;" d="M500 110c-47 0-94 15-133 41-39 26-70 64-88 107-18 44-23 92-14 139 9 46 32 89 66 122 33 34 76 57 122 66 47 9 95 5 139-14 44-18 81-48 107-88 27-39 41-86 41-133 0-63-26-124-71-169-45-45-105-70-169-71z m0 417c-35 0-69-10-98-30-29-19-52-47-66-79-13-33-16-68-10-102 7-35 24-66 49-91 25-25 56-42 91-49 34-6 69-3 102 10 32 14 60 37 79 66 20 29 30 63 30 98 0 47-19 92-52 125-33 33-78 52-125 52z m0 167c-8 0-16 3-22 9-6 6-9 14-9 22v83c0 9 3 17 9 22 6 6 14 10 22 10 8 0 16-4 22-10 6-5 9-13 9-22v-83c0-8-3-16-9-22-6-6-14-9-22-9z m0-834c-8 0-16 4-22 10-6 5-9 13-9 22v83c0 8 3 16 9 22 6 6 14 9 22 9 8 0 16-3 22-9 6-6 9-14 9-22v-83c0-9-3-17-9-22-6-6-14-10-22-10z m-265 724c-4 0-8 1-12 2-4 2-7 4-10 7l-59 59c-3 3-6 6-7 10-2 4-3 8-3 12 0 5 1 9 2 13 2 4 4 7 7 10 3 3 7 5 10 7 4 2 8 2 13 2 4 0 8-1 12-2 4-2 7-5 10-8l59-59c6-6 9-14 9-22 0-8-3-16-9-22-3-3-6-5-10-7-4-1-8-2-12-2z m589-589c-4 0-8 0-12 2-4 1-7 4-10 7l-59 59c-6 6-9 14-8 22 0 8 3 16 9 21 5 6 13 9 21 10 8 0 16-3 22-9l59-59c6-6 9-14 9-22 0-8-3-16-9-22-3-3-6-6-10-7-4-2-8-2-12-2z m-699 324h-83c-9 0-17 3-22 9-6 6-10 14-10 22 0 8 4 16 10 22 5 6 13 9 22 9h83c8 0 16-3 22-9 6-6 9-14 9-22 0-8-3-16-9-22-6-6-14-9-22-9z m833 0h-83c-8 0-16 3-22 9-6 6-9 14-9 22 0 8 3 16 9 22 6 6 14 9 22 9h83c9 0 17-3 22-9 6-6 10-14 10-22 0-8-4-16-10-22-5-6-13-9-22-9z m-782-324c-4 0-8 0-12 2-4 1-7 4-10 7-6 6-9 14-9 22 0 8 3 16 9 22l59 59c3 3 6 6 10 7 4 2 8 3 12 3 4 0 9-1 13-2 3-2 7-4 10-7 3-3 5-7 7-10 1-4 2-9 2-13 0-4-1-8-3-12-1-4-4-7-7-10l-59-59c-3-3-6-6-10-7-4-2-8-3-12-2z m589 589c-4 0-8 1-12 2-4 2-7 4-10 7-6 6-9 14-9 22 0 8 3 16 9 22l59 59c3 3 6 6 10 8 4 1 8 2 12 2 5 0 9 0 13-2 4-2 7-4 10-7 3-3 5-6 7-10 2-4 2-8 2-13 0-4-1-8-2-12-2-4-5-7-8-10l-59-59c-3-3-6-5-10-7-4-1-8-2-12-2z" horiz-adv-x="1000" />

<glyph glyph-name="f-support-2" unicode="&#xe918;" d="M51 154c-9 0-17 3-23 9-7 6-10 14-11 22l-17 177c-5 62 4 123 24 181 20 58 52 111 94 156 47 49 104 88 168 114 63 26 131 39 199 37 68 2 136-11 199-37 64-26 121-65 168-114 41-45 73-98 93-156 20-58 28-119 23-180l-13-170c-1-5-2-9-4-13-2-4-5-8-8-11-3-3-7-5-12-6-4-2-9-2-13-2-5 1-9 2-13 4-4 2-8 5-10 9-3 3-5 7-7 11-1 5-2 9-1 14l14 169c5 52-2 104-19 153-17 49-44 94-79 132-41 42-91 76-146 98-54 22-113 33-172 31-59 2-118-9-173-31-55-22-104-56-146-98-35-38-61-83-78-132-16-49-23-101-18-153l15-177c0-4 0-9-2-13-1-5-3-9-6-12-3-3-7-6-10-8-4-2-9-4-13-4h-3z m159-262c-41-1-80 13-111 39-31 25-52 61-60 101l-6 33c-11 59-18 118-19 178 1 44 18 86 48 119 30 32 71 52 115 56 44 5 87-6 123-31 35-25 60-63 68-106l6-33c12-58 18-118 19-177 0-45-18-87-48-120-30-32-71-52-115-56-7-2-13-3-20-3z m-12 458h-14c-27-2-52-14-71-33-19-20-30-45-31-72 1-57 7-113 19-169l5-33c6-26 21-49 42-64 22-15 49-22 75-18 27 2 52 14 71 33 19 20 30 45 31 72-1 57-7 113-18 169l-6 33c-5 24-18 45-37 60-19 15-42 22-66 22z m562-458c-7-1-14-1-20 0-44 4-86 24-116 56-30 33-47 75-48 119 2 60 8 119 19 178l6 33c9 43 34 81 69 106 35 25 79 36 122 31 44-4 84-24 114-56 30-32 47-73 49-117-2-59-8-119-20-177l-5-34c-8-39-29-75-60-100-31-26-70-39-110-39z m13 458c-24 0-48-8-67-23-19-15-32-36-36-60l-6-33c-11-56-17-112-19-168 2-28 13-53 31-73 19-19 45-31 72-33 26-3 52 3 74 19 21 15 36 38 42 64l5 33c11 56 17 112 18 169-1 27-12 52-30 72-19 19-45 31-72 33h-12z" horiz-adv-x="1000" />

<glyph glyph-name="f-tag" unicode="&#xe919;" d="M521-134c-17 0-34 3-50 10-15 6-30 16-42 28l-409 409c-7 7-10 16-10 25l0 476c0 10 3 19 10 25 7 7 16 11 25 11h476c10 0 19-4 26-10l409-409c24-25 38-58 38-93 0-34-14-68-38-92l-342-342c-12-12-26-22-42-28-16-7-33-10-51-10z m-440 487l399-398c5-6 12-10 19-13 8-4 16-5 24-5 8 0 16 1 24 5 7 3 14 7 19 13l342 341c11 11 17 26 17 42 0 16-6 31-17 42l-401 399h-426v-426z m203 176c-13 0-25 5-34 14-9 8-14 21-14 33 0 13 5 25 14 34 9 9 21 14 34 14 12 0 25-5 33-14 9-9 14-21 14-34 0-12-5-25-14-33-8-9-21-14-33-14z" horiz-adv-x="1000" />

<glyph glyph-name="f-transport-ship" unicode="&#xe91a;" d="M753 100c-5 0-10 1-14 3-4 2-8 5-11 8-3 3-6 7-7 11-2 5-3 9-2 14 0 4 1 9 3 13l33 74h-85c-9 0-17 4-24 10-6 7-10 15-10 24 0 9 4 18 10 24 7 7 15 10 24 10h116c24 55 37 87 30 108 0 2-1 4-2 6-9 20-41 36-109 64l-130 57c-91 38-83 39-173 0l-129-57c-70-30-101-45-109-64 0-3 0-5 0-7-7-21 6-52 31-107h112c9 0 18-4 24-10 6-6 10-15 10-24 0-9-4-18-10-24-6-7-15-10-24-10h-85l34-75c4-8 4-17 1-26-3-8-10-15-18-19-8-4-18-4-26-1-9 3-16 10-19 18l-55 122c-37 82-58 127-43 174 0 5 3 9 5 14 19 45 64 65 144 100l130 58c35 19 74 31 114 35 40-4 78-16 113-35l130-56c81-35 125-54 145-100 0-5 3-9 5-13 14-46-6-91-43-175l-55-122c-2-6-7-12-12-16-6-4-12-6-19-6z m8 364c-9 0-17 3-24 10-6 6-10 15-10 24v45c0 80 0 115-16 131-17 16-52 17-131 17h-182c-80 0-115 0-131-17-16-17-17-51-17-131v-45c0-9-4-18-10-24-6-7-15-10-24-10-9 0-18 3-24 10-7 6-10 15-10 24v45c0 91 0 143 37 179 37 37 87 37 179 37h182c91 0 142 0 179-37 37-36 37-87 37-179v-45c-1-9-4-18-11-24-6-7-15-10-24-10z m-272 227c-9 0-18 4-24 10-7 6-10 15-10 24v91c0 9 3 18 10 24 6 6 15 10 24 10 9 0 17-4 24-10 6-6 10-15 10-24v-91c0-9-4-18-10-24-7-6-15-10-24-10z m420-818c-37 5-71 24-95 52-21 19-44 40-60 39-16-2-26-16-41-39-7-12-16-22-27-30-11-8-24-13-37-16-20 0-39 5-56 12-18 8-34 20-47 34-22 18-46 39-64 36-19-3-27-15-42-38-6-10-14-20-24-27-10-7-21-12-33-15-20 0-39 3-57 11-18 7-34 18-48 32-24 19-53 39-72 36-20-3-29-21-39-35-7-14-19-27-33-36-14-9-30-14-47-15-17 1-33 6-48 15-14 8-26 21-34 36-4 7-6 16-4 25 2 8 7 16 14 20 8 5 17 6 25 5 9-2 16-7 21-14 9-15 18-21 23-21 4 0 13 6 23 21 9 16 21 30 35 41 15 11 31 19 49 23 23 2 47-2 69-10 22-8 42-20 58-37 17-13 42-31 52-30 0 0 7 4 13 12 9 17 21 32 37 44 15 12 33 20 51 24 23 0 44-4 65-13 20-9 38-22 53-38 16-13 39-33 49-32 8 4 14 10 18 17 8 18 21 33 37 45 16 12 34 20 53 24 22 0 44-5 64-15 19-10 37-24 50-41 46-41 49-38 60-26 6 5 14 8 23 8 8 0 16-3 22-9 6-5 10-13 11-21 1-8-1-17-6-23-7-10-17-17-27-22-11-6-22-9-34-9z" horiz-adv-x="1000" />

<glyph glyph-name="f-truck" unicode="&#xe91b;" d="M798 125h-750c-10 0-20 4-27 11-7 7-11 17-11 27v650c0 9 4 19 11 26 7 7 17 11 27 11h750c9 0 19-4 26-11 7-7 11-17 11-26v-650c0-10-4-20-11-27-7-7-17-11-26-11z m-713 75h675v575h-675v-575z m1063-75h-350c-10 0-20 4-27 11-7 7-11 17-11 27v400c0 9 4 19 11 26 7 7 17 11 27 11h200c9 0 19-4 26-11l150-150c7-7 11-17 11-26v-250c0-10-4-20-11-27-7-7-17-11-26-11z m-313 75h275v197l-128 128h-147v-325z m-562-325c-33 0-64 9-91 27-26 18-47 44-60 73-12 30-15 63-9 94 6 32 22 61 45 83 22 23 51 39 83 45 31 6 64 3 94-9 29-13 55-33 73-60 17-27 27-58 27-90 0-44-17-85-48-115-30-31-71-48-114-48z m0 250c-18 0-35-5-49-15-14-9-26-23-32-39-7-16-9-34-5-51 3-16 11-32 24-44 12-13 27-21 44-24 17-4 35-2 51 5 16 6 30 17 39 32 10 14 15 31 15 49 0 23-9 45-26 61-16 17-38 26-61 26z m650-250c-33 0-64 9-91 27-26 18-47 44-60 73-12 30-15 63-9 94 6 32 22 61 45 83 22 23 51 39 83 45 31 6 64 3 94-9 29-13 55-33 73-60 17-27 27-58 27-90 0-44-17-85-48-115-30-31-71-48-114-48z m0 250c-18 0-35-5-49-15-14-9-26-23-32-39-7-16-9-34-5-51 3-16 11-32 24-44 12-13 27-21 44-24 17-4 35-2 51 5 16 6 30 17 39 32 10 14 15 31 15 49 0 23-9 45-26 61-16 17-38 26-61 26z" horiz-adv-x="1200" />

<glyph glyph-name="f-user" unicode="&#xe91c;" d="M838-125c-10 0-20 4-27 11-7 7-11 17-11 26v101c0 21-4 42-12 62-8 20-20 38-35 53-15 15-33 27-53 35-20 8-41 12-62 12h-400c-22 0-43-4-63-12-19-8-37-20-53-35-15-15-27-33-35-53-8-20-12-41-12-62v-101c0-9-4-19-11-26-7-7-17-11-26-11-10 0-20 4-27 11-7 7-11 17-11 26l0 101c0 63 25 123 70 167 44 45 105 70 168 70h400c63 0 123-25 167-70 45-44 70-104 70-167v-101c0-9-4-19-11-26-7-7-17-11-26-11z m-400 500c-47 0-93 14-132 40-39 26-70 63-88 107-18 43-23 91-13 137 9 46 31 88 65 121 33 34 75 56 121 65 46 10 94 5 137-13 44-18 81-48 107-88 26-39 40-84 40-131 0-63-25-124-70-168-44-45-104-70-167-70z m0 400c-33 0-64-9-91-27-26-18-47-44-60-73-12-30-15-63-9-94 6-32 22-61 45-83 22-23 51-39 83-45 31-6 64-3 94 9 29 13 55 34 73 60 18 27 27 58 27 91 0 43-17 84-48 114-30 31-71 48-114 48z" horiz-adv-x="900" />

<glyph glyph-name="f-users" unicode="&#xe91d;" d="M1099 92c-8-1-15 1-21 5-7 4-12 10-15 16-4 10-5 20-1 30 3 10 10 18 20 23 8 3 16 9 22 17 6 7 10 16 12 25 0 7-2 14-6 21-4 6-9 11-16 14-48 32-101 53-158 63-9 3-17 9-23 17-5 9-7 19-5 29 2 9 7 18 15 24 8 6 18 9 28 8 66-12 130-38 186-75 18-11 33-26 42-45 10-18 15-39 14-60-2-23-11-45-25-63-14-19-32-33-53-43-5-3-11-5-16-6z m-130 379c-6 0-12 1-18 4-6 3-10 7-14 12-3 4-5 9-6 14-2 5-2 10-1 15 1 6 3 11 6 15 2 4 6 8 10 11 16 13 28 29 35 47 8 19 10 39 8 58 2 17 0 34-5 51-6 16-15 30-27 42-12 12-27 21-43 26-16 6-33 7-50 5h-15c-5 0-10 0-15 2-5 2-10 4-14 8-4 3-7 7-9 12-2 5-4 10-4 15-1 10 3 21 10 29 7 7 16 12 27 13h20c27 3 55-1 81-10 26-10 49-24 69-44 19-20 34-43 44-69 9-26 13-54 10-81 2-32-3-65-16-94-14-29-34-55-60-75-7-4-15-6-23-6z m-132-621h-453c-37-1-74 9-105 30-31 21-54 51-66 86-9 28-7 59 4 86 11 28 31 51 56 66 100 67 217 102 337 102 120 0 237-35 337-102 26-15 46-38 57-66 11-27 12-58 4-87-13-35-36-65-67-85-30-21-67-31-104-30z m-226 291c-105 0-207-31-294-89-11-5-21-15-26-27-5-11-6-25-2-37 8-19 21-35 39-45 17-11 37-16 57-15h453c21-1 40 4 58 15 17 11 30 26 38 45 4 12 3 26-2 38-6 11-15 21-27 26-87 58-190 89-294 89z m0 130c-34-3-67 1-99 13-31 11-59 29-83 53-23 24-41 52-52 84-11 31-15 65-12 98-3 33 1 66 13 97 11 32 29 60 52 83 24 24 52 42 83 53 31 11 65 15 98 12 33 3 66-1 97-12 31-11 59-29 83-53 23-23 41-51 52-83 12-31 16-64 13-97 3-33-1-67-12-98-11-32-29-60-52-84-24-24-52-42-83-53-32-12-65-16-98-13z m0 412c-23 3-45 0-67-7-21-7-41-19-57-35-16-15-28-35-35-56-8-21-10-44-8-66 0-111 57-166 167-166 110 0 166 55 166 166 0 111-56 166-166 166v-2z m-489-591c-6 0-11 1-17 4-21 9-39 24-53 42-14 18-22 40-25 63-1 21 4 42 14 60 10 19 24 34 42 45 56 39 120 66 187 79 5 1 10 2 16 1 5-1 11-3 15-6 5-3 9-7 12-11 3-5 5-10 6-15 1-6 1-11-1-17-1-5-3-10-7-14-3-5-7-8-12-11-5-3-10-4-16-5-56-10-110-31-158-63-6-3-12-8-15-14-4-7-6-14-6-21 1-9 5-18 11-25 6-8 14-13 22-17 5-2 9-5 13-9 4-4 6-9 8-13 2-5 3-11 2-16 0-5-1-10-4-15-3-6-8-12-14-16-6-4-13-6-20-6z m130 379c-8-1-16 2-23 6-26 20-46 46-59 75-14 29-19 62-17 94-2 27 1 55 10 81 10 26 25 49 44 69 20 20 43 34 69 44 26 9 54 13 81 10h20c11-1 21-6 27-13 7-8 11-19 10-29-1-10-5-20-13-27-8-7-18-10-29-10h-15c-17 2-34 1-50-5-16-5-31-14-43-26-12-13-22-27-27-44-6-16-7-33-5-50-2-20 1-40 8-58 7-19 19-35 35-47 8-6 14-15 15-25 2-10 0-21-6-29-4-5-8-9-14-12-6-3-12-4-18-4z" horiz-adv-x="1211" />

<glyph glyph-name="instagram-1" unicode="&#xe91e;" d="M739-127h-455c-69 0-136 27-185 76-49 49-76 116-76 185l0 455c0 69 27 135 76 184 49 49 116 77 185 77l455 0c69 0 135-28 184-77 49-49 77-115 77-184v-455c0-69-28-136-77-185-49-49-115-76-184-76z m-455 909c-51 0-100-21-136-57-37-36-57-85-57-136v-455c0-51 20-100 57-136 36-37 85-57 136-57h455c51 0 100 20 136 57 36 36 57 85 57 136v455c0 51-21 100-57 136-36 36-85 57-136 57h-455z m230-635c-13 0-25 1-37 3-33 6-65 19-92 39-27 20-49 46-65 77-15 30-23 63-23 97 0 34 8 67 23 98 21 40 54 73 94 94 41 21 87 29 132 22 46-7 88-29 120-61 33-33 54-75 61-120 7-46-1-92-22-132-19-35-46-64-80-85-34-21-72-32-112-32h1z m0 364c-24 0-47-6-68-16-28-15-50-37-64-65-14-28-19-59-14-90 5-31 20-59 42-81 22-22 50-36 80-42 23-3 47-1 69 6 22 7 42 20 58 36 16 16 29 36 36 58 7 22 9 45 6 68-5 31-19 60-42 83-22 22-51 37-82 42-8 0-15 1-22 1h1z m248 66c-9 0-18 4-24 10-6 7-10 15-10 24 0 9 3 18 10 24 6 7 14 10 23 11 9 0 18-4 25-10 6-7 9-16 9-25 0-9-3-17-9-24-7-6-16-10-25-10h1z" horiz-adv-x="1000" />

<glyph glyph-name="linkedin-1" unicode="&#xe91f;" d="M988-126h-190c-10 0-19 4-25 10-7 7-11 16-11 25v334c0 8-2 15-5 23-3 7-7 13-13 19-11 11-26 17-42 17-15 0-30-6-41-17-6-6-11-12-14-19-3-8-4-15-4-23v-334c0-9-4-18-11-25-6-6-15-10-25-10h-190c-10 0-19 4-25 10-7 7-11 16-11 25v334c0 85 34 167 94 227 60 60 142 94 227 94 86 0 167-34 228-94 60-60 94-142 94-227v-334c0-9-4-18-11-25-6-6-15-10-25-10z m-155 71h119v298c0 66-26 130-73 177-47 47-110 73-177 73-66 0-129-26-176-73-47-47-74-111-74-177v-298h119v298c0 17 4 34 11 50 6 16 16 30 28 42 25 24 58 37 92 37 35 0 68-13 93-37 12-12 22-26 28-42 7-16 10-33 10-50v-298z m-607-71h-190c-10 0-19 4-25 10-7 7-11 16-11 25l0 572c0 9 4 18 11 25 6 7 15 11 25 11h190c10 0 19-4 25-11 7-7 11-16 11-25v-572c0-9-4-18-11-25-6-6-15-10-25-10z m-155 71h120v500h-120v-500z m60 643c-26 0-51 8-73 22-21 15-38 35-48 59-10 24-13 50-7 76 5 25 17 48 35 67 19 18 42 30 67 36 26 5 52 2 76-8 24-10 44-27 59-48 14-22 22-47 22-73 0-35-14-68-38-92-25-25-58-39-93-39z m0 191c-12 0-23-4-33-10-10-7-17-16-22-27-4-11-6-23-3-35 2-11 8-22 16-30 8-8 19-14 30-16 12-3 24-1 35 3 11 5 20 12 26 22 7 10 11 21 11 33 0 16-7 31-18 42-11 11-26 18-42 18z" horiz-adv-x="1048" />

<glyph glyph-name="pinterest-1" unicode="&#xe920;" d="M432 850c-205 0-408-137-408-359 0-142 79-221 127-221 20 0 31 55 31 71 0 15-47 59-47 135-1 37 6 74 20 108 14 34 35 65 61 91 27 26 58 46 93 59 34 13 71 19 108 17 136 0 238-78 238-220 0-106-43-305-181-305-12-1-24 1-35 5-11 5-22 11-30 19-9 8-16 18-21 29-4 11-7 23-7 35 0 75 53 149 53 227 0 132-188 109-188-51-1-35 6-70 19-102-27-119-84-297-84-419 0-38 6-76 10-113 7-8 3-7 13-3 101 138 96 165 143 347 15-23 36-42 60-54 24-13 51-19 78-19 214 0 309 207 309 394-1 200-173 329-362 329z" horiz-adv-x="810" />

<glyph glyph-name="tiktok" unicode="&#xe921;" d="M323-130c-45 0-89 10-129 28-41 18-78 44-108 77-30 32-53 71-68 113-14 42-20 87-16 132 3 44 16 87 37 126 21 40 50 74 85 102 35 27 76 47 119 58 43 11 88 13 132 6v307c0 8 4 16 9 22 6 6 14 9 22 9l209 0c6 0 12-2 17-5 5-4 9-9 12-15 51-127 123-188 221-188 8 0 16-4 22-10 5-5 9-13 9-22v-208c0-8-4-16-9-22-6-6-14-9-22-9-77-3-152 15-219 51v-228c0-68-21-134-61-189-40-55-96-97-160-118-33-11-67-17-102-17z m0 584c-29 0-58-5-86-15-51-18-96-52-127-97-32-44-48-98-47-153 0-54 19-108 51-151 33-44 79-77 131-93 52-16 108-16 160 1 52 18 97 51 129 95 32 45 50 98 49 153v291c0 7 2 13 6 18 3 5 8 9 14 11 5 3 12 3 18 2 6-1 11-4 16-8 54-49 124-75 196-75v148c-103 11-184 81-239 208h-156v-595c0-15-3-30-9-44-6-14-14-26-25-37-13-13-30-23-48-29-18-5-37-6-55-3-19 4-36 12-51 24-14 12-26 28-33 45-9 21-11 44-7 66 5 23 16 43 32 59 16 16 36 27 58 32 23 4 46 1 67-7l8-4v153c-17 3-35 5-52 5z m0-209h-10c-10-2-20-7-27-14-8-7-13-17-15-27-1-10 0-21 3-30 4-8 9-14 15-19 7-6 15-9 23-11 8-1 16-1 24 1 8 2 15 7 22 12 5 5 9 10 12 17 3 6 5 13 5 20 0 10-3 20-9 29-5 8-14 15-23 19-6 3-13 4-20 4v-1z" horiz-adv-x="917" />

<glyph glyph-name="twitter-1" unicode="&#xe922;" d="M63-125c-5 0-10 1-15 3-4 2-8 4-12 8-7 7-11 17-11 26 0 10 4 20 11 27l355 355-359 497c-4 5-6 12-7 19 0 7 1 13 4 20 3 6 8 11 14 14 6 4 13 6 20 6l250 0c5 0 11-1 17-4 5-3 10-7 13-11l247-342 346 346c7 7 17 10 26 10 10 0 19-4 26-11 7-7 11-16 11-26 0-9-3-19-10-26l-355-355 359-497c4-5 7-12 7-19 1-7-1-13-4-20-3-6-8-11-14-15-6-3-13-5-19-5h-250c-6 0-12 1-17 4-6 3-10 7-14 11l-246 342-347-346c-3-4-8-6-12-8-5-2-10-3-14-3z m669 75h157l-334 463-261 362h-158l334-462 262-363z" horiz-adv-x="1000" />

<glyph glyph-name="whatsapp-1" unicode="&#xe923;" d="M850 705c-46 46-100 83-160 108-96 39-202 48-303 24-100-23-191-78-260-156-68-77-110-175-120-278-11-103 11-206 63-296l-70-257 263 69c104-57 226-75 342-49 117 25 220 92 292 187 71 96 106 214 97 333-9 118-60 230-144 315z m-350-763c-74 0-147 20-210 58l-15 9-156-41 41 150-10 18c-39 62-61 134-63 207-2 74 16 147 52 211 35 65 88 119 151 156 64 37 136 57 210 57 54 0 107-11 157-32 50-21 95-51 133-89 39-38 69-84 90-134 20-50 31-104 31-158 0-54-11-107-32-157-20-50-50-96-88-134-39-38-84-68-134-89-50-21-103-31-157-32z m226 308c-13 6-74 36-85 41-11 4-19 6-28-6-8-12-32-41-39-50-7-10-14-10-27-3-36 15-69 36-97 63-28 25-52 54-71 86-7 13 0 19 5 26 6 6 13 14 19 21 5 7 9 14 12 22 2 3 3 7 3 11 0 4-1 7-3 11-3 6-28 67-38 92-10 25-21 19-27 20h-26c-6-1-12-2-18-5-6-2-11-6-15-11-13-14-24-30-31-47-7-18-10-37-10-56 4-47 21-92 50-128 53-80 125-144 210-187 23-10 47-19 71-26 25-8 52-9 78-5 17 4 33 11 48 21 14 10 26 23 35 38 9 18 11 39 8 59-4 5-12 8-24 13z" horiz-adv-x="1000" />

<glyph glyph-name="arrow-left" unicode="&#xe924;" d="M1396 308h-1333c-17 0-33 7-45 19-11 11-18 27-18 44 0 16 7 32 18 44 12 12 28 18 45 18h1333c16 0 32-6 44-18 12-12 18-28 18-44 0-17-6-33-18-44-12-12-28-19-44-19z m-917-416c-13 0-26 4-36 12-166 122-443 344-443 467 0 123 277 345 443 467 12 9 28 12 44 10 15-3 29-11 39-24 9-13 13-29 10-44-2-16-11-30-23-39-200-153-379-322-388-372 8-46 192-217 391-365 10-8 18-19 22-31 4-13 4-26 0-38-4-13-12-23-23-31-10-8-23-12-36-12z" horiz-adv-x="1500" />

<glyph glyph-name="facebook-1" unicode="&#xe925;" d="M352-127h-181c-10 0-18 3-24 10-7 6-10 15-11 24v329h-102c-9 1-17 4-24 11-6 6-10 15-10 24l0 181c0 9 4 18 10 24 7 7 15 10 24 10h102v103c0 34 7 68 20 100 13 32 32 60 57 85 49 48 115 76 185 76l136 0c9 0 18-4 24-10 6-6 10-15 10-24v-182c0-9-4-17-10-24-6-6-15-10-24-10h-136c-2 0-3 0-5-1-1 0-2-1-3-2-1-1-2-2-3-4 0-1-1-3-1-4v-103h148c5 0 10-1 15-3 5-2 9-6 12-10 3-4 5-9 6-14 1-5 1-10 0-15l-45-182c-2-7-6-14-12-18-6-5-14-8-21-8h-103v-329c0-9-3-18-10-24-6-7-15-10-24-10z m-147 68h113v330c0 9 4 17 10 23 7 7 15 10 24 11h110l29 113h-137c-4 0-9 1-13 2-5 2-9 5-12 8-3 3-6 7-8 11-2 4-3 9-3 13v137c0 10 2 21 6 30 4 10 10 19 17 26 8 7 17 13 26 17 10 4 20 6 31 6h102v114h-102c-51 0-100-21-137-56-36-37-56-86-56-137v-136c0-9-4-18-10-24-6-7-15-10-24-10h-103v-114h103c9-1 17-4 23-11 7-6 10-14 11-23v-330z" horiz-adv-x="591" />

<glyph glyph-name="f-arrow-up-right" unicode="&#xe926;" d="M62-108c-8 0-16 1-23 4-8 3-15 8-21 14-11 12-18 28-18 44 0 17 7 33 18 44l834 834c12 11 27 17 43 16 17 0 32-6 43-18 12-11 18-27 19-43 0-16-6-32-17-44l-833-833c-6-6-13-11-21-14-7-3-15-4-24-4z m834 0c-17 0-32 6-44 18-12 12-18 28-19 44v771h-770c-17 0-33 7-44 19-12 11-19 27-19 44 0 16 7 32 19 44 11 11 27 18 44 18h833c16 0 32-7 44-18 12-12 18-28 18-44v-834c0-16-6-32-18-44-12-12-28-18-44-18z" horiz-adv-x="1000" />

<glyph glyph-name="f-award" unicode="&#xe927;" d="M352 204c-64 0-126 19-179 55-53 35-95 86-119 145-25 59-31 123-19 186 13 63 44 120 89 165 45 46 102 76 165 89 63 12 128 6 187-19 59-24 109-65 145-118 35-54 54-116 54-180 0-85-34-168-95-228-60-61-142-95-228-95z m0 584c-51 0-102-16-145-44-42-29-76-70-95-117-20-48-25-100-15-151 10-50 35-97 71-133 36-36 83-61 133-71 51-10 103-5 151 15 47 19 88 53 117 95 28 43 44 94 44 145 0 34-7 68-20 100-13 31-33 60-57 84-24 24-53 44-84 57-32 13-66 20-100 20z m-208-917c-5 0-9 1-13 2-4 2-8 5-11 8-3 4-5 8-7 12-1 4-1 9 0 13l50 380c2 7 6 14 13 19 6 4 14 6 22 5 7-1 14-5 19-11 5-6 8-14 8-21l-42-316 152 92c5 3 11 5 17 5 5 0 11-2 16-5l152-92-41 316c-1 4-1 9 0 13 0 4 2 8 5 12 2 3 5 6 9 9 4 2 8 3 12 4 4 1 9 0 13-1 4-1 8-3 11-6 4-3 6-6 8-10 2-4 3-8 3-13l51-380c1-6 0-12-3-17-2-5-6-10-11-13-5-3-11-5-17-5-5 0-11 2-16 5l-192 115-192-116c-5-3-10-4-16-4z" horiz-adv-x="708" />

<glyph glyph-name="f-bag" unicode="&#xe928;" d="M99 136c-9 1-18 4-24 10-7 7-10 15-10 25 0 9 3 17 10 24l583 583c6 6 15 9 24 9 8 0 17-4 23-10 6-6 10-15 10-24 0-8-3-17-9-23l-583-584c-7-6-15-10-24-10z m465 5c-9 1-18 4-24 10-7 7-10 15-10 25 0 9 3 17 10 24l45 45c6 6 15 10 24 10 9 0 18-4 24-10 7-6 10-15 10-24 0-9-3-18-10-24l-45-46c-7-6-15-10-24-10z m130 130c-5-1-9 0-13 2-5 2-8 4-11 8-7 6-10 15-10 24 0 9 3 17 10 24l100 100c3 3 6 6 11 8 4 1 8 2 13 3 4 0 9-1 13-3 5-2 8-4 12-7 3-4 5-8 7-12 2-4 3-9 3-13 0-5-1-9-3-13-2-5-5-8-8-11l-100-100c-3-4-7-6-11-8-4-2-9-3-13-2z m-261-398c-29 0-57 5-83 16-26 11-50 27-70 47l-213 213c-41 41-63 96-63 153 0 57 22 112 63 153l332 332c40 40 95 63 153 63 57 0 112-23 153-63l212-213c41-41 64-96 64-153 0-58-23-113-64-153l-331-332c-20-20-44-36-70-47-27-11-55-16-83-16z m118 909c-19 0-39-5-56-12-18-8-35-19-48-34l-332-331c-28-28-43-66-43-105 0-39 15-77 43-105l213-209c28-27 66-42 105-42 39 0 77 15 105 42l329 330c28 28 43 65 43 105 0 39-15 77-43 105l-211 213c-28 27-65 43-105 43z m305-909h-727c-9 0-18 3-24 10-7 6-10 15-10 24 0 9 3 17 10 24 6 6 15 10 24 10h727c9 0 18-4 24-10 6-7 10-15 10-24 0-9-4-18-10-24-6-7-15-10-24-10z" horiz-adv-x="1000" />

<glyph glyph-name="f-calendar" unicode="&#xe929;" d="M761-127h-636c-33 0-65 13-88 36-24 24-37 56-37 89l0 636c0 33 13 65 37 89 23 23 55 36 88 36h636c34 0 65-13 89-36 23-24 36-56 36-89v-636c0-33-13-65-36-89-24-23-55-36-89-36z m-636 818c-15 0-29-6-40-17-11-10-17-25-17-40v-636c0-15 6-30 17-41 11-10 25-16 40-16h636c15 0 30 6 41 16 10 11 16 26 16 41v636c0 15-6 30-16 40-11 11-26 17-41 17h-636z m500-91c-9 0-18 4-24 10-6 7-10 15-10 24v182c0 9 4 18 10 24 6 6 15 10 24 10 9 0 18-4 24-10 7-6 10-15 10-24v-182c0-9-4-17-10-24-6-6-15-10-24-10z m-364 0c-9 0-17 4-24 10-6 7-10 15-10 24v182c0 9 4 18 10 24 7 6 15 10 24 10 9 0 18-4 25-10 6-6 10-15 10-24v-182c-1-9-4-17-11-24-6-6-15-10-24-10z m591-182h-818c-9 0-18 4-24 10-6 7-10 15-10 24 0 9 4 18 10 24 6 7 15 10 24 10h818c9 0 18-3 24-10 7-6 10-15 10-24 0-9-3-17-10-24-6-6-15-10-24-10z" horiz-adv-x="909" />

<glyph glyph-name="f-cart" unicode="&#xe92a;" d="M380-128c-15 0-29 4-42 13-12 8-22 20-28 34-6 14-7 29-4 44 3 14 10 28 21 39 10 10 24 18 39 21 14 2 30 1 44-5 14-6 25-15 34-28 8-12 13-27 13-42-1-20-9-40-23-54-14-14-33-22-54-22z m0 87c-2 0-5-1-7-4-2-2-3-4-3-7 0-12 21-12 21 0 0 3-1 5-3 7-2 3-5 4-8 4z m479-87c-15 0-30 4-43 13-12 8-22 20-28 34-5 14-7 29-4 44 3 14 10 28 21 39 11 10 24 18 39 21 15 2 30 1 44-5 14-6 26-15 34-28 8-12 13-27 13-42 0-20-8-40-23-54-14-14-33-22-53-22z m0 87c-3 0-6-1-8-4-2-2-3-4-3-7 0-12 22-12 22 0 0 3-2 5-4 7-2 3-4 4-7 4z m-451 174c-27 0-54 9-74 26-23 18-38 42-44 70l-73 363c0 0 0 0 0 3l-37 190h-147c-9 0-17 3-23 10-6 6-10 14-10 22 0 9 4 17 10 23 6 6 14 10 23 10h174c7 0 14-2 20-7 6-5 10-12 12-19l38-191h712c5 0 10-1 14-3 4-2 8-5 11-9 3-4 6-8 7-13 1-4 1-9 0-14l-69-365c-6-28-21-52-44-70-21-17-49-27-77-26h-423z m-118 434l65-326c3-12 9-24 19-31 10-9 23-13 36-13h423c13 0 25 4 35 13 10 7 17 18 19 31l63 326-660 0z" horiz-adv-x="1043" />

<glyph glyph-name="f-check" unicode="&#xe92b;" d="M462-150c-11 0-21 2-30 6-9 3-18 9-25 16l-385 385c-14 14-22 34-22 55 0 20 8 40 22 54 15 15 35 23 55 23 20 0 40-8 55-23l330-331 791 793c15 14 34 22 55 22 20 0 40-8 54-22 15-15 23-34 23-55 0-20-8-40-23-54l-846-847c-7-7-15-13-25-16-9-4-19-6-29-6z" horiz-adv-x="1385" />

<glyph glyph-name="twitter" unicode="&#xf099;" d="M904 622q-37-54-90-93 0-8 0-23 0-73-21-145t-64-139-103-117-144-82-181-30q-151 0-276 81 19-2 43-2 126 0 224 77-59 1-105 36t-64 89q19-3 34-3 24 0 48 6-63 13-104 62t-41 115v2q38-21 82-23-37 25-59 64t-22 86q0 49 25 91 68-83 164-133t208-55q-5 21-5 41 0 75 53 127t127 53q79 0 132-57 61 12 115 44-21-64-80-100 52 6 104 28z" horiz-adv-x="928.6" />

<glyph glyph-name="facebook" unicode="&#xf09a;" d="M535 843v-147h-87q-48 0-65-20t-17-60v-106h164l-22-165h-142v-424h-171v424h-142v165h142v122q0 104 58 161t155 57q82 0 127-7z" horiz-adv-x="571.4" />

<glyph glyph-name="github-circled" unicode="&#xf09b;" d="M429 779q116 0 215-58t156-156 57-215q0-140-82-252t-211-155q-15-3-22 4t-7 17q0 1 0 43t0 75q0 54-29 79 32 3 57 10t53 22 45 37 30 58 11 84q0 67-44 115 21 51-4 114-16 5-46-6t-51-25l-21-13q-52 15-107 15t-108-15q-8 6-23 15t-47 22-47 7q-25-63-5-114-44-48-44-115 0-47 12-83t29-59 45-37 52-22 57-10q-21-20-27-58-12-5-25-8t-32-3-36 12-31 35q-11 18-27 29t-28 14l-11 1q-12 0-16-2t-3-7 5-8 7-6l4-3q12-6 24-21t18-29l6-13q7-21 24-34t37-17 39-3 31 1l13 3q0-22 0-50t1-30q0-10-8-17t-22-4q-129 43-211 155t-82 252q0 117 58 215t155 156 216 58z m-267-616q2 4-3 7-6 1-8-1-1-4 4-7 5-3 7 1z m18-19q4 3-1 9-6 5-9 2-4-3 1-9 5-6 9-2z m16-25q6 4 0 11-4 7-9 3-5-3 0-10t9-4z m24-23q4 4-2 10-7 7-11 2-5-5 2-11 6-6 11-1z m32-14q1 6-8 9-8 2-10-4t7-9q8-3 11 4z m35-3q0 7-10 6-9 0-9-6 0-7 10-6 9 0 9 6z m32 5q-1 7-10 5-9-1-8-8t10-4 8 7z" horiz-adv-x="857.1" />

</font>
</defs>
</svg>
